/* XPM */
static char *image_bil1666274544[] = {
/* columns rows colors chars-per-pixel */
"64 64 223 2 ",
"   c #372814",
".  c #1D1F22",
"X  c #1E2023",
"o  c #232323",
"O  c #292626",
"+  c #2A2728",
"@  c #2E2929",
"#  c #332D2D",
"$  c #382F2D",
"%  c #36302E",
"&  c #38302F",
"*  c #352F31",
"=  c #373130",
"-  c #3B3332",
";  c #462A05",
":  c #4D2E02",
">  c #553302",
",  c #593502",
"<  c #5B3905",
"1  c #57380A",
"2  c #4B3010",
"3  c #583B12",
"4  c #633C04",
"5  c #693E04",
"6  c #643F08",
"7  c #483628",
"8  c #563C21",
"9  c #413635",
"0  c #443837",
"q  c #4C3D35",
"w  c #433739",
"e  c #463A39",
"r  c #483B3A",
"t  c #6D4307",
"y  c #65410B",
"u  c #6C440A",
"i  c #6E480D",
"p  c #734507",
"a  c #72460A",
"s  c #754A0D",
"d  c #7B4C0C",
"f  c #6B4914",
"g  c #754D12",
"h  c #7A4E10",
"j  c #765012",
"k  c #7D5213",
"l  c #7D551B",
"z  c #59442D",
"x  c #4E403D",
"c  c #574434",
"v  c #51413F",
"b  c #664A25",
"n  c #63492C",
"m  c #684B28",
"M  c #765425",
"N  c #634B33",
"B  c #624D3A",
"V  c #6D5334",
"C  c #755C39",
"Z  c #7B6136",
"A  c #554541",
"S  c #594744",
"D  c #5D4A46",
"F  c #5B4B48",
"G  c #634E4A",
"H  c #66504B",
"J  c #6A534E",
"K  c #765F41",
"L  c #6E5650",
"P  c #665B59",
"I  c #705751",
"U  c #765B54",
"Y  c #786546",
"T  c #814F0A",
"R  c #83510E",
"E  c #8C570F",
"W  c #845413",
"Q  c #8A5613",
"!  c #8D5A15",
"~  c #855819",
"^  c #84591A",
"/  c #8D5C1A",
"(  c #925C16",
")  c #935E19",
"_  c #985F19",
"`  c #956116",
"'  c #9A6117",
"]  c #95621C",
"[  c #9B631B",
"{  c #9D681D",
"}  c #A2661B",
"|  c #A56A1C",
" . c #AB6C1D",
".. c #B06F1E",
"X. c #B0701F",
"o. c #845D26",
"O. c #8C6328",
"+. c #946622",
"@. c #986722",
"#. c #9C6A23",
"$. c #8C6A35",
"%. c #A36C22",
"&. c #AB6E23",
"*. c #AC7224",
"=. c #A8762B",
"-. c #AD7529",
";. c #B47323",
":. c #B97625",
">. c #B47A26",
",. c #BC7926",
"<. c #B37529",
"1. c #B97728",
"2. c #B47B2B",
"3. c #BB7C2C",
"4. c #A87D37",
"5. c #B67F30",
"6. c #C37E2A",
"7. c #8A7545",
"8. c #9A7944",
"9. c #867D7E",
"0. c #BC802D",
"q. c #BC8332",
"w. c #B88637",
"e. c #C5812C",
"r. c #CB842E",
"t. c #D0872F",
"y. c #C38533",
"u. c #CB8630",
"i. c #C58935",
"p. c #CD8B33",
"a. c #C78F39",
"s. c #D48C33",
"d. c #D98F35",
"f. c #C4913D",
"g. c #CD923C",
"h. c #D49136",
"j. c #DB9136",
"k. c #D4943B",
"l. c #DC973A",
"z. c #D7983D",
"x. c #DD9A3D",
"c. c #E19639",
"v. c #E39B3C",
"b. c #EA9C3B",
"n. c #E5A23F",
"m. c #F4A43F",
"M. c #9A814A",
"N. c #B49549",
"B. c #AEA15D",
"V. c #B09F7E",
"C. c #C99640",
"Z. c #D49D43",
"A. c #DB9D41",
"S. c #CC9F50",
"D. c #E19E41",
"F. c #CFA84F",
"G. c #DAA64A",
"H. c #D4B158",
"J. c #E5A343",
"K. c #EAA543",
"L. c #ECA946",
"P. c #E7A748",
"I. c #E2A94B",
"U. c #ECAC4A",
"Y. c #F5AA44",
"T. c #F2AE4A",
"R. c #E7B04D",
"E. c #F6B34D",
"W. c #FAB44D",
"Q. c #F9B94E",
"!. c #E9B857",
"~. c #F6BA55",
"^. c #FDBB52",
"/. c #EDC15C",
"(. c #FEC356",
"). c #F8C656",
"_. c #FDC559",
"`. c #FFCB5C",
"'. c #FFD55F",
"]. c #EEC862",
"[. c #FCCC64",
"{. c #FED463",
"}. c #FFD966",
"|. c #F3D56A",
" X c #FFDB6A",
".X c #E7D276",
"XX c #FAD974",
"oX c #FFE26E",
"OX c #FEE473",
"+X c #FFEB75",
"@X c #FFEE78",
"#X c #FFF076",
"$X c #FFF37C",
"%X c #97908E",
"&X c #AEA687",
"*X c #ABA39E",
"=X c #B6AB96",
"-X c #D6C588",
";X c #FFEE8D",
":X c #FFFA84",
">X c #FFF688",
",X c #FFFD8B",
"<X c #FFFD94",
"1X c #FDF299",
"2X c #FFFE9E",
"3X c #C5C1BD",
"4X c #F3DDAD",
"5X c #FFFFA4",
"6X c #FFFFAC",
"7X c #F8ECB2",
"8X c #FFFFB3",
"9X c #FFFFBC",
"0X c #D1CDC3",
"qX c #E0DDDF",
"wX c #EDEBC4",
"eX c #FDF3C0",
"rX c #FFFFC3",
"tX c #FFFFCB",
"yX c #FFFED4",
"uX c #FFFFDC",
"iX c #FFFFE4",
"pX c #FCFCE9",
"aX c #FFFFF8",
/* pixels */
"o o X o o X o . o o o @ - 9 0 - # O X X o o o o . o . o o o o @ % x x 0 e e x - r r - % @ O O @ - e - - @ O X o X o o o o o o o ",
"o o o o o o o o o o O @ $ 9 0 - # O o o X o o o o o o o X X o # % 0 e 0 x e x x r r 0 - @ o O # - r 9 = @ o o o o o o o o . . o ",
"o o . o o o o o o o o @ = 9 r - # + o O o o o o o X . . . . o @ % 0 x x x e - x r r w - % O O # - e 9 - @ O o o o o o o o O o o ",
"o o o o O + @ + + @ @ # - 9 r 9 % # + @ @ @ @ @ O O z M Z V z 7 0 0 0 0 - x - x r r r - % @ @ = - r 9 - $ @ @ @ + @ @ # $ % - - ",
". o o o @ # $ $ $ $ - - 9 0 r 9 - - = = * = % @ c M.I.).).).n.0.=.M z x x e e e e x w - - - - - e r 9 - - - % % $ % - 0 x x v x ",
"o o o @ # - 9 9 - 9 9 - 0 r r r r - - 9 9 - r 8.!.(.`.'.'.Q.h.0.0.0.%.+.n x e x r r r e e - e - r r r 9 9 9 9 9 9 - x v S G H H ",
"o o o @ # 9 r r r r r r r r r r r r e w w K H.}.'.'._.(.(.n.y.>.0.0.*. .{ ^ b e e e r r x e e e r r r e r r r r r r v D J U U U ",
"O @ @ % - 9 r r r r r r r r r r r r w x 8.|.+X}.'._.(.Q.n.l.0.0.0.*.0.>.{ ` / b r e e x e e e x r r r r r r r r e r v D J U U U ",
"= = = = - 9 r r r r r r r w r r r e 0 B.@X@XOX`.(.Q.Q.m.x.p.>. . .*.0.{ | { ` E j x 0 0 x x - e r r r r r r r r r r v G J U U U ",
"9 9 0 9 r 9 r r r r r r r r r r 0 9 9.<X:X#X X_.Q.E.Q.W.n.p.*.| *.;.*.| | | ` ` ` O.c 0 - x x w r r r r r r r r r r v D J U U U ",
"r r r r r r r r r r r r r r r r 0 P wX8X<X#X{.^.W.W.^.W.n.p.;. ...0.0.0...| ' ` ` 0.$.x - x x - r w r r r r r r r r v D J U U U ",
"r r r r r r r r r r r r w r r r r 3XuX5X,X#X(.^.Q.Y.n.n.h.e.X. .........e.X. .' ` { %.m x - x x r r r 0 r r r r e r v D J U U U ",
"r r r r r r r r r r r r r r r - 9.aXrX2X,X@X_.W.Y.n.v.x.h.r.:.X.....X.X.X.X. . .| ` ` k c 0 x 0 r r r 0 r r r 0 r r A D J U U U ",
"r r r r r r r r r r r r r r w S qXaXrX2X>XoX_.E.J.x.x.n.k.p.,.;.....X... ...| |  .| ` ` b x 0 x r r r r r r r r r r v D J U U U ",
"r r 9 r r r r r r w r r r r 9 %XaXiX9X5X$X X_.L.x.h.l.x.p.r.,.X......... .| | |  .| ` ` l x 0 0 r r r r r w r r r r A D L U U U ",
"= - - - 9 9 r r r r r r r r r 0XiXtX8X<X+X}._.U.J.h.n.n.h.r.6.:.0.X.X..... . . . . .{ ` ! n 0 x r r r r r r r r r r v D L U U U ",
"# # # = - 0 r r r r r r r 9 P pXyXrX6X,X+X}._.E.L.J.Y.L.l.s.e.,.X.X.6.X.;... . . . .} ` ( M r r r r r r r r r e r r v D J U U U ",
"O O + @ - w r r r r r r 0 9 %XaXtX9X6X>XOX}.[._.^.W.W.L.v.h.r.r.t.6.6.6.,.X.;... . .} ` ! ^ z e r r 9 r r w r r r r v D J U U U ",
"o O O @ = 9 r r x r x x r q *XpX9X8X2X@XOXOX}.'.(.^.W.K.v.j.d.s.d.d.t.t.6.6.;.X. .| } ' ( ! b e r r r r r r r r e r x D L U U U ",
"@ @ @ $ - 9 r x v v A A S v *XpXrX8X<X@X+XOX}.{._.^.W.W.J.v.j.h.c.c.s.t.r.6.r.6.,.;.| { ` ! M q r r r r r r r r r r v D L U U U ",
"= = = - 9 9 r v A D H H G D *XpXrX6X<X$X$X$X+X}._.^.W.Y.v.h.d.d.j.j.t.r.6.6.u.p.e.:.;.%.[ ] M q r r w r r r r r r r A D J U U U ",
"0 9 r 0 r r r A D J I I I J =XuXrX8X5X:X:X+X}.~.L.z.z.k.s.r.p.e.e.,.;.| ] ! Q ! W R ! [ { @.l q w r r r r r r r r r r D J U U U ",
"r 0 0 r r r r A G J L L L J =XyXrXtX6XXXG.C.w.@.] +.#.-.2.6.y.<.%.] / ^ s , : : 4 5 6 t Q [ ^ q r r r r r r r r r r A S H I U U ",
"- - = 9 9 r r r v v F S S c &XtXtXtX;XC.O.j f < 6 g ^ ( o.%.2.*.] W W k t < 5 u g k d t d ] o.m z c r r r r r 0 r r x S F H H H ",
"# # # $ - r r r 0 0 0 0 0 - V.yXtX1XS.O.l j f i i s k ^ k { -.&.] / W h 5 6 a h ^ ) _ ) Q @.o.) l c r r r r r r r r r A A S S S ",
"o O O @ = 9 r - = $ @ @ O O &XpX9X|.w.+.@.+.^ j i y s ^ / =.0.*.[ Q d 6 , : ; > h g h @.%.%._ _ W z r r r r r r r r r r r A A r ",
"o o o O # - 9 = # + O o % $.-XiX9X].w.#.@.^ y ; : y < a ^ 0.n.s.;.W s > 6 f ; f w.W 5 [ &.<._ _ W z w r r r r w r r r r x r r r ",
"o o o O # % = $ $ # @ + C ).XXyX9X/.w.l l w.4.> < l , < W p.`.T.u.! d , > 5 6 k @.) [ &.3.3.&.<.@.z w r r r r r r r r A A S S D ",
"X o o o O @ # # * = = = o.A.~.yXrX[.a.-.F.I.f.l u y , y [ R.oX(.b...W 5 4 5 d W ) %.&.;.1.6.&.&.%.z r r r r r r r r x A D G H H ",
"o o o o o o O @ % - w - V G.XXtXtXOX!.~.}.I.=.+.k u s +.z.oX:X`.m.r. .( W d W ( #.&.1.6.s.u.<.) @.n e r r r r r r w A S G I I I ",
"X o . o o o O @ = 9 r r V .XOXeXtX#X X`.(.A.=.#.] #.g.L.`.<X6X'.Y.j.,.6.6.1.*.:.6.6.s.c.c.s.1._ Q n e r r r r r r r A A H I U I ",
"o o o o + @ # - - w r r C G.5.4XtX<X:X}._.T.J.z.J.L.^.`.@X8X9X{.Y.b.6.6.t.s.s.d.d.c.b.c.j.u.<.[ Q V w r w r r r r r A A D G H H ",
"o o o O $ * = - 9 0 r e $.0.=.7XrX6X,X#X}._.W.^.E.Y.E.'.>XrXrX}.m.m.6.6.;.6.t.j.b.b.c.j.s.6.&.[ } N r r r r r r r r r v A A S S ",
"o o o @ # - e 9 r e r w Z ,.S.8X9X5X$X+X}.[._.^.L.k.i.U.>XrX9X}.m.Y.d.6.} ..6.d.c.b.c.d.t.6.} ) %.c w r r w r r e r r r v v r v ",
"o O O @ $ - r r r r r e K G.U.;X6X,X@XoX X}._.W.v.3.[ H.5XrX;XW.j.c.c.d.6.' 6.6.d.d.d.t.6.;.[ W _ N v v v v v q v v r v v v v v ",
"# @ # = - e r r r r r 0 x -X[.XX<X#X@XOX{.`.^.D.u.%.) .X;XOX(.J.s.6.6.;.;.' } 6.6.s.6.6.6.&.) g G S S S S S D S S S S S S S S A ",
"= = = 9 9 r r r r r r r w V.[.!.>X@XOX}._.W.P.s.&.) @.A.2.@.3.3.;. .Q Q _ ' '  .;.6.;.;.&.%.W f A G H H H H H H H H H H G G H H ",
"r 9 9 r 9 r r r r e r r w Y I.A.+X+X}.`.W.D.k.3.%.[ <.3./ W %.%._ ( 5 R _ } } _ } .... .} ) h b G J I U I U I U U I U I I U I U ",
"r r r r r r r r e r e r e r 8.Z.].XX{.(.U.Z.y.&.#.<.k.x.q.-.=.) Q R T Q _ '  .' _ |  .| _ W a b v H J J J I I J J J J I U U U U ",
"r r r r r e r r r r r r r r e N H. X[._.P.a.<.%.&.h.L.L.A.w.@.W Q Q Q E E ( ' } } _ } } E d a 8 r v A A A q S A S q G H I U U U ",
"r r r r r r r r e r r r r e e e N.OX].^.P.i.=.<.q.k.D.J.A.k.3.) R _ } } _ _ Q Q %._ _ _ R 5 5 8 - - - 9 - 9 - 9 0 9 r S L U U U ",
"r r r r r r r r r r r r r r r w 7.|.R.U.P.0.2.q.y.5.i.Z.U.J.i.<.%._ Q Q _ _ T R _ } _ Q d s 5 q % @ + O @ + O O + @ - r G U U U ",
"9 9 9 r w r r r r r r r r r e e c !./.G.G.i.q.2.=.+.-.q.5.@.R s W 5 4 4 5 1 4 5 ( ' _ Q T a 1 7 # O o O O o o O O O $ r A L L L ",
"= = = - 9 9 r r r e r r r r r r r 8.[.~.I.Z.q.@.W 5 < 6 h ^ t 5 5 5 5 R 5 5 5 T Q _ _ ( T 4 3 9 % # @ # # # # $ @ $ $ e A G G G ",
"@ @ @ $ - 9 r r r r r r e r r r e x S.~.I.A.q.%.h s h / 5.g.-.{ } [ _ Q Q _ _ _ ( _ _ ! T , 8 w - = - - - - - - - - 9 r r S S S ",
"O o O # - 9 r r r r e r r r r e r e K A.G.A.5.+./ #.3.g.k.a.3.| [ _ _ _ } | } } _ ( E R 5 : q e e r w r 0 0 0 0 9 e 9 r A e A e ",
"o . o @ $ 9 r r e r r r r r r r r r x 8.Z.Z.i.%.#.&.5.y.5.%./ k 5 R W Q _ } } ' _ _ Q p , 7 r r r r r r r r r r r r r r r r e r ",
"o o o @ * - r r r r r e r r r r r e r c w.C.C.q.%.*.5.y.2.[ Q s 5 R W Q _ } ' ' _ E R 4 2 w r r r r r r r r r r r r r r r r r r ",
"o o o + $ 9 r r r r r r w r r r r r r 0 C w.f.f.5.q.p.k.i.0.-.{ ( E ' }  . .} } [ Q 5 2 w r w r r r r r r r e r r r r r r r r r ",
"X o o @ = w r r r r r r r r r r r r r r q $.=.5.a.A.U.E.K.z.p.3...} } }  ...} _ d 6 7 w r r r r r r r r r r r r r e r r r r r r ",
"o o o @ = - r r r r r r w r r r r r r r r B o.k @.a.^.^.T.k.i.*.' } _ _ _ [ } Q 3 7 r r r r r r e r e r e r r r r r r r r r r A ",
"o o o @ $ - r r r r r r r r r r r r r x A S V g i O.i.Z.g.q.%.! Q E T T E T 5 8 0 r r r r r r r r r r r r r r e r r r A D D D D ",
"o . o @ $ 9 r r r r r r r r r r r r r A S G J N 3 < s +.{ ] k j 5 5 5 5 6 8 r r 0 r r r r w r r r r r r 0 r r r r e r A G H J H ",
"o o o @ $ 9 r r r r 0 r r r r 0 r r x A D L I A e     2 1 < , : , 2 2 7 r w r r r r r r r r r r r r r r r r r r r r A D H I I U ",
"o o o @ $ 9 r r r r r r r r r r r r r x D J H r - + O @ % 9 7 - e e q r r r r r r r r r r r r r e r r r r r r r r r A G I U U U ",
"o . o + $ 9 r r r r r r r r r r r r r x v r r - = + o @ % - x e r r r r r r r r r w r r r r r r r r r e r r r e e r r G J U U U ",
"o o o @ * 9 r r r r r r r r r r r r 0 9 9 - - # + o O + w w r w r r r r r w r r r r r w r r r r r r r r w r r r r r v G J U U U ",
"o o o * $ 9 r r r r r r r r r r r r r w $ + O o O . O * * w r w r r r r r r r r r r r r r r r r r r r w r r r r r r r G J U U U ",
"# # $ - 0 r A r r A v A A r r r r A r r 0 - $ # + + @ * w r v v v v v v v v v v v v v r r r r r v v A v A v v v r r D G I U U U ",
"r e r r A S D D D D S A A r r r v D G A r q r - - $ * w v S D F G D D D D D D G D D F A v r v v S F D D D F F F G G G J U U U U ",
"D G D G J J L L L H G G A r r A D G H H G G S A r w 9 r S G J J H L H L L H L H J J J F S r r A D J J J I I J J J J I I U U U U ",
"U I I I U U L U U U U H S A r A G I U I U I I G S v r A G I U U U U I U U U U U U U I G S r v D H I U I U U U U U U U U U U U U ",
"U U U U U U U U U U U G D x r S G I U U U U I L G v r G J I U U U U 7.I U U U U U U I G S r v D J I U U U U U U U U U U U 7.U U ",
"U U U U U U U U U U U H D A r S G U U U U U I G S r r S J U U U U U U U U U U U U U I G S r v D J U U U U U U U U U U U U U U U "
};
