/* XPM */
static char *b_c1666448964[] = {
/* columns rows colors chars-per-pixel */
"64 64 230 2 ",
"   c #080404",
".  c #170F0F",
"X  c #2B0D09",
"o  c #350E02",
"O  c #3B1C03",
"+  c #261A15",
"@  c #361E15",
"#  c #2F2113",
"$  c #38271D",
"%  c #242323",
"&  c #2B2625",
"*  c #2A2827",
"=  c #2C2928",
"-  c #3B2A27",
";  c #312C2C",
":  c #37302F",
">  c #3C312F",
",  c #3B3332",
"<  c #431500",
"1  c #481E04",
"2  c #551C01",
"3  c #5A1E02",
"4  c #482608",
"5  c #532501",
"6  c #5D2A01",
"7  c #5C3209",
"8  c #492C18",
"9  c #543218",
"0  c #672902",
"q  c #642D00",
"w  c #7C2D05",
"e  c #653101",
"r  c #6C3502",
"t  c #6C3709",
"y  c #713501",
"u  c #783604",
"i  c #753C01",
"p  c #7B3B00",
"a  c #4B3529",
"s  c #553926",
"d  c #423635",
"f  c #433837",
"g  c #4C3B36",
"h  c #463A39",
"j  c #493B3A",
"k  c #5C441B",
"l  c #7C4201",
"z  c #784409",
"x  c #704814",
"c  c #4F403D",
"v  c #52433C",
"b  c #5A4739",
"n  c #6B4C2B",
"m  c #755127",
"M  c #634A34",
"N  c #65513D",
"B  c #6A543C",
"V  c #755838",
"C  c #554541",
"Z  c #5A4744",
"A  c #5C4945",
"S  c #5E5243",
"D  c #604C47",
"F  c #624D49",
"G  c #685144",
"H  c #65504B",
"J  c #6C544F",
"K  c #775A48",
"L  c #6F5750",
"P  c #705751",
"I  c #755A54",
"U  c #6E6146",
"Y  c #756848",
"T  c #833D04",
"R  c #844302",
"E  c #8C4601",
"W  c #8C4B01",
"Q  c #864809",
"!  c #934C01",
"~  c #944B07",
"^  c #8F5508",
"/  c #945302",
"(  c #9B5401",
")  c #9E5902",
"_  c #94530B",
"`  c #905513",
"'  c #A35B03",
"]  c #A75B07",
"[  c #A8540D",
"{  c #9C640D",
"}  c #9A6215",
"|  c #A76407",
" . c #AB6203",
".. c #AB620B",
"X. c #B36305",
"o. c #B56904",
"O. c #B76907",
"+. c #B36C0C",
"@. c #BC6C0B",
"#. c #BE7109",
"$. c #AB6916",
"%. c #B46C13",
"&. c #BE6813",
"*. c #BA7415",
"=. c #885D28",
"-. c #895930",
";. c #896839",
":. c #996F36",
">. c #A56C20",
",. c #A87229",
"<. c #B57822",
"1. c #A8783A",
"2. c #C1670A",
"3. c #C26D0C",
"4. c #C6730A",
"5. c #C3740A",
"6. c #CC7B0B",
"7. c #D0760F",
"8. c #D17E0D",
"9. c #C57514",
"0. c #C47A14",
"q. c #CA7817",
"w. c #D37D13",
"e. c #D67817",
"r. c #C47D22",
"t. c #846842",
"y. c #85784B",
"u. c #987842",
"i. c #817856",
"p. c #A17B44",
"a. c #BD801D",
"s. c #B7853B",
"d. c #D7820F",
"f. c #CD8113",
"g. c #CB821A",
"h. c #D58112",
"j. c #DA8413",
"k. c #D9851A",
"l. c #DB8A1B",
"z. c #E38B15",
"x. c #E68A1A",
"c. c #E48C1B",
"v. c #E3931E",
"b. c #EC931C",
"n. c #F3971E",
"m. c #F4991F",
"M. c #C98625",
"N. c #D68B28",
"B. c #CD902D",
"V. c #DB9627",
"C. c #CA9338",
"Z. c #D49938",
"A. c #E48C22",
"S. c #E39424",
"D. c #EB9421",
"F. c #E59A27",
"G. c #EC9B25",
"H. c #EC9E29",
"J. c #F49B26",
"K. c #F59E24",
"L. c #FA9E23",
"P. c #E39D32",
"I. c #D1A53D",
"U. c #E7A32A",
"Y. c #EDA32A",
"T. c #FCA326",
"R. c #FFAA26",
"E. c #F4A529",
"W. c #F4A42B",
"Q. c #FBA52A",
"!. c #FEAC2B",
"~. c #FFB22E",
"^. c #E7A736",
"/. c #F1A630",
"(. c #F6AB34",
"). c #FBAD32",
"_. c #EDB43E",
"`. c #FEB333",
"'. c #FFBB34",
"]. c #F7B639",
"[. c #FFBC3B",
"{. c #FFC137",
"}. c #F6C03B",
"|. c #FFC33B",
" X c #FFCA3E",
".X c #968B51",
"XX c #AC974B",
"oX c #B3AA5E",
"OX c #B4AF68",
"+X c #C59941",
"@X c #CCAE49",
"#X c #E4BD4A",
"$X c #FBBE41",
"%X c #C6BA62",
"&X c #DAC152",
"*X c #FFC442",
"=X c #FFCB43",
"-X c #FFCD49",
";X c #FFD246",
":X c #F6D24F",
">X c #FFD44B",
",X c #FFDB4E",
"<X c #E7CA52",
"1X c #FFD751",
"2X c #FFDC52",
"3X c #FFDF58",
"4X c #FFE253",
"5X c #F4E35D",
"6X c #FFE45A",
"7X c #FFEA5C",
"8X c #D9D46C",
"9X c #E0DD70",
"0X c #FEEC63",
"qX c #F8EC68",
"wX c #FFF264",
"eX c #FFF967",
"rX c #FFF56A",
"tX c #FFFA6C",
"yX c #ECE875",
"uX c #F9F475",
"iX c #FFFD73",
"pX c #FEFD7B",
"aX c #F8F681",
"sX c #FFFD83",
"dX c #FFFE8C",
"fX c #FFFF97",
"gX c #FFFFA5",
"hX c #FFFFBA",
"jX c #FFFFC3",
"kX c #FFFFD8",
/* pixels */
"% % % % % % % % % % % ; , , h , = * % % % % % % % % % % % % % * , , C , h j j h j j f > = * * = , f f , ; % % % % % % % % % % % ",
"% % % % % % % % % % % ; , h h , = * % % % % % % % % % % % % % ; : c h , C , j j j j f , = * * = , f f : ; % % % % % % % % % % . ",
"% % % % % % % * % % = ; , h , , ; = * * % * % * * % % % * % * : , , C C j h j h j j f , ; = = ; , h f , ; ; % % % % % * * ; * = ",
"+ % % % * ; ; ; % = ; , , h j , : : = = * = = = = = * * ; ; ; , , h h h j j j j j j f , , ; ; , , h h , , ; ; ; * * : : , , h , ",
"% % % = ; : , , , , , , h h h h , , : : : : , : , , , , , , , , , , , c j j j h j h h f d , , , h h h h , , , , , , , , C C C C ",
"% % % ; , , h , , h h h h j j h h h h h f c , , f f h , h , h , C c c c h j j j j j j h f f h f h h h h h h f f , , C C Z H J J ",
"% % * ; , h h j j j j j j h h j h h h h c h f c h j j h c C C C c v v v C , j j j h j h j j j j j j j j j j j j j j j Z H I I I ",
"% * ; , , h j j j j h j j j j j h c h h c h c , h j c C S U Y .X.X.X.XY U C C C j j j j j j j h j j h j h j j h j j C Z H I I I ",
", , , , h h j j j h h j j j j h h h j h j j c c j S Y OX9XiXiXiXpXpXsXsXaX8XoXL c h h j j h j j j j j j j j j j j j j C H P I I ",
"f h h h h h j h j j j j j h j j h c j j h j c v .X8XpXuXiXtXtXiXpXsXdXdXdXdXaXyX%Xy.b j j h j j j h j j h j h j j j C Z H P I I ",
"h h j j h j j j h j h h j h j h h h c , j c N oXyXpXiXiXtXtXtXiXpXdXhXjXhXfXdXdXaXyXOXY v c j j h j j h j j j h h j C Z J I I I ",
"j h h j j j j h j j j j j j j j c , c c c t.&XuXsXsXpXtXeXtXtXiXsXgXkXkXjXgXfXfXdXpXrX8X.XA h h j j j j h j j j j j j Z J I I I ",
"j h j j j j h j j h j h j j j h h c h v :.&X7XpXpXpXiXtXeXwXrXiXsXfXjXhXgXfXdXsXpXiXrXqX8XXXM h h j h j j h j h h h C Z H P I I ",
"j j j j j h j j j j j j h j j j h c v u.<X2XwXpXpXiXrXeXwXwX0XrXpXsXsXsXuXuXuX0X0X0X6X6X7X:XXXb j j j j j j j j j h j Z H P I I ",
"f h f h h h h j j h j j j h j j c b ;.@X,X4XwXtXiXtXrXrXwX7X7XwXrXrXwX0X6X3X6X3X3X3X3X2X2X4X&Xy.j j h j j h h j j j j Z J I I I ",
", , , , h h j j j j h j j j h C b Y s. X;X4XwXeXtXtXeXwX7X4X4X4X7X7X4X1X1X-X1X1X1X1X1X1X1X1X:X+XC h j j j j j j j h C Z J I I I ",
"; = ; , , h j j h h j j h j c C F p._. X;X,X7XwXeXeXwX7X4X4X4X4X4X4X>X X=X=X=X-X-X-X>X1X-X-X-X#Xt.j j j h j j j j j c Z F P I I ",
"* % = : , h h j h h j j j j c C t.+X{.{. X,X4X6X7X7X6X,X,X4X4X4X4X,X X|.|.*X*X=X-X-X-X-X-X-X-X$X+Xb j j j j j h j h c Z H I I I ",
"% % = ; , h j j j C j C c c C A u.^.'.{. X,X,X4X4X6X,X;X;X;X,X4X,X;X{.{.[.[.[.[.[.$X$X*X$X*X$X$X#XV j j h j h j j j j Z H P I I ",
"; ; ; , , h j c C C Z A Z Z C G 1.).`.'.|.=X;X,X,X,X,X X X X;X,X;X{.'.~.`.`.`.`.`.[.$X$X$X$X[.$X].s.j j j j j j j h c Z H P I i.",
", : , d h h j C A F H H H H F t.C.~.~.'.|.;X;X;X;X;X=X|.{.|. X X|.~.~.R.~.!.!.!.).`.[.`.$X[.).[.(.Z.b j j j h j j j c Z H I I I ",
"f f f h h j c C A L P P P P J :.Y.'.'.{.;X;X;X X;X;X X|.'.{.{.'.~.~.R.~.).!.!.Q.Q.).`.).`.`.).).).^.G g j j j j j j c Z H P t.I ",
"f f f f h j j Z A H L L L L Y s.[.|.;X;X>X;X>X,X4X,X=X|.{.{.[.'.~.R.R.~.~.!.!.E.W.W.).).).).).).(.(.t.g j j j j j j j Z F J I I ",
": , , d f h j c C C C C C C ;.I.|.>X,X;X;X;X,X4X4X,X;X;X;X-X|.|.'.R.~.R.!.!.Q.!.Q.Q.).).(.(.).`.(.).p.g j h j h j j j C Z F H F ",
"; ; ; : f f h h f f f f c , ;.V./.[.=X=X*X=X;X-X=X=X;X1X2X,X>X;X X~.~.R.R.R.Q.Q.!.).Q.W./.W.W.Y./.$Xr.c j j j j j j j C C Z Z Z ",
"% * ; ; , h h , : ; = = = ; x { 0.F.).'.`.E.Y.S.g.*.a.B.^._.$X-X X{.R.R.T.R.!.Q.W.Q.W.W.H.G.F.F.A./.+XZ h j h j j j j j j j c c ",
"% % % ; , , f , ; = % % % $ x ^ | 0.S.Q.J.k.9.X.Q y e Q $.g.V.V./.'.~.R.R.!.!.T.W.W.W.H.H.H.H.H.A.V.P.Z j j j h j j j j j j j C ",
"% % % = ; ; : : ; ; ; ; * k } *.*.0.k.D.c.4.] ! p y y l ^ | +.%.*.l.U.~.!.~.~.!.W.H.H.G.H./.W.H.^.^.(.M j j j j h j j j Z Z Z Z ",
"% % % % % % ; ; : : , : , M ,.0.*.+.f.l.j.X.! T p p T W ( ) ' ) | o.l.E.`.'.~.!.Q.W.H.G.G.F.S.^.V.<.q.V c j j j j j j C Z F F H ",
"% % % % % % = ; : f f f f Z ,.%.^ z ^ f.D.X.T p y 6 y Q z z i l / o.f.m.`.`.~.!.Q.W.W.H.V.N.S.F.0...[ -.c j j j j j j Z F J P P ",
"% % % % % % = ; , f j j j j m } } 7 4 a.].h.! u 0 2 Q >.x 7 x i ) f.v.E.~.`.~.!.!.!.E.H.v.c.J.c.q.P.2.~ c j h j j j c Z F P P P ",
"% % % % = = ; , d f j j j j M >.*.` k oX,XE.7.] ! T ..r.%._ | +.f.U.~.~.'.~.`.!.~.!.Q.H.b.v.e.9.V.-XJ.[ C j j j j j j C Z F H H ",
"% % * = ; : , , h h j h j v ;.M.#.*.I.qX;X'.!.K.h.@.] X.O.@.w.Y.{.|.{.{.~.'.~.~.`.!.!.K.G.l.X.T ` N.Q.q.M h h j j h j c C C Z Z ",
"% % * = : d h h h h j j h B s.F.*.M.5XrX,X'.'.'.'.W.g.%...*.V.}.;X X{.~.R.~.~.R.~.!.!.K.K.Y.w.E T [ Q.r.M j j j j j j j c c c c ",
"% % = ; , f h j j j h j j 1.#X].U. XwXwX4X X=X[.[.=X=X*X|.-X2X4X,X X{.~.R.R.R.R.T.Q.T.K.~. X_.h.k.e.).p.b j c c c c c c j c j c ",
"= = ; , , h j j h j h h B XX;X>X;X2XwXwX;X|.=XQ.S.).|.-X;X6X7X7X,X X'.~.R.L.n.b.m.K.K.E.Q.`.v.o.Y.[.(.t.D Z Z Z Z Z Z Z Z Z Z Z ",
", , , , f h j j j h j j Y #X=X|.=X2XwX6X>X>X1X[.4.7.W.[.-X1X2X2X;X X~.R.L.n.z.z.b.n.E.T.T.T.n.H.-XY.9.J H H F H H F H H H H H H ",
"f f f h h h j h j j h j :.^.`.).'.-X1X2X1X6X>X(.7.3.w.J.[.[.$X[.'.'.R.R.n.z.z.z.v.b.b.b.b.z.G.].[.J.1.K I P P P I I P P P P I P ",
"h j j h j j j j j j j j :.Z.K.D.W.).W.F.N.r.&.] e.D.w.w.D.T.L.L.T.T.L.L.b.z.z.z.j.j.h.h.8.7.z.n.x.r.K J J L J L J J J P I I I I ",
"j j j j j h j j h j h j ;.N.7...*.0.[ T 0 3 3 ! A.Q.A.@.3.w.h.8.8.d.d.z.z.d.z.d.h.6.#.5.#.5.j.*.~ n Z Z C Z C C Z Z D F P I I I ",
"j j j h j h j j j h j h M <.[ W &.9.~ e 3 3 p 2.J.Q.D.2.[ ' ] ' ( ' X.4.6.8.8.8.6.5.o.o.l 4 4 O 8 d d d f d d d d d h Z F P I I ",
"j h j j j j h j j j j j g =.Q ~ q.k.' p p ( 3.x.L.Q.A.9.' ! ! E p p !  .#.6.6.6.4.o.o.) 4       & = * ; ; * ; = = = : h Z L I I ",
"f f f h h h j j j h j j j n z T %.g.] ~ ! ] 7.c.S.N.e...( ( ' ! p 0 p ( o.3.5.#.o.| | l O     % ; = % % % % % % % % ; d Z H I I ",
", , , , f h j j j j h j j g m ! | +.^ R p T _ [ [ Q u u E ' X.' R r p ( '  . . .) ) / l < . & > > ; ; ; ; ; ; ; ; ; : h c F H F ",
"; ; ; , , h j j j h j h h j n | %.&.[ T T ` [ [ ~ w t ` ] @.o.' E R ! ( ( ! / W ^ W l r 4 $ d d , , , , : , , , , : d h c C Z Z ",
"% % * ; , h j j j j j j j j v =.M.e.e.&.2.r.Z.A.x.l.A.D.b.8. .E E ( ) W R i i i l z e 7 a d j h h h f f d h h d h d h h j c c c ",
"% % * ; , f h j h j h j j j h M ,.D.A.e.e.e.e.D.L.Q.R.L.b.4.! p E ) ( i e e q e 6 e 9 a g h g j j j h j j j j j h h h h h h h h ",
"% % % = , f j j j j j j j h h j -.N.A.e.e.e.e.J.T.Q.R.L.b.2.E T ! / l q 5 5 5 5 4 8 a f h h j j h j h j h j j h j j c h j c h j ",
"% % % * , f j j j h j j j j j h M 1.V.@. .@.7.x.L.Q.T.T.b.5.( ( / Q w 0 2 2 2 < - d j j j h j j j h j j j h j j h j j j h j j h ",
"% % % ; : h j j j j h j h j j j j V N.k.3.6.z.J.Q.!.T.n.j.5.o. .( p 0 3 < < @ d j j h j j j j h j j h j j j j j j j j h j j j j ",
"% % % ; , f j j j j j j h j j h j V Z.Q.E.E.~.~.'.~.T.n.d.4.o. .W r 3 < X - d j j j j h h j j j j j j j j h h j j j j c c c c c ",
"% % % ; , , j h h j h j j j j j j B Z.{.`.'.'.'.~.!.T.z.6.5.o.W e < X X - d j j j j j h j j j h h j h j j j j j h j j c c C Z Z ",
"% % % ; , d j j j j j j j j j j h B B.~.`.`.).Q.T.T.z.5.| / l 5 o X $ > j j j j j j j j j j h j j j j j j h h j j j j C Z F H H ",
"% % % ; , f j j j h j h j h j h h M ,.V.l.w.e.J.j.#.| W r 5 4 @ - - d j j j d j j j j j j h j j h j h j j j j j j j c Z F J P P ",
"% % % * , f j j h j j j j h j j j c n ` W l T T i 4 1 O # $ - : d h j j j d j j d j j j j j j j j h j j h j h h j j c Z H I I I ",
"% % % * : f j j j j j j h h h h j j v s s 9 8 - + + . % = , c h j h h h j j j j j j j j j j j j j j j h j j j j j j c Z H I I I ",
"% % % ; , h j j h j j j h j j j j j j h d , ; & % % % ; , h j j j j j j h j h j j j j j j j j j j j j j j j j j j j c Z H P I I ",
"% % % ; , d j j j j j h j j j j j j h , ; ; & & % % % ; , h j j h j j h j j j j j j j j h j j j j j j j j j j j j j c Z H P I I ",
"= = ; , d j c c j C j j j j j j j c j d , ; = & & % = : , j j j c c c c c c c c j C j j j j j j j j C j j j C j j c C Z J P I I ",
"d d j j j C Z Z A Z C C C j j c c Z Z c j h d , : ; ; d j C Z F Z Z Z Z Z Z Z Z Z Z Z C j j j C Z Z Z Z Z Z Z Z Z Z Z F J I I i.",
"C Z Z Z F F H F H F F Z C c j C Z F F F Z Z Z j h , , j C F F F H F H H F H H H J F F Z C C j C Z F F F J F J F H H J P P I I I ",
"L L J J P I I P I P P F C j j Z F J P P P J H F C h j Z F P P P I P I I P P P P I I P F Z j j Z F J P I I I P P P P P I I I I I ",
"I I I I i.I I I I I P H Z c c Z F I I I I I P F Z c j Z H P i.I I I i.I I I I I I I P F Z j C Z J I I I I I I I I I I I I I t.I ",
"Y I I I I I I I I I P H Z c c Z F I I i.I I I F Z c c Z F P I I I I I I I I t.I I I P J Z j j Z F I I I I I I I P i.I I i.I I I "
};
