/* XPM */
static char *doors_leaf_closed1666157796[] = {
/* columns rows colors chars-per-pixel */
"64 64 108 2 ",
"   c None",
".  c #111213",
"X  c #151313",
"o  c #181818",
"O  c #1A1C1C",
"+  c #1B1C1C",
"@  c #1C1D1E",
"#  c #211417",
"$  c #251617",
"%  c #261814",
"&  c #291A17",
"*  c #2C1B16",
"=  c #2E1C16",
"-  c #231D1D",
";  c #2F1F20",
":  c #3E1B21",
">  c #202020",
",  c #232222",
"<  c #252424",
"1  c #272525",
"2  c #2A2727",
"3  c #232B2B",
"4  c #2E2928",
"5  c #322323",
"6  c #3A2622",
"7  c #312C2B",
"8  c #362F2E",
"9  c #3C3332",
"0  c #3C3733",
"q  c #3E3534",
"w  c #3D3834",
"e  c #4A281F",
"r  c #592C1E",
"t  c #4C1D27",
"y  c #452327",
"u  c #552226",
"i  c #51202A",
"p  c #5A2629",
"a  c #5E3022",
"s  c #413936",
"d  c #463A39",
"f  c #453E39",
"g  c #493C3A",
"h  c #682F24",
"j  c #63232F",
"k  c #6A272E",
"l  c #6E292E",
"z  c #702B2E",
"x  c #742F2C",
"c  c #772F2D",
"v  c #6F3423",
"b  c #703523",
"n  c #733523",
"m  c #783826",
"M  c #7F352B",
"N  c #51423E",
"B  c #2E4342",
"V  c #384F4D",
"C  c #484541",
"Z  c #564542",
"A  c #504943",
"S  c #5A4844",
"D  c #5B4944",
"F  c #5D4C46",
"G  c #4F5351",
"H  c #565855",
"J  c #624E48",
"K  c #64514B",
"L  c #6E5550",
"P  c #6A5D53",
"I  c #705751",
"U  c #746357",
"Y  c #467470",
"T  c #627B77",
"R  c #777470",
"E  c #84382B",
"W  c #863A2B",
"Q  c #893B2A",
"!  c #8B3C2B",
"~  c #8F3F29",
"^  c #924129",
"/  c #934229",
"(  c #94422A",
")  c #95422A",
"_  c #95432A",
"`  c #8B7566",
"'  c #8E7B6C",
"]  c #977D6E",
"[  c #9A8677",
"{  c #AD907D",
"}  c #4F8C87",
"|  c #5DACA6",
" . c #60AFA9",
".. c #69BDB6",
"X. c #7BB6B0",
"o. c #70D4CC",
"O. c #AB9B8A",
"+. c #B69B87",
"@. c #AD9E90",
"#. c #B3AEA8",
"$. c #C8B09A",
"%. c #D0B9A3",
"&. c #B4C2BB",
"*. c #B6C6BE",
"=. c #DDC8B1",
"-. c #8CD9D1",
";. c #BBD0C8",
":. c #D1CCC4",
/* pixels */
"        O s ` { { ` 9 C O.=.=.=.=.O.A O O , , , > > > > - , , , , > , @ , > , , , ; @ O O A O.=.=.O.C w ` { { { { ` s O         ",
"        0 F ' { +.[ P P [ O.O.O.O.] A 7 8 7 2 < 7 8 8 8 8 7 < < 7 8 8 8 8 7 < < 7 8 8 8 8 A ' @.@.' s s ' +.+.+.{ ' F w         ",
"      w U ' [ +.$.$.@.[ P C C A A A F J K N 7 7 N K J J K N 7 7 N K J J K N 7 7 N J J J F F A A A s 1 C { %.%.$.+.[ ' U w       ",
"    w F ' { +.+.O.O.@.' A 7 7 7 7 s J I L D 7 7 D I I L I D 7 7 D L I I I D 7 7 D I I I L D 7 > 2 7 7 A ' O.O.O.+.+.+.` s @     ",
"O 0 U ] [ +.$.O.P C C A F J J J J F Z Z Z g 4 4 g Z Z Z Z g 2 4 g Z Z Z Z g 4 4 g Z Z Z Z d 2 4 Z F K F A C C P O.$.+.` s < @ O ",
"s A U ] { +.O.' A 4 4 q Z K L I I J g 9 q 8 < < 8 q s 0 9 8 1 2 8 9 s 0 q 8 < 2 8 0 s 9 q 9 8 d K L L J s 4 4 A ' { ] U A s s s ",
"` U N K O.@.U A D J J Z s q N Z Z g 8 2 2 2 < < 2 2 2 2 2 2 , 1 2 2 2 2 2 2 < < 2 2 2 2 2 9 Z J D Z Z Z F J J F A C f A U ` ` ` ",
"{ ] K P [ ' f 8 D I I D 7 < 8 q 0 8 , + + @ O O @ O + + + + + + + + + + + + O @ @ @ o @ O 4 N F g 9 9 g J I I F 8 , O f ] +.{ { ",
"{ { O.[ P f q s N Z Z g 4 , 2 2 4 < o . X X X . . . . . X X X X . . . . X X X . . . . . X O 4 8 7 2 2 8 g Z Z N s 7 , C O.$.O.{ ",
"+.+.@.' s , 9 g g d s 8 < O @ o O - = & X X % = = = = % X X # $ * * = % X X % = = = = & X o ; 5 - + + , 8 9 0 0 0 8 , N ' O.+.+.",
"%.O.U w < < q g g s 7 < o X . . . % r r % % r m n n n r % # : p h n n r % % r b n n b r % & a a & . . o 1 2 2 2 2 1 ; 2 s U O.%.",
"=.O.C , 4 q q q q 8 , o . X % = * e m n = * v / ) ) ) n = # t z Q ) ) b = = b ) ) ) ! h & * n m e * * * - + > 2 7 8 4 2 > s ' @.",
"=.O.C 2 N Z 8 2 2 < o . . & r n n m ^ v = * v / ^ / / n = # t z Q ) ) b = * n ^ ^ ! c u $ = v ^ m v n r & o O 7 Z K K N 4 2 N C ",
"O.' C 8 F J d 4 < - * % X = n ^ ! ! ^ v * = v ^ ^ ^ ^ v = # t l E ~ Q h & * v ^ ^ E l t # = v ) ) ) ) n = . + 7 Z K L F 9 < > > ",
"A C s s N D J N 7 5 a r % = n ! c c ! v = * v ^ ^ ^ ^ v = # t l W Q c u # = b ) ^ E z t # = b ^ ^ ) ) n = . @ < 7 q N N d 8 < > ",
"o 2 q g d N F N 2 6 m n = = v W l l W v = * v ^ ^ ^ ^ v = $ u x Q Q c u $ = b ^ ^ E z t # = b ~ ! W ^ v = . o O > 2 q g g 0 2 > ",
", < q g g d 0 4 o = b m * * n W l l W v = * v ^ ^ ^ ^ v * % h ! ~ ~ ~ h & * n ) ^ E z t # * b W c c Q v = . . o + 2 9 g g 9 2 ; ",
"2 7 s g g q < ; % e m b = = v W l l W v = = v ^ Q Q ~ v * = n ^ ^ ~ Q h & & v ~ Q E z t # * b W l l W v = X % * - 2 8 0 s 8 < @ ",
"q s d g d q 3 5 h m ~ b * = n W l l W v = = v W c z Q b = * n ^ ^ Q c u $ = b ! c k j t # = v W l l W n = % r a 5 , < 4 2 < , > ",
"q q q q q 8 , 6 m ) ~ b * = v W l k M h * = v ! c c Q b = * v ^ ^ E l t # = b E k j j t # * h E k l W v * * n M e 2 , , 4 8 8 8 ",
"2 2 2 2 2 , o = n ) ) b = = b W l j k u $ = b ~ Q Q ~ v * * b / ^ E l t # = b E z j j t # $ u k j l Q n * * n W j y ; 7 A K K J ",
"8 8 8 7 < - = y m ) ) b = = b W l j j t o = n ~ Q Q ~ v * * b / ^ E l t # = b Q k j j t # # t j k x m h & & h W c p 5 7 S I L L ",
"J K K N 7 5 a m ! ~ ~ b & = b W l j j t # = n W c c Q b = * b ~ ^ E l t # = b Q z j j t # # t l M M x u $ $ u c E v 6 4 d Z Z Z ",
"L L K N 4 5 a W ~ ) ~ b * * b ! c k j t # * n W l l Q b = * b / ^ E l t # * b ! c k j t # # t z ! W l i # # t l Q m 6 2 9 g d d ",
"N N 0 7 , - 5 r E ^ ) b = = b ~ ! M l t # = b W l l W b = * b / ^ E l t # = b ~ Q M k t # # t z Q Q z t # # t k Q m 6 2 q g g d ",
"g s 2 3 B B 3 5 a m b a & & a m E M l t # = b W l l W b = & h ! ~ E l t # = b ~ Q M c u $ # : p v b p : # $ u c E v 6 2 q g g g ",
"g 9 2 B } } B - ; 6 6 = - - ; e j k k t # = v W l l W b * $ u c Q E z t # = b Q c c E h * X - 5 6 6 5 - X * h E c p 5 2 q g g g ",
"s 8 , V  ...T G V V G H V B 3 2 p k k t # = b W l k M h * # t l E Q c u $ = b Q c z m a * X O 3 B B 3 + X * h m c p 5 < 8 q q q ",
"2 , - V | -.;.&.X.X.;.;.X.} B 6 h M l t # = n W l j k u % o t z E ~ ! h & * b ~ Q n e 5 - o @ B } } B o o - 5 e m v 6 , < 2 2 2 ",
"8 2 , V | -.;.&.X.X.#.;.X.} B 6 m Q z t # = v W l j j t # # t z E ~ ! h & * v ) ) m 6 3 B V V Y ....Y V V B 3 6 v v 6 < 7 8 8 8 ",
"K N 4 V  ...T G V V H H B B 3 6 m Q l t # = n W z j j t # # t z Q Q c u $ = v ^ ) b 6 B }  . ...o.o... . .} B 5 p p 5 4 Z K K J ",
"I D 7 B } } B o @ o o o O O O 6 n Q z t # = v W z j j i # # t z E Q c u # = b ^ ~ h 6 V  .o... .| |  ...o. .V 1 i i 5 8 S I L L ",
"Z g 2 3 B B 3 O X . . . . . . = n Q z t o = v W z j j t # # t z W ^ ! v $ = v Q c p ; V  ...Y V V V V Y .. .V ; i i 5 2 g Z Z Z ",
"g s 7 2 , > O - * = & # X X % e m Q z t $ = n W l j j t # # t l E ^ ^ b = & h E l i ; V X.X.V o o o X V X.X.V ; i i 5 2 s g g d ",
"g g s 8 < + X & r h p : # % r m ! Q z t # * v W l j j t # # t k E ^ ^ b = $ i l k i 1 H *.*.G o o o o G *.*.H 1 i i 6 2 9 g g g ",
"s 9 0 8 2 - & e m ! z t # = n / ) E l t # = n ! c k j t # $ u m Q ^ ^ v = # t j j i - C @.#.R H H H H R #.@.C $ i i 5 1 8 9 s 9 ",
"2 2 2 1 , 5 a m ^ W l t # = v ^ / E k t # = n ~ Q E k t # * h Q ^ ^ ^ v = # t j j t % > C R #.:.:.:.:.#.R C ; # i i 1 ; 1 2 2 2 ",
"8 8 8 7 < 6 n ! ~ W z t # = v ^ Q E c u $ * b ^ ) W k t # = v ^ ^ ^ ^ v = # t j j u : % . C O.:.:.:.:.@.C X o = u t 5 1 7 8 8 8 ",
"J J J N 7 5 p x ! W z t # = n Q c c M h & * b ) ~ Q l t # = v ^ ^ ^ ^ v = # t j j k b r % < N H H H H C , # t u j i 5 7 Z J J J ",
"I I I D 8 ; i l W W z t # = v Q c c Q v * * v ) ~ ! c u $ = v ^ W W ^ b = # t j j l ! b = . X o o o o X X $ t j j i 5 8 S I I I ",
"Z Z Z g 2 5 i z Q E l y # = v ~ Q Q ~ v & = v ^ ~ ~ ! h % = n W c c ! v = # t j j z Q n = . . . . . . . . $ i j j i 5 4 g Z Z Z ",
"g d s 8 1 ; y j E Q l i # = n ^ ! Q ^ v % = v ^ / ) ) n = = v W l l W v = # t j j z Q v = X % = * * * % X $ t j j i 5 2 q g g d ",
"g s 7 1 > - ; y m Q l i # = n ~ c c Q n = * v ^ / ~ ~ b * = n W l l W n = # t j j l W v = % r n n n b a $ # t j j i 5 2 q g g g ",
"9 8 2 3 B B 3 6 a b p : # % a x k l W v = * v ^ ) ~ ~ b * = n W l l W v = o t j k c ! v = * n / ) ) ^ m = # t j j i 5 1 8 q q q ",
"2 < > B } } B - ; 6 ; - + > 5 y p l W n = * v ^ / ~ / b * = b W l l W b = # t l E W ~ v * * n / ) ^ ) n = # t j j i 5 , 1 2 2 2 ",
"8 4 < V | ..T G V V G H V B 3 ; u l Q v = * v ^ ) ~ / b * = b W l l W b = # i z W ^ / v * * v / ^ ^ ^ v = # t k l p 5 < 7 8 8 8 ",
"K N 4 V | -.;.&.X.X.&.*.X.} B ; i l Q v = * v ^ ) / ~ b * = b W l l W v = # i l W / / v * * v ~ ^ ^ ^ v = # t l M v 6 7 Z K J J ",
"I S 7 V | -.;.&.X.X.&.*.X.} B ; i l ! v = & h ! ~ ~ ~ b * = b W l l W v = # t k E ~ / v * * v / ^ ^ ^ v = # t l Q m 6 4 S I L I ",
"N g 2 V  ...T G V V H H V B 3 5 i l ! v = $ u x ! ^ ^ v * * b W l l W v * # t l E ^ / v * * v ^ ^ ^ ^ v = # t z ! m 6 4 d Z Z Z ",
"g 0 1 B } } B o O o o o + + + ; u z ! v = # t l W ^ ! h * = b W l l W v = # t l E ^ / v * * v ^ ^ ^ ^ v = # t l ! m 6 2 0 g g d ",
"g 0 2 3 B B 3 O X . . . . . . $ t z W n = # t l W Q x u % = n W l l W v = # t l E ^ / n * * v ^ ^ ^ ^ v = # t l W m 6 2 s d g g ",
"g s 7 1 > < 6 6 1 * = & X X % : u z Q n = # t l Q ! z t o = n ! c c ! n = $ i M ! / / v = % h ! ~ ~ W v = # t l M v 6 < 7 s 9 s ",
"g g s 8 ; 2 a m m n m r % % r b k z ! n = # t z Q Q z t # = n ^ ! ! ^ n = & h ! ^ / / b * $ u c ! ! c u $ # t k l p 2 < 1 2 2 2 ",
"s 9 s 8 1 ; h b n n m r % % r h p u h r % # : u h h p : # % r n n n n r % % r b n n m r % # t u h h p : # # : i i y ; < 7 8 8 8 ",
"1 2 2 1 ; > & = = = = & X X & * $ $ * & X X % % & = $ # X X % = = = = % X X % = = = = % X X # $ & = $ # X X # $ $ # ; 4 N J J J ",
"8 8 8 7 < O o . . . . . . . . . . . . X X X . . . . . . X X . . . . . . . X X . . . . . . X . . . . . . X X . . . X @ 8 D I L I ",
"J K K N 7 > O O + + O O O O O O o o O O O O O O o o O O O > O o O O O + + O O O O O @ o @ @ + + @ o + + + O @ O + + ; 3 d Z Z Z ",
"L L I J d 7 < 2 s d d d N w s N N 9 , , 8 N f f N N d 9 < < 9 N w N s s N 8 < < 9 f f f f f f 0 < 1 9 f f f f f f 0 2 2 9 g d d ",
"Z Z N F J N 4 9 U ' ` ` ` ` ` ` ` P 4 2 P ` ` ` ` ` ` P 2 4 P ' ` ` ` ` ' P 4 4 P ' ` ` ` ` ' P 4 4 P ' ` ` ` ` ] U 9 < 9 g g d ",
"d d d N J J 0 N U ' ] ] ] ] ' [ [ U 7 8 U [ [ ' ` [ [ U 7 7 U ] [ ] ] ] [ U 7 7 U ] ] ] ] ] ' P 8 8 U ] ] ] ] ] ' U q 7 0 g g g ",
"g g g g N N J F N N F K J K K K K N 4 4 N K K K J K K N 4 4 N K K K K K J N 4 4 N K K K K F Z q 0 g S J J K K F Z s s w d g g g ",
"0 0 9 s 9 N F N 7 > 8 9 9 9 9 9 9 8 1 1 8 9 9 0 9 9 9 8 1 1 8 9 9 9 9 9 9 7 1 1 8 q 9 9 9 8 , 1 8 9 9 9 9 9 9 8 , 1 8 q 0 s 9 9 ",
"2 2 2 2 3 4 8 7 , , 1 2 2 2 2 2 4 1 , > 1 2 2 2 2 2 1 1 , , 1 2 2 2 2 2 2 1 , , < 2 2 2 2 < , , 2 2 2 2 3 2 3 1 , , 2 4 2 1 2 2 ",
", @ , - > > > > , , > > > > > - > > , > > > > > > > > > , , > > > > > > > > , , > > > > > > , , > > > , > @ ; > , , > > > > @ ; "
};
