/* XPM */
static char *Screen_Shot_2022_10_21_at_12_48_40_PM1666342242[] = {
/* columns rows colors chars-per-pixel */
"64 64 215 2 ",
"   c #030202",
".  c #090707",
"X  c #090807",
"o  c #0C0B0A",
"O  c #130D0B",
"+  c #1D0D08",
"@  c #18110E",
"#  c #151413",
"$  c #191615",
"%  c #171817",
"&  c #1B1817",
"*  c #1C1B1B",
"=  c #250E06",
"-  c #291107",
";  c #26140C",
":  c #2C140A",
">  c #351606",
",  c #371806",
"<  c #3A1907",
"1  c #351A0C",
"2  c #3B1C0B",
"3  c #251A16",
"4  c #281912",
"5  c #221D1B",
"6  c #2A1E1A",
"7  c #351E11",
"8  c #3A1F11",
"9  c #3E210F",
"0  c #21201F",
"q  c #2D231D",
"w  c #3C2213",
"e  c #32241D",
"r  c #3C281C",
"t  c #242423",
"y  c #292726",
"u  c #2B2827",
"i  c #282728",
"p  c #2D2A2A",
"a  c #332A24",
"s  c #392A21",
"d  c #332D2C",
"f  c #392E2C",
"g  c #36302F",
"h  c #3A302F",
"j  c #333333",
"k  c #3D3332",
"l  c #393937",
"z  c #3C3B3B",
"x  c #411F0C",
"c  c #44210D",
"v  c #48240E",
"b  c #432513",
"n  c #492612",
"m  c #462916",
"M  c #4C2A15",
"N  c #412718",
"B  c #452C1C",
"V  c #4C2D1A",
"C  c #532C14",
"Z  c #5A2E16",
"A  c #522F18",
"S  c #4E311D",
"D  c #5B3017",
"F  c #53321C",
"G  c #5B351C",
"H  c #5E381F",
"J  c #602E16",
"K  c #62341B",
"L  c #6B361E",
"P  c #61391F",
"I  c #71341F",
"U  c #432E21",
"Y  c #482F20",
"T  c #4B3323",
"R  c #46342A",
"E  c #483428",
"W  c #49362A",
"Q  c #543622",
"!  c #5A3721",
"~  c #563824",
"^  c #5C3A23",
"/  c #543B2B",
"(  c #5C3E2B",
")  c #413635",
"_  c #443837",
"`  c #4B3930",
"'  c #473B39",
"]  c #4A3C3B",
"[  c #543E32",
"{  c #583F33",
"}  c #633D24",
"|  c #6B3C23",
" . c #603F29",
".. c #753B24",
"X. c #793F27",
"o. c #5E402D",
"O. c #44403E",
"+. c #4F403E",
"@. c #5C4334",
"#. c #51413F",
"$. c #59443C",
"%. c #664027",
"&. c #6A4127",
"*. c #64422B",
"=. c #6B442B",
"-. c #6E482E",
";. c #744127",
":. c #73452B",
">. c #7C442C",
",. c #73492E",
"<. c #7E492F",
"1. c #634633",
"2. c #694731",
"3. c #6E4B33",
"4. c #664939",
"5. c #6C4C3B",
"6. c #744D33",
"7. c #7B4D32",
"8. c #714E3C",
"9. c #765036",
"0. c #7C5136",
"q. c #75523B",
"w. c #7C543A",
"e. c #7F583E",
"r. c #554441",
"t. c #594643",
"y. c #5C4945",
"u. c #624C47",
"i. c #634E4A",
"p. c #66504B",
"a. c #6A534D",
"s. c #745343",
"d. c #7C5744",
"f. c #6E5650",
"g. c #705751",
"h. c #745A54",
"j. c #843B2C",
"k. c #883E2E",
"l. c #81462E",
"z. c #834C33",
"x. c #8A4E36",
"c. c #8E4F39",
"v. c #924B39",
"b. c #835136",
"n. c #895037",
"m. c #83553A",
"M. c #8C543A",
"N. c #81593E",
"B. c #8B593D",
"V. c #93553D",
"C. c #99533F",
"Z. c #93593F",
"A. c #845C42",
"S. c #8B5D42",
"D. c #835A4B",
"F. c #885E4E",
"G. c #9A5640",
"H. c #945D42",
"J. c #9B5B43",
"K. c #A45B46",
"L. c #A65C49",
"P. c #8A6146",
"I. c #8C644A",
"U. c #966145",
"Y. c #9B6246",
"T. c #9C6649",
"R. c #93684D",
"E. c #9F684A",
"W. c #996A56",
"Q. c #A4634B",
"!. c #AB634D",
"~. c #A56B4D",
"^. c #A86C4E",
"/. c #B1654F",
"(. c #AD6750",
"). c #A46B52",
"_. c #AD6B52",
"`. c #B36D55",
"'. c #BA6B56",
"]. c #BA6F58",
"[. c #AD7253",
"{. c #A4745D",
"}. c #B37456",
"|. c #B87857",
" X c #B6725A",
".X c #B9735B",
"XX c #B6795B",
"oX c #BD7C5B",
"OX c #BA7C61",
"+X c #C2755D",
"@X c #C17E5D",
"#X c #C87760",
"$X c #C47D62",
"%X c #CC7C64",
"&X c #D17E67",
"*X c #D47F68",
"=X c #BD8265",
"-X c #C5815F",
";X c #C58163",
":X c #CA8662",
">X c #CD8864",
",X c #CB8469",
"<X c #D28C66",
"1X c #D3846B",
"2X c #DA856D",
"3X c #D58E69",
"4X c #D69069",
"5X c #D9916C",
"6X c #DE8770",
"7X c #DE8870",
"8X c #DD9573",
"9X c #E28C73",
"0X c #E29476",
"qX c #E29976",
"wX c #E8987A",
/* pixels */
"t t t t t t 0 t t t t p h ) ) g p t t t t t t t 0 t t t t t t p j ) ' ] ] ' ' ] ] ' ) g u t t d h ) ) g p t t 0 t t t 0 t t t t ",
"t t t t t t t t t 0 t u h k ) k d y t t t t t t t t 0 t t 0 0 i d k ) ' ] ' ] ] ' ' ) f u i t d h ) ) k p t t t 0 t t t t t t t ",
"0 t t 0 t t t t t t u d k _ _ k d p t t t t t t t t 0 0 0 R @.@.1.4.4.$.' k ' ] ] ' ) j p u p p k ) ) ) g i t t t 0 t i i y i i ",
"t t t t i u u i i u d g ) _ _ ) g d p u y y y y i y R [ @.w.A.9.0.z.B.A.5.@.) ' ' ' ' k g p d h ) ] _ k h p i p p p p d h k k ) ",
"t t t t u d d k g g g k ) ] _ _ k g f g g d d R [ @.e.N.0.6.&.-.0.7.0.B.S.m.1.[ ) ' ' ) k g g k ) ] _ ) k g g g g g ) _ ] +.#.r.",
"t t t y d k ) ) _ ) _ _ _ _ ] _ ' ) ) ) l j o.3.0.S.P.w.,.=.6.N.N.e.b.b.z.n.B.A.@.k ' ) ' ) ) ' ] _ ] _ _ _ k ) ) ) ' r.t.u.i.i.",
"t t i d h k ' ] _ ] _ ] ' ' ] _ ] ' ' ' ) o.3.9.e.R.R.e.,.,.0.w.w.m.m.0.7.z.z.m.7.[ ) ' ' ' ' ' _ ] ] _ ] _ ] ' ) ] ] t.p.h.f.g.",
"i u p d k _ ] ] ] ] ] ] ] ' ' ] ] ] O.k R 5.9.9.A.A.R.I.w.0.6.,.b.B.0.<.,.=.,.,.=.=./ ) ] ] ] ] ] _ _ ] ] ] ] _ ] ] r.u.a.h.h.h.",
"d h k k ) ' ] ' ] ] ] ] ' ' ] ' r.+.g ` 5.q.9.e.w.9.N.P.P.e.,.,.m.m.z.:.=.=.-.&.&.&.%.W ) O.` ] ' ' ' ' ] ] ] ' ] ] r.y.a.h.h.h.",
") k ) ' ' ' ] ' ' ' ' ' ' ' ' ' ' k R *.3.3.e.I.e.%.,.w.N.e.6.0.m.m.:.=.=.=.-.=.H C A F W ) ] ' ' ' ' ' _ ] ] ' ] ] r.y.a.h.h.h.",
"' ' ' ' ' ' ' ' ' ' ' ] ' ' ' ' l W o.=.-.6.e.R.A.%.P &.A.N.w.A.N.0.=.%.*.-.,.=.K A A F o.W R O.' ' ' ' ' ' ' ' _ ] #.y.g.h.h.h.",
"] ] ] ] ] ' ' ' ' ' ' ' ' ' ' _ R o.} P -.w.w.A.P.6.} %.P.A.e.P.P.=.o.=.2.-.P H H o.*.%.%.P W k ' ' ' ] ' ' ] _ ] ] #.y.a.h.h.h.",
"] ] ] ] ] ] ' ' ' ' ' ' ' ' ' k S o.^ %.9.N.I.e.e.6.} -.e.e.e.I.P.=.*.-.-.o.F F H %.=.%.P H F W _ ' ' ' ] _ ] ] ] ] r.y.a.h.h.h.",
"] _ ] ] ] ' ' ' ' ' ' ' ] ' ) ) o.o.o.=.0.P.P.e.9.&.P &.6.6.w.I.I.9.9.-.=.H %.%.%.*.=.2.o.H H o.k ' ' ' _ ] _ ] ] ] #.y.a.h.h.h.",
"_ ) ) _ ' ' ' ' ' ' ' ' ' ) R ~ H G H &.6.0.-.%.-.6.} } } %.e.P.P.w.9.9.-.=.6.6.9.w.9.-.} H D F R ' ' ] _ ] _ ] _ ] r.y.g.h.h.h.",
"g k g ) ) ' ' ' ] ' ' ' ) R ~ V A } -.6.9.9.-.F S %.%.G F %.e.I.e.e.e.w.-.=.2.2.*.H F V D o.o.%./ k ' ' ] _ ] ] ] ] #.i.a.h.h.h.",
"d p d f ) _ ] _ ] _ ] _ R ~ V F } 0.w.3.2.5.5.=.Q F ^ G H 6.I.e.e.e.q.o.F V S F V r w w 9 r D o.*.) ) ' ' ' ] ' ' ] r.y.a.h.h.h.",
"t i p p h k ' ] ] ] ] ) T Q F *.6.6.*.V N B o.3.6.o.A F %.e.e.6.q.9.o.S S V ~ F F S B S r w w r Q ~ ) ' ' ' ' ' ] ] r.y.a.h.h.h.",
"t i p p k ) _ ] ] ] #.] U ^ =.-.^ V N m B B T 3.e.9.H ^ 6.6.} ! F ~ o.S S S ^ o.o.V F F F S w : N U ) ' ' ' ' ' ' ] r.y.f.h.h.h.",
"p p d h k ' ] #.r.r.t.#.T | 6.( V w r Q @.o./ 5.9.6.*.%.=.H M n w F F F S ~ *.*.F 9 w F o.o.S w 1 m U ) ' ' ] ' ' ] r.y.a.h.h.h.",
"g g k ) ) _ ] r.t.i.p.y.{  ...Q 4 ; r 1.8.1.o.4.o.^ ^ %.} A A v m F F F P -.6.%.V w b F H o.o.B : w U ) ' ' ' ' ' ] r.y.a.h.h.h.",
") ) ) ) _ ' ] r.i.p.f.i.( | Q 7 = q S @.2.Q Q ^ S V F o.%.H H G F H } =.7.0.w.%.H F F F o.*.*.S : 1 r ) ' ' ' ' ' ' r.y.a.h.h.h.",
") ) ) _ _ ] ] r.y.i.i.[ |  .m - = r S F F M M M v m G ,.9.6.9.6.7.7.0.U.U.P.A.9.=.} o.H F *.o.B : 1 U ) ' ' ' ' ' ] #.y.a.a.h.h.",
"g k ) ) ) ' ] ] #.t.r.{ | Z 8 = + w w n S S A M A H -.U.E.Y.E.~.^.~.~.=X-X[.T.e.-.} } ~ F o.S w : 2 T ' ' ' ' ' ' ] ] r.i.i.a.a.",
"p d g h ) ) ] ] ] ) ) W Q b 1 = = 1 w V H *.-.-.,.0.Y.|.-X-X-X-X-X>X<X-X-X-X[.U.:.H H S H o.F M > 2 T ) ' ' ' ] ' ] ] #.r.r.y.y.",
"t t p p h ) ) ) h d i r x x 2 - = 1 S %.0.P.U.Y.Y.~.-X-X<X-X-X<X4X4X4X<X<X-X-XE.0.%.F S F F o.A c N s ) ' ' ' ' ' ' ] +.+.] #.] ",
"t t t p d ) ) ) d d t 4 > c c : = 2 } m.T.[.XX-X-X-X-X-X<X<X-X<X4X4X4X4X4X-X-XE.B.=.H S S F ~ S m m U ) ' ' ' ' ' ] ] ] ] +.#.] ",
"t t t i p h d d p d y 6 7 N b : = c =.S.~.-X-X-X-X-X-X-X-X-X<X<X4X4X4X4X<X<X-X|.U.9.o.H ~ S S F F m s ) ' ' ' ' ' ] ] ] r.r.y.y.",
"t t t t t p d d f d h i r 8 N N 1 w 6.T.[.@X;X-X-X<X-X<X-X<X4X4X5X5X4X4X4X<X-X-X^.N.-.%.^ Q F } ,.T ) ' ' ] ' ' ' ] ] r.y.i.p.i.",
"t t t t 0 t i p d ) ) ) h e B ( B b ,.~.}.-X>X>X<X<X4X4X4X4X5X8XqX8X8X5X4X4X>X-X|.U.:.o.^ ! | v.J.4.) ' ' ' ' ' ] ] #.y.i.a.h.h.",
"0 t 0 t t t i d ) ) ' ] ) e U / B B ,.^.oX<X8XqX8X8X5X8X8X8XqXqX8X8X<X>X>X>X-X-X;X|.H.=.H } v./.!.4.' ' ' ' _ ] _ ] #.y.i.f.h.h.",
"t t t t p p d d ) ) ] ] ] q U W f B 0.^.-X5XwXwXqXqXqXqXqX8X5X-X-X[.Q.Q.^.|.-X-X,X:X}.m.} >.C.+XD.) ' ' ' ' ] ] _ ] +.r.y.i.p.i.",
"t t 0 t u h f ) ) ' ] ' ' k U 4.) ) 8._.OX3X8X8X0X0X0X8X3X;X_.B.:.| ;.b.Z.Y._.@X>X<X;XU.6.z.G.`.F.' ' ' ' ' ' ' ' ' ] ] r.t.y.t.",
"t 0 i i d k ) ' ' ' ] ' ' ' ' / ` ) 4.S.E.}.$X,X1X1X,X;X`.Z.l.L K G P =.b.V.Q..X:X>X,X).m.H.L..XF.' ' ' ] ] ' ] ] ] ] ] ] #.#.] ",
"t t i d h _ ' ] ] ] ] ' ' ' ' ) ) ) / -.=.6.m.H.Q.}.'.!.V.l.>.| G G A ^ 7.z.J.}.;X>X,X}.Z.Q..XOXs.] ] +.#.#.#.#.] #.] #.#.+.#.+.",
"p d d g k _ ] ] ] ' ' ' ' ' ' ] ' ) W } F A m M } M.Q.Y.Z.V.z.&.=.0.=.3.S.J.~.oX%X,X,X`.G._.,XW.] y.y.y.y.y.t.y.y.y.y.y.y.t.t.y.",
"h g k ) ) ' ' ] ] ' ' ' ' ' ' ' ' ' k ~ ^  .U w M | Z.~.!.!.M.;.>.z.m.H.Q._.XX,X1X1X,X}.J. XOXs.y.i.p.f.f.p.p.p.p.p.p.p.p.i.p.p.",
") ) _ _ ' ' ' ' ' ' ' ' ' ' ' ' ] ' ) @.7.9.2.! G =.Z.].+X'.L.V.l.l.M.G.L.`.%X2X1X1X,X{.J.J.{ ' y.a.g.g.g.h.h.f.h.h.h.h.h.g.f.h.",
"] ] ] ' ] ' ' ' ' ' ' ' ' ] ' ' ' ' ) @.m.b.7.;.=.b.Y.$X*X&X+XL.K.G.K.K.!.#X2X6X6X1X,X_.U.5.u _ r.i.p.i.p.i.p.i.p.p.p.h.h.h.h.h.",
"] ] ] ] ] ] ' ' ' ] ' ' ' ' ' ' ' ' ' ) q.J.x.z.M.J.(.%X2X7X*X%X%X+X+X+X#X1X2X6X6X1X$X).J.s.d k ' #.t.t.t.t.t.t.r.t.y.f.h.h.h.h.",
"] ] ] ] ] ] ] _ ] ' ' ' ' ' ' ' ' ' ' ' D.(.~.!.!._..X&X2X9X7X6X2X*X2X2X2X2X6X2X2X1X,X~.E.d.g k ) ) ) ) ) ) ) ) ) ) ] y.p.h.h.h.",
"_ ] _ ] ] _ _ ] ' ' ' ' ' ' ] ' ' ' ' ) D.XX X X X.X+X1X2X9X7X2X2X&X&X*X2X2X2X1X1X,X$XT.J.s.k g d a p p p i p p p p ) ] u.a.h.h.",
"_ z ) _ _ ] ] _ ' ' ' ' ] ' ' ' ` ' ' ) D..X`.`.!.(.+X2X7X9X7X2X#X+X'.+X#X#X%X%X$X,X$XJ.S.s.k h d p t y i t i t y y d ] y.p.h.h.",
"g g h k ) _ ] ] ' ] ' ' ' ' ' ' ' ' ' ) u.).!.!.C.V.+X9XwXwX9X7X#X!.K.K./.'. X X.X;XOXS.m.5.) ) h p p d p p p d p d k ) #.u.p.i.",
"p p d h k _ _ ] ] ] ' ' ' ' ' ' ' ' ' ' ) q.K.Z.c.Z.$X0XwXwX9X2X*X/.L.K.J.!._._.`.OX_.n.0.1.k ) ) h h h g g g g g g k ' #.#.t.t.",
"t t i d g ) _ ] ] ] ' ' ' ' ' ] ' ' ' ' ) 8.H.Z.b.M.`.%X2X2X*X+X/./.`.L.G.!. X`._.(.G.>.7.( 6 h _ ) _ _ _ _ _ _ _ _ ' ] ] ] ] ] ",
"t t t i g k ] ] ] ] ' ' ' ' ' ' ' ' ' ' ) @.A.B.:.:.>.G./.'.G.l.X.c.L.J.M.C.`.`.(.J.7.| m.( ; 6 _ ] ] _ ] ] ' ] ] ' ' ' _ ] ] ] ",
"0 t t p g _ _ ] ] ' ' ] ' ' ' ' ' ' ' ' ' k 2.6.P G D D X.>.J Z J X.z.x.X.X.V.Q.J.0.} K w.1.$ 3 ) ] ] ] ] ] ] ] ] ] ' ' ] ] _ ] ",
"t t t p d ) ) ] ] ] ' ' ' ' ' ] ' ' ' ] ] ) / =.D D D C Z J J J L ..>.>.X...>.M.z.| C D w.2.: @ a _ ] ] O.] ] ] ' ] ' ' ] ' ' ' ",
"t t t i g ) ' ] ] ] ' ' ' ' ' ' ' ' ' ] ] ) U F D K | | L I I I I ..x.G.Z.l.X.>...Z v } 0.*.w 3 y f ) ' ` O.] ' ' ' ' ' ' ' ' ' ",
"t t t i g k _ ] ] ] ' ] ' ' ' ' ' ' ' ) ) f e 8 n D 7.x.j.j.j.j.k.v.~.`.Q.M.:.L A v n =.0.*.B 6 y p p f h k ' O.' ] ] ] ] ] #.r.",
"t t t p g ) ' ] ] ] ' ' ' ] _ ] ' ) f q q y 5 6 7 v L M.V.v.v.v.L./._.^.Z.7.| G v c A 7.6.%.Q q y g p p e a h k ' ] ] #.y.y.y.y.",
"0 t t p f ) ' ] ] ' ] ] ] ' ) ) d 6 3 * t t t i 3 : v :.M.M.n.V.G.J.H.Z.:.| ! A 2 c } 0.:.^ T 3 y d j p p p d d f ) ] t.u.p.a.a.",
"t t t i d ) _ ] ] ' ] ) k k h a t % # * t i j j 0 @ : M } } L L X.z.x.>.K D M 2 2 D 7.7.&.^ Y * i d j p p j p j d y ) [ i.f.h.h.",
"0 t t i f k _ ] ] ) k k j k k p 0 % % 0 i j j j p @ + 2 C Z Z J | ;.:.} C c 2 , v :.n.l.&.%.r & 0 d j p p j i i p y d f $.h.h.h.",
"t t 0 p g ) _ ) h k z z z l j i * % * 0 j j z z d * O : x v C Z D G P D v , , c | b.n.<.-.2.r % t j j i p p i i i i p p f r.u.u.",
"t 0 t i d j j j _ O.O.z z j p t * % t p l z z z j t # + > 2 x x v v v v < < n | m.B.n.<.<.3.r % 0 u u j u u i t t i i i i u u g ",
"t y 0 y d j j z z l l z j j p t % 0 i j z O.z z d y & O + : > , < < < < v A :.m.Z.Z.M.n.B.8.e % o o 0 p i i t t t t y y i p u p ",
"d u p h j l j l z l j j p p j 0 * t p l z z j i % % * # . + : 2 2 c v A } 6.m.H.U.Z.H.U.I.4.3 o     o t i t 0 0 t t y y i i u u ",
"g k O.l l j i j l l j i p p j 0 % i j z z p % X   . # & o O : M F } =.7.b.H.U.E.E.~.).W.4.a #       X % u t t t t t t u i i p u ",
"O.O.' z j j i j j l j i p p j t * p l j i o         o & * # $ T 5.m.B.U.U.Y.T.^.XX=X{.5.q % o         o t t t t u t t t i i u i ",
"O.O.O.z l j i j j j j p j j p t 0 p j 0 .             o * * & y 1.S.T.Q.~.~.^.XX;X{.$.q & O .           % t t t t t t t t t i i ",
"O.O.O.z j j i p j j p i i j j t 0 i * o   . . o o .     o # % 5 s 5.R.~.~.^.XX=X{.1.q % # .             o * t t u t t t t u t t ",
"z z z l l j j i j p j i p j j t 0 * o . o O # % & # .     . # 5 q T P.~.^.}.=X=Xq.q & % o     X           % t u t u t t t t t u "
};
