/* XPM */
static char *dum_dr1666359936[] = {
/* columns rows colors chars-per-pixel */
"64 64 245 2 ",
"   c None",
".  c #010000",
"X  c #0B0200",
"o  c #040A00",
"O  c #130200",
"+  c #1B0200",
"@  c #160C00",
"#  c #1E0A01",
"$  c #1E1001",
"%  c #0D1506",
"&  c #230200",
"*  c #2B0000",
"=  c #240B00",
"-  c #2B0C00",
";  c #340100",
":  c #3C0100",
">  c #3A0A00",
",  c #251604",
"<  c #2B1A08",
"1  c #2C1502",
"2  c #331A03",
"3  c #152E16",
"4  c #1D351B",
"5  c #2D2106",
"6  c #30210A",
"7  c #3C250F",
"8  c #38280C",
"9  c #3A2811",
"0  c #3C3317",
"q  c #25361C",
"w  c #440000",
"e  c #4B0101",
"r  c #480B03",
"t  c #530100",
"y  c #5C0000",
"u  c #540E04",
"i  c #451502",
"p  c #551300",
"a  c #5B1401",
"s  c #581905",
"d  c #630203",
"f  c #6B0000",
"g  c #690B02",
"h  c #740100",
"j  c #7C0100",
"k  c #730D03",
"l  c #7B0C00",
"z  c #671903",
"x  c #751E00",
"c  c #7A1E00",
"v  c #791607",
"b  c #4A3013",
"n  c #493A19",
"m  c #44371A",
"M  c #523518",
"N  c #593A1B",
"B  c #523919",
"V  c #4B290B",
"C  c #6A2803",
"Z  c #7B2200",
"A  c #7A2A01",
"S  c #703015",
"D  c #773925",
"F  c #543E21",
"G  c #2A4525",
"H  c #264224",
"J  c #364A2B",
"K  c #5D401D",
"L  c #52481E",
"P  c #404017",
"I  c #5D4323",
"U  c #56532F",
"Y  c #4F4E2C",
"T  c #654320",
"R  c #694823",
"E  c #694A26",
"W  c #784F29",
"Q  c #764727",
"!  c #7C522A",
"~  c #745A2C",
"^  c #6E592F",
"/  c #7C6338",
"(  c #704E1F",
")  c #617047",
"_  c #840000",
"`  c #8A0200",
"'  c #8B0B00",
"]  c #850D00",
"[  c #9A0C00",
"{  c #960600",
"}  c #851903",
"|  c #981800",
" . c #B70500",
".. c #A61A00",
"X. c #B31100",
"o. c #822400",
"O. c #842A02",
"+. c #8B2402",
"@. c #922601",
"#. c #952A03",
"$. c #9A2C01",
"%. c #9A2603",
"&. c #8B3708",
"*. c #9A3406",
"=. c #963918",
"-. c #872A14",
";. c #A92800",
":. c #B22C00",
">. c #B82800",
",. c #A43502",
"<. c #A53903",
"1. c #AA3904",
"2. c #B93800",
"3. c #933C22",
"4. c #C30300",
"5. c #C91600",
"6. c #C92A00",
"7. c #C83800",
"8. c #D63800",
"9. c #D62B00",
"0. c #EC2B00",
"q. c #F51300",
"w. c #934617",
"e. c #8E441D",
"r. c #AA4304",
"t. c #B84500",
"y. c #A94917",
"u. c #B25710",
"i. c #96532C",
"p. c #A95827",
"a. c #A9562A",
"s. c #856534",
"d. c #9F6834",
"f. c #B76D31",
"g. c #AA6418",
"h. c #C94800",
"j. c #D74700",
"k. c #C85600",
"l. c #D75501",
"z. c #D85A1F",
"x. c #E84900",
"c. c #E55501",
"v. c #FA5800",
"b. c #F54A00",
"n. c #DA6805",
"m. c #CB6E08",
"M. c #EB6B00",
"N. c #E56700",
"B. c #FF6400",
"V. c #FC6C00",
"C. c #F36602",
"Z. c #EA7700",
"A. c #FE7400",
"S. c #FE7B00",
"D. c #F57701",
"F. c #ED6A17",
"G. c #C77533",
"H. c #E46C23",
"J. c #8B7549",
"K. c #A37D41",
"L. c #B17143",
"P. c #CA7E42",
"I. c #6F8254",
"U. c #529363",
"Y. c #6EA472",
"T. c #FF8400",
"R. c #FF8D00",
"E. c #FF8D0C",
"W. c #FF9502",
"Q. c #FF9B01",
"!. c #FF9A0D",
"~. c #FF8C16",
"^. c #FF9714",
"/. c #E29414",
"(. c #FFA708",
"). c #FFB40A",
"_. c #FFAA16",
"`. c #FFB718",
"'. c #FC922D",
"]. c #FFB926",
"[. c #FFAB31",
"{. c #D8932B",
"}. c #FFD81C",
"|. c #FFC715",
" X c #FFC628",
".X c #FFD92B",
"XX c #FFD739",
"oX c #FFC937",
"OX c #FFE72A",
"+X c #FFE639",
"@X c #FFFB37",
"#X c #FFF22E",
"$X c #A68349",
"%X c #B3854A",
"&X c #B69055",
"*X c #9B8250",
"=X c #CC9E5D",
"-X c #C8935C",
";X c #CE8D50",
":X c #FFA944",
">X c #FEB950",
",X c #CCAA6A",
"<X c #D8AB67",
"1X c #D3A065",
"2X c #CEAD72",
"3X c #EAA969",
"4X c #F0B473",
"5X c #D49A5F",
"6X c #FFDC44",
"7X c #FFD053",
"8X c #FFE544",
"9X c #FFEA47",
"0X c #FFF646",
"qX c #FFE658",
"wX c #FFFC58",
"eX c #FFD86A",
"rX c #F2C57B",
"tX c #FFDC79",
"yX c #FFCA66",
"uX c #FFE767",
"iX c #FFFB66",
"pX c #FFFC78",
"aX c #FFE679",
"sX c #70BC88",
"dX c #6BB985",
"fX c #7ECC96",
"gX c #9BC692",
"hX c #B2F1B5",
"jX c #B2D49E",
"kX c #DCD89F",
"lX c #D9C18B",
"zX c #FBCE84",
"xX c #FFDB88",
"cX c #FCD495",
"vX c #FFFE86",
"bX c #FFE497",
"nX c #FFFE98",
"mX c #FFE78A",
"MX c #DEDCA2",
"NX c #E8DCA6",
"BX c #FFFDA7",
"VX c #F4EFB1",
"CX c #FFFDD0",
"ZX c #FFFFEF",
"AX c #93B482",
/* pixels */
"        . 6 $X=X=Xd.5 0 ,XbXbXbXbX,Xn . . . . . . . . . . . . . . . . . . . . . . . . . . n ,XbXbX,X0 , K.=X=X=X=XK.6 .         ",
"      , 5 K $X=X<X&X~ ~ &X,X,X,X,X$Xn $ $ @ X . @ $ $ $ $ @ . X @ $ $ $ $ @ . . @ $ $ $ $ n $X2X2X$X6 6 $X<X<X<X=X$XK 5 ,       ",
"    , 5 s.$X&X<XrXrX2X&X~ 0 0 m n n K T R b @ @ b R T T R b @ @ b R T T R b # @ b R T T T K n n n 6 X 0 =XzXzXrX<X&X$Xs.5 ,     ",
"  , 5 N $X=X<X<X2X,X2X$Xn @ @ @ # 6 T ! ! N @ @ N ! ! ! ! N @ @ N ! ! ! ! N @ @ N ! ! ! ! N @ . X @ @ n $X,X,X,X<X<X<XK.6 . ,   ",
". 5 s.%X&X<XrX,X~ 0 0 n K T T T T K M B M 7 O @ 7 M B M M 8 @ X 7 M B B B 7 @ O 9 M M M M 8 X O b T R T n 0 0 ~ ,XrX<XK.6 . . . ",
"6 n s.%X=X<X,X$Xn O @ < B R W ! ! T 7 , < , . . $ < < 6 < $ X . $ < < < < $ . . $ < < < < , $ 9 T ! ! T 6 O X n $X=X%Xs.m 6 6 6 ",
"K.s.b R ,X,Xs.n N T T B 6 < b b M 7 $ X X X X . X X X X X X X . X X X X X X . X @ X X X X , M T N M M M K T W E L 0 8 n s.K.K.K.",
"=X%XR ~ &X$X8 $ N ! ! N @ . $ < < $ . . . . . . . . . . . . . . . . . . . . . . . . . . . @ b N 9 , , 7 T s.s.R $ . . 8 %X<X=X=X",
"=X=X,X&X~ 9 < < b B M 7 O . . X O . . . . . . . . . . . . . . . = s s C *.&.> . . . . . . . O , O X X , 0 I T b 6 @ . 0 ,XrX<X=X",
"<X<X2X$X6 . , 9 7 8 6 $ . . . . . . X . . . . O O X X . . X z r.N.Z.h.h.8.A.W.k.a + X X . . X O . . . @ 6 9 6 < < $ . 8 $X,X<X<X",
"zX,Xs.6 . . < V 7 6 @ . . . . . . . u u . . p Z Z c *.*.r.k.N.l.:._ _ ..X.>.C.V.C.1.O.p . . p a X . . o @ X X X X . . X 6 s.,XzX",
"bX,X0 . @ < , < < $ . . . . . X X > Z c X X Z 1.,.1.t.:.;.T.V.>.[ ;.M.D.N.l.j.6.x.C.N.*.O X c o.> O & + . . . . @ $ $ O . 6 $X2X",
"bX,X0 X b M , X X . . . . . p c c o.$.x X X Z <.$.1.:.2.N.W.R.h.;.7.h.7.x.l.7.8.9.7.j.h.a + x ,.O.o.O.a . . . @ M R R b X X 8 m ",
",XK.0 $ K T 6 @ . . X . . X c ,.#.$.,.x X X Z 1.@.t.;.l.n.k.T.M.l.2.{ 7.C.j...[ [ ..{ { :.x A <.y.y.1.Z X . . # M R W K < X . . ",
"n 0 6 6 b B T b @ O a u . X x #.v ] $.c X X Z <.<.t.2.D.h.{ l.M.M.>.>.c.x.:...[ ...._ y d ' ,.r.u.y.1.Z X . . . @ < b b 8 $ . . ",
". . < 7 7 b K b X & o.c O X x @.k k #.x X + o.@.| ;.h.(.M.h { 2.N.h.l.v.j.[ { | ..;.j & . : ,.t.1.$.*.x X . . . . X < 7 9 5 X . ",
". . < 7 7 7 , O . X c c O X x @.k k #.x O : l h ' 2.h.M.T...y :.D.l.M.S.1.y [ | | _ f y j } | ,.#.} #.x X . . . . X < 7 7 < X . ",
"X # 6 7 7 < X . X > o.x O X Z #.k k #.x + e h _ :.c.S.l.N.h.h 2.M.j.D.(.w | ..:.e & : _ | ' j y j l @.x X . . X . X , < < $ . . ",
"< 6 9 9 9 < X O a o.$.x X O x #.k k #.x * h ' | 2.D.T.T.2.h _ ;.:.1.D.W.h.2.| ' t ' j f %.1._ f _ } @.c X . u a O . . X X . . . ",
"< < < < < $ . & o.,.,.x X X x #.k g +.k f d : d :.h...t h.1.t j j ;.Z.D.l.;.h.[ ;.>.h.Z.Z.2.` : ; _ @.x X X c +.> . . . @ $ $ , ",
"X X X X X . . X c ,.,.x X X x #.v d c d . w { 7.j.2.,.+ . #.| w y 2.D.l.l.N.t.;.@.,.*.c * . : } ` j | Z X X Z @.d ; X @ b T R T ",
"$ $ $ @ X . X > o.,.,.x X O Z #.k g f . t :.l.t.O.*.<.1.] & f t | S.Z.k.N.t.: X . ; > O . . . . : j %.x . . g +.v t O @ N ! W ! ",
"T R R b @ + S *.$.,.,.x X O Z #.k e e j ;.;.k X . . : ,.n.} & j h.n.;.+.] f & O e +.k t + e O . . . t g . . e } @.x & @ 7 M M M ",
"W W R b O + ( p.y.,.,.x X X Z *.} ; _ 2.' - . . t a & k.k.k.h %.;.f : . t w : * k *.f . . * h w . . . e . . : k %.o.& X , 7 7 6 ",
"B b < @ . . , S y.p.1.c X X Z 1.#.f ..:.t . . ; r.r.g t.%.' } | h : . . w ; w } r.%.w . . & j ' y . . O . . : k #.o.& X < 9 7 7 ",
"7 < . o 3 3 o + C d.w.u X . a O.+.h ..j . . . t t.C g +.t * y ` j f w & w y | m.k.;.f & O ; t ' ] . . . X . e } @.x # X < 8 7 7 ",
"7 , . 3 U.U.3 . O < T I . . + r d | { . . . * e f & ; * + & d 2.2.>.:.:.>.h.~.R.V.j...j j j e } f . . + + X g +.] t O X , V 7 9 ",
"< , . G sXfXI.Y G G Y J.) q o + f ;.t . . . . . * e t & e y 7.W.(.W.W.W.W.oX`.).W.C.2.{ _ e ; f X . . w * X a o.v t O X $ < < < ",
"X . . H dXhXMXMXgXgXkXMXjXAXJ - l e . . . . . X t <.k.2.t.N.W. X X}.OXOXiX0X#X.X|.W.h.j y O e h t . . + X . O > o.x & . X X X X ",
"$ O . H dXhXVXkXgXgXMXMXgXY.) b w . . . . . X } k.^._.!.!.`..X9X+X@X@XiXwX0X#XOX}.).C.{ e & & d f X . O q 3 o & x x & . @ $ $ $ ",
"R b @ H sXfXI.U G G U U G 4 0 / V . . . . . * h.W.oXXXoX6XOX8X9XOXOX0XwX#X@X@X#XOX|.T.>.f ; & e e + . 8 Y.U.3 O t t O @ b E T T ",
"! B @ 3 U.U.q . . . . . . . . b d.b . . . . i M._.6XqXqX0X9X9X+XOX+XwX@X@X@X@X@XOX}.(.c.| y t : * y : G fXsXH X w w O # N ! W ~ ",
"N 9 X o 3 3 % . . . . . . . . O &.a.m . a X s T.].6XuXiX9X0XwX0X0XiXwX0XwX@X@X@XOX}.|.S.;.j d : f 9.:.P fXsXH X w w O O 9 M M M ",
"9 6 @ . . . . X + + + # X X + s &.=.b E &.> C ~.oXqXvXvXiXpXiXwXpXiXiXiXiXwXwX@X#X}.}.).C._ y _ x.S.l.L gXgXH X w w O X < 7 7 9 ",
"7 7 6 $ X . . X s z a > @ < S w.y.=.O S i.N &._.XXpXBXBXnXnXvXpXiXiXiX0X.X).W.).`.}.OXOX).:.f >.D.(.m.^ MXMXU O w w O X < b 7 9 ",
"< < < $ X . X > O.$.v w X = *.f.G.p.s p g.s.;X[.qXpXBXBXnXnXvXpXwX6X~.t...X.x.A.R.)..XOXOXA.{ 8.v.W.{.*XlX2X0 X e e + X $ < < < ",
"X X X . . O s +.<.*.v w . + O.y.u.f.L.i.f.( 5XyX>XeXnXBXnXvXnXqX'.z.[ _ j ` >.x.A.!.}.OX+XW.8.S.A._.tXlX*X0 . . w w O . . X X X ",
"$ $ $ @ . & A ,.<.*.-.r . + O.y.1.3.3.i.J.J.;X3X3X5XzXxXbXBXeX:XF.h.h.d y . l 7.8.T.`.+X9X`.j.R. X7XxX2X0 . . O e w + . # $ $ $ ",
"T R R b @ O y -.*.=.} r + 1 &.y.=.-.a.i.F ^ 5X3X3X2XNXVXzX4XyX[.[.'.z.1.~.<.n.^.^.].XX8X8X Xb.`.+X{.^ 0 o . & e d w O $ b E E T ",
"W W ! N = X w v ;.=.v e O , e.y.3.a.f.L.J.J.-X3X4XVXZXZXNX4XyXtXyX>X'.z.c.S.E.^._.XX8X+X+X).b.`./.V o . . . e d d e O $ N ! W W ",
"M M B 7 @ O e v *.=.} e X = &.y.a.a.G.L.J.J.1X4XzXCXZXZXCXbXtXaXaX7X'.C.v.B.A.R. X9X9X8X+X!.B.D.e . . . . . r d d w O @ 9 M M M ",
"9 7 6 $ . X > g #.*.v e O < w.y.y.p.f.L.~ J.-X4XyXBXVXCXVXVXtXnXvXqX7X[.[.^.^.].6X9X9X8X8XR.V.k.O O O X . . : d d w + X < 9 7 9 ",
"7 < # . . . + i &.,.v r O - =.y.=.=.y.w.M ^ -X3XbXmXbXbXxXmXmXnXvXvXuXqX9X6XXX6X9X9X0X8X+XT.T.m.o.Z Z u . . w d d w + X 6 9 7 7 ",
"< $ . o 3 3 % & s -.s ; X X C -.-.-.=.y.M / 5X4XzXmXmXmXtXeXaXvXpXpXpXpXuX6X8X6X9X8X8X+X+XA.A.n.1.1.1.Z O . w d d r O X = < < < ",
"X . . 3 U.U.4 . O = O X . X = i z -.w.w.I / %X5X>XtXtXtXyX7XeXiXvXpXuX7X[.oXoX6XXXXX.XXX+XB.v.m.<.,.,.x X . : d d w O . X X X X ",
"$ @ . H sXfXI.Y G G Y U G H % & u -.y.p.E I L.P.3X4XyXyX:XF.qXvXpXvXiX8XS.v.S.^._.]._. X.Xv.c.N.,.,.,.x X . : g k t O . @ $ $ $ ",
"E b X H dXhXNXMXgXgXMXNXgXU.4 + u -.p.i.7 I %XG.;X:X>X:X'.F.wXpXpXiXvXuX^.T.B.V.E.!.!.].].6.8.t.#.,.*.x O . : k +.x & @ b E E T ",
"! N o H dXhXVXMXgXgXMXNXgXU.H & s -.y.&.B / 3.P.P.{.[.'.'.~.[.qX9X6X X:X[.].T.A.W._.!.W.T.{ c.g * $.,.x X . : k @.o.& @ B ! W W ",
"B 7 . H sXfXI.Y H H U U G 4 % 1 u -.=.i.J.- S L.L.z.'.~.G.1.>.M.~.D.[ j F.[.S.0.B.(.W.A.6.d A.Z . a <.c X . : k %.o.& @ 8 M M M ",
"7 , . 3 U.U.3 . . . . . . . . # e -.a.;X- = S L.a.a.G.n.a.' e e { _ w _  .x.z.>. .B.S.8.t & V.+.. & $.A O . : v $.o.& X < 7 V 6 ",
"7 < X o 3 3 o . . . . . . . . X e 3.;Xe.= # D i.y.p.=.t.-.` _ t _ ` ` {  .4.b.F.6.9.8.` . w A.} . . r z O . : v #.o.& X < 7 9 9 ",
"7 6 # . . . = & O X O X . . X * z d.p.O.& , Q 3.*.&.i ; t ' 8.5.4.4. . .0.A.W.R.N.>.` * . ' c.j . . . O . . : v +.c & . $ < < < ",
"9 7 6 $ . O a o.O.c O.p . X p A i.3.*.O.& < N r & O . . . : 7.v.q.q.q.v.^._.W.B.6.;.z X O 7.>._ * . . . . . X y k u O . X X . X ",
"< < < $ X O a c c c O.s X . a i.3.u z s & # X . . . . . . X : x.V.v.B.T.A.S.V.X._ y > O | j.[ h ; . . . . . . . O * O X @ , $ , ",
"X X X . . . X O O O O X . . 2 b O X + O O . . . . . . . . . . y ` _ _ _ 5.x.6.h : . . w n.l.{ y . . . . . . . . . . . O b R R E ",
"$ $ $ @ . . . . . . . . . X 9 X . & O . . . . . . . . . . . . . ; t f {  .>.` X . . . | C.l.| l . . . . . . . . . . . . 2 R W W ",
"T R R b @ . . . . . . . @ n 8 > & O . . . . . . . . . X . . . . . + ; t e f & . . . f x.b.9.2.r.. . . . . . . . . . . . . . = V ",
"W W W T 7 @ . @ < 6 1 1 V , O . . . . . . . . . . + O O . . . . . . . . . . . . . f j.v.0.6.6.m.. . . . . . . . . . . . . . . . ",
"M M M B T b @ < W V = , X . . . . . . . . . . . . + O . . . . . . . . . . . . & ' x.A.v.v.b.A.t.. . . . . . . . . . . . . . . . ",
"7 7 7 b T T 2 2 2 . @ O . . . . . . . . . . . . O . . . . . . . . . . . + e _ 6.v.S.S.A.T.Q.n.> . . . . . . . . . . . . . . . . ",
"7 7 7 7 b B i - X = O . . . . . . . . . . . . . . . . . . . . . . . + } 7.x.B.A.S.T.Q.). Xm.+ . . . . . . . . . . . . . . . . . ",
"< < < < < 8 = O = 1 . . . . . . . . . . . . . . . . . . . . . . . . . #.D.A.T.R.T.Q.|.+Xm.. . . . . . . . . . . . . . . . . . . ",
"X X X X X O . + 1 O . . . . . . . . . . . . . . . . . . . . . . . . . . t.R.R.R.Q.|.#Xu.. . . . . . . . . . . . . . . . . . . . ",
". . . . . . # # X . . . . . . . . . . . . . . . . . . . . . . . . . . . . D.W.W.|.#Xu.. . . . . . . . . . . . . . . . . . . . . "
};
