/* XPM */
static char *floor_21666157604[] = {
/* columns rows colors chars-per-pixel */
"64 64 10 1 ",
"  c #473B39",
". c #4B3D3C",
"X c #413635",
"o c #2F2A2A",
"O c #232323",
"+ c #755B54",
"@ c #383130",
"# c #66504B",
"$ c #5A4844",
"% c #544340",
/* pixels */
"OOOOOOOOOOOo@XX@oOOOOOOOOOOOOOOo@X ..  .. X@oOOo@XX@oOOOOOOOOOOO",
"OOOOOOOOOOOo@XXXoOOOOOOOOOOOOOOo@X ..  .. X@oOOo@XXXoOOOOOOOOOOO",
"OOOOOOOOOOo@XX @@oOOOOOOOOOOOOooXX ..  .. X@ooooXX X@oOOOOOOoooo",
"OOOOooooooo@X  X@oooooooooooooo@X  .    .  X@oo@X  X@oooooo@@XXX",
"OOOOo@@@@@XXX  XX@@@@@@@@@@@@@XXX          XX@@XX  XX@@@@@X .%%$",
"OOOo@X X XX      X X X X X X XX               X       XXXX %$###",
"OOoo@X .                                                  .$#+++",
"ooo@X ......    ................          . ....    ...  .%$#+++",
"@@XXX . . .      . . . . . . .               ..      ..  .%$#+++",
"XXX                                                       .$#+++",
" .                                                        %$#+++",
".....                                                    ..$#+++",
".....                                                     %$#+++",
"                                                         ..$#+++",
"XXX            .......                                    %$#+++",
"@@@XX         ..%$$%%..                                  ..$#+++",
"ooo@X       X .%$##$%..                                   %$#+++",
"OOoo@X ..     .$####$.                                   ..$#+++",
"OoooXX ...%..%%$###$%   ......                            %$#+++",
"ooo@X .%%$$$$$$$$$%.XXX .%$%%..                          ..$#+++",
"@@XXX .%$###+##$% X@oo@ %##$%..                           %$#+++",
"XXXX  .$##++++#$ @oOOOoX$###$.                            .$#+++",
"X X   .%$##+###%XoOOOooX%##$%   ......                    .$##++",
"@@XXX ..%$$$$$% Xooooo@X.%%. XX .%$%%.                   ..%$###",
"oo@@X    XXXXXXX@@@@@@@@XXX@oo@ %##$%.                    ..%%$$",
"OOoo@X X@oooooo@@XXXXXX@@ooOoOoX$###$.                    ......",
"OOOo@XX@ooOOOOoo@X .. X@ooOOOO@X%###%.                    ....%.",
"OOOoo@@@ooooooo@X .... X@ooooooX.%%%%.                    ..%%$$",
"OOOOOooo@@@@@@@XX .... XX@@@@@@@XXX   .                   .%$###",
"OOOOOOoo@XXXXXX          XXXXXX@@oo@X  .                 ..$##++",
"OOOOOOooXX . .      .     . . X@oooo@XX ...%.%... .       .$##++",
"OOOOooo@X ......        ...... X@oooo@X .%$$$$$%..        .%$###",
"OOOOo@@XX . . .          . ... XX@@ooo@X%##+###$%.         .%%$$",
"OOOo@XX                          XX@oooX%#++++##$.        ....%.",
"OOoo@X . .                       XX@oo@X%##++###%%...%.%.%..%.%.",
"ooo@X ...                      XXX@@XXX.%%$$%$$$$$$$$$$$$$$$$$%$",
"@@XXX  .                      XX@@@X.%%%. XXXX %$###+###########",
"XXX                        .. X@oooX%##$ @oOoo@ $#++++++++++++#+",
" .                        .....XoOoX%##$ oOOOOoX%##########+++++",
".....                      %%$% @Oo@.$#% @oooooX %$$$$$$$$$#++++",
".....                     .%$#$.@oO@ %%% X@@@@@@XXXXXXXXXX $#+++",
"                          .$###%XoOoX ..  XXXXX@@ooooooooo@.$#++",
"XXX                    ...%$###%Xooo@X ..   . X@ooOOOOOOOOoX$#++",
"@@@XX                ...%$$$$$% X@o@XX  ...... X@ooooooooo@X%$##",
"oo@@X  . .            .%$##$% XX@@XXX     . .. XX@@@@@@@@@@ .%$$",
"OOoo@X ..            ..$###$ @oo@XX     .        XXXXXXXXX  ....",
"OOOo@X ..             .%###%Xooo@X .              .  .        . ",
"OOOo@X ..             ..%$% Xoo@X ...           ..........      ",
"OOOo@X ..                XXX@@@XX  ..            . . . . .    X ",
"OOOo@X ..          ..  X@oo@@XX                                 ",
"OOOo@X ..         .... XoOoo@X ..                         .....%",
"OOOo@X ..         .%%$% @OOo@X...                         ..%$$$",
"OOOo@X ..         .%$#$.@oOo@X ..                         .%$###",
"OOOo@X ..        ..$###%XoOo@X ..                        ..$##++",
"OOOo@X ..         .%###.@oOo@X ..                         .$#+++",
"OOOo@X            ..%%%X@OOo@X                            .$#+++",
"OOOo@X              XX@ooOOo@X                         X  .$#+++",
"OOOo@X ..       .  X@ooOOOOo@X ..                        ..$#+++",
"ooo@X..%%.%........X@oooOoo@X .%%.%.%.%.%.%.......%.%.%...%$#+++",
"XX .%%$$$$$%....%$%%.XX@@o@X.%$$$$$$$$$$$$$%....%$$$$$$$$$###+++",
"$$$$#######$%..%$###$$%.XXX.%##############$%..%$###########++++",
"##+#+#++++##%..%##+++##$%  %$#++++++++++++##%..%##+++++#++++++++",
"+++++++++++#$.%$#++++++#$..$#++++++++++++++#$.%$#+++++++++++++++",
"+++++++++++#$..$#++++++#$%%$#++++++++++++++#$..$#+++++++++++++++"
};
