/* XPM */
static char *IMG_20221023_WA0003__1_1666531595[] = {
/* columns rows colors chars-per-pixel */
"64 64 247 2 ",
"   c #030403",
".  c #0A0402",
"X  c #01050B",
"o  c #040A0C",
"O  c #0C0C0C",
"+  c #0A0807",
"@  c #130D09",
"#  c #1C130D",
"$  c #18140C",
"%  c #010B13",
"&  c #020A17",
"*  c #0B1314",
"=  c #081418",
"-  c #141311",
";  c #1A1513",
":  c #191B1A",
">  c #08100D",
",  c #221613",
"<  c #231B14",
"1  c #2B1C14",
"2  c #241D1A",
"3  c #2A1D1A",
"4  c #201719",
"5  c #311D13",
"6  c #26170F",
"7  c #1D221D",
"8  c #25221D",
"9  c #2C221C",
"0  c #2A2116",
"q  c #33251C",
"w  c #3B2B1E",
"e  c #37261B",
"r  c #041826",
"t  c #0C1A25",
"y  c #221C22",
"u  c #1D2222",
"i  c #172126",
"p  c #052839",
"a  c #122834",
"s  c #242423",
"d  c #2B2522",
"f  c #2D2925",
"g  c #2D2C2A",
"h  c #232B25",
"j  c #322622",
"k  c #342A24",
"l  c #3B2C23",
"z  c #332C2B",
"x  c #3A2E2A",
"c  c #3C322B",
"v  c #38312A",
"b  c #3C3432",
"n  c #373937",
"m  c #2A3434",
"M  c #452B1D",
"N  c #442E23",
"B  c #443224",
"V  c #4B3424",
"C  c #44332B",
"Z  c #4B362C",
"A  c #4D3A2D",
"S  c #49382A",
"D  c #533C2C",
"F  c #5A3D2C",
"G  c #543825",
"H  c #443A33",
"J  c #4C3C33",
"K  c #443C3A",
"L  c #473936",
"P  c #523E33",
"I  c #583E36",
"U  c #623F2C",
"Y  c #3B423D",
"T  c #5B422F",
"R  c #4C433B",
"E  c #49423A",
"W  c #544234",
"Q  c #5B4333",
"!  c #54433B",
"~  c #5B463B",
"^  c #5B493C",
"/  c #66432B",
"(  c #654B3C",
")  c #654837",
"_  c #67513D",
"`  c #72513B",
"'  c #093147",
"]  c #1B3A46",
"[  c #103247",
"{  c #293945",
"}  c #164256",
"|  c #394243",
" . c #26475A",
".. c #2F4852",
"X. c #034B6C",
"o. c #0B4B6E",
"O. c #044669",
"+. c #164D65",
"@. c #084D73",
"#. c #055275",
"$. c #0A5275",
"%. c #09557C",
"&. c #165778",
"*. c #125071",
"=. c #2F5B70",
"-. c #3A657B",
";. c #4D4443",
":. c #494746",
">. c #5D4B44",
",. c #554946",
"<. c #5A524B",
"1. c #5A5754",
"2. c #634C43",
"3. c #654E48",
"4. c #645244",
"5. c #65534B",
"6. c #6C554A",
"7. c #6B584A",
"8. c #745B4D",
"9. c #775946",
"0. c #685A56",
"q. c #725C53",
"w. c #7B5E53",
"e. c #79614D",
"r. c #6C625A",
"t. c #756253",
"y. c #7A655B",
"u. c #796457",
"i. c #4C5E62",
"p. c #6C6765",
"a. c #776A63",
"s. c #7C766F",
"d. c #4C6E7A",
"f. c #80593C",
"g. c #805E47",
"h. c #82695B",
"j. c #866956",
"k. c #9A7759",
"l. c #8A6A52",
"z. c #A87F5C",
"x. c #866E62",
"c. c #8D7264",
"v. c #88766A",
"b. c #957966",
"n. c #867D74",
"m. c #967E72",
"M. c #A27D65",
"N. c #89837C",
"B. c #948376",
"V. c #9B8276",
"C. c #9A877A",
"Z. c #99856E",
"A. c #A7846B",
"S. c #A48C7D",
"D. c #A88A77",
"F. c #B7957A",
"G. c #B19076",
"H. c #C39B79",
"J. c #0D5A84",
"K. c #135C84",
"L. c #186589",
"P. c #1A6A93",
"I. c #1F7197",
"U. c #246889",
"Y. c #277498",
"T. c #387899",
"R. c #326F8D",
"E. c #297AA4",
"W. c #337EA7",
"Q. c #205C81",
"!. c #4C798E",
"~. c #417DA2",
"^. c #3484AC",
"/. c #3B86AA",
"(. c #3C8BB1",
"). c #2E81A7",
"_. c #538298",
"`. c #4586A8",
"'. c #468DB5",
"]. c #4795B9",
"[. c #5298B9",
"{. c #548FAB",
"}. c #6997AF",
"|. c #68A4BD",
" X c #5EA6BF",
".X c #579CC5",
"XX c #4F9FC4",
"oX c #59A3C8",
"OX c #65A8C9",
"+X c #74AAC5",
"@X c #6AADD2",
"#X c #73B4DA",
"$X c #6FB2D4",
"%X c #7EBDE4",
"&X c #78C2DD",
"*X c #9A8C83",
"=X c #97938D",
"-X c #989894",
";X c #8D8886",
":X c #A48C82",
">X c #AC8F81",
",X c #A59184",
"<X c #AA9689",
"1X c #B69B88",
"2X c #A99B94",
"3X c #B69F93",
"4X c #B9A28C",
"5X c #BBA494",
"6X c #B8A698",
"7X c #ACA094",
"8X c #B7ACA3",
"9X c #B9B1A9",
"0X c #B1AEAB",
"qX c #87ABB9",
"wX c #C19D83",
"eX c #C5AA98",
"rX c #C8B29D",
"tX c #D5B79A",
"yX c #C8A68B",
"uX c #C8B5A6",
"iX c #D6BDA8",
"pX c #C9BDB6",
"aX c #C6AFA1",
"sX c #E2B999",
"dX c #D6C2AA",
"fX c #D6C6B8",
"gX c #CCC2B8",
"hX c #E9CFB6",
"jX c #E7C09F",
"kX c #89B9D4",
"lX c #87CADD",
"zX c #D3CBC4",
"xX c #DBD8D5",
"cX c #D0CBC8",
"vX c #E7D7C7",
"bX c #E4DBD5",
"nX c #E8DBD2",
"mX c #E0CFC5",
"MX c #EAE2DC",
"NX c #EBE9E5",
"BX c #F4ECE4",
"VX c #FCF4EC",
"CX c #F7F1E9",
"ZX c #FEFBF5",
"AX c #FFFFFE",
"SX c #F7F6F4",
"DX c #F1EFF2",
/* pixels */
"AXAXAXAXAXAXAXAXAXAXAXAXAXAXAXAXAXAXAXAXSXAXAXAXAXSXAXAXZXAXZXZXZXMXbXbXSXAXZXZXZXAXZXAXAXAXAXAXAXAXAXAXAXAXAXAXAXAXAXAXAXAXZXAX",
"AXAXAXAXAXAXAXAXAXAXAXAXAXAXAXAXAXAXAXAXAXAXAXZXAXAXAXAXAXZXMXcXpXuXuXpXzXnXbXBXVXZXAXAXAXAXAXAXAXAXAXAXAXAXAXAXAXAXAXAXAXAXAXAX",
"AXAXAXAXAXAXAXAXAXAXAXAXAXAXAXAXAXSXAXAXAXAXAXAXAXAXSXAXZXMX2X8X6XuXfXfXfXfXfXvXnXBXZXAXZXAXAXAXAXAXAXAXAXAXAXAXAXAXAXAXAXAXAXAX",
"AXAXAXAXAXAXAXAXAXAXAXAXAXAXAXAXAXAXSXAXSXAXSXAXDXbXcXcX0X*XB.uXaX5XiXuXdXdXaXpXfXzXVXZXAXAXAXAXAXAXAXAXAXAXAXAXAXAXAXAXAXAXZXAX",
"AXAXAXAXAXAXAXAXAXAXAXAXAXAXAXAXSXAXAXSXAXAXZXNX=X<.p.;X2X2XC.aX4XS.6X4XuXrX6XuX5X8XfXVXAXZXAXAXAXAXAXAXAXAXAXAXAXAXAXAXAXAXAXAX",
"AXAXAXAXAXAXAXAXAXAXAXAXAXAXAXAXAXAXAXAXAXSXAXN.1.1.0.a.m.2X2XB.B.x.a.Z.5X4X6X1X6X8X2XzXZXZXAXAXAXAXAXAXAXAXAXAXAXAXAXAXAXAXAXAX",
"AXAXAXAXAXAXAXAXAXAXAXAXAXAXAXAXAXAXZXAXZXAX-X1.<.,.p.a.p.:X*Xy.r.1.<.r.B.C.6X8XfXiXaXpXbXZXAXAXAXAXAXAXAXAXAXAXAXAXAXAXAXAXAXAX",
"AXAXAXAXAXAXAXAXAXAXAXAXAXAXAXAXAXAXAXAXAX0Xp.,.:.1.,.;.L >.;.L E n n <.a.B.7X6XpXiXzXzXpXbXZXAXAXAXAXAXAXAXAXAXAXAXAXAXAXAXAXAX",
"AXAXAXAXAXAXAXAXAXAXAXAXAXAXAXAXAXSXAXZXDX-X:.,.0.,.b j j j b b m b K 1.0.a.x.n.:X<X3XpXpXuXbXAXAXAXAXAXAXAXAXAXAXAXAXAXAXAXAXAX",
"AXAXAXAXAXAXAXAXAXAXAXAXAXAXAXAXAXAXZXAXCXp.n E ;.{ y 4 y d b L b K 0.;XC.v.v.m.x.V.:X:XpXpXpXbXAXAXAXAXAXAXAXAXAXAXAXAXAXAXAXAX",
"AXAXAXAXAXAXAXAXAXAXAXAXAXAXAXAXSXAXAXZXxXn 8 f z y y y z K ;.;.>.5.v.>X>X:X1Xm.:Xm.*Xm.*XpXfXcXDXZXAXAXAXAXAXAXAXAXAXAXAXAXAXAX",
"AXAXAXAXAXAXAXAXAXAXAXAXAXAXAXAXAXAXAXZXN.7 z v z x z z K ;.;.,.3.q.x.c.m.>XwX>X>X:X*Xm.v.2X8XpXNXSXAXAXAXAXAXAXAXAXAXAXAXAXAXAX",
"AXAXAXAXAXAXAXAXAXAXAXAXAXAXAXAXAXDXAXAXs.z b j z b z L K ;.,.3.6.w.h.j.c.b.m.>X:X>XV.:XC.<X2XuXbXAXAXAXAXAXAXAXAXAXAXAXAXAXAXAX",
"AXAXAXAXAXAXAXAXAXAXAXAXAXAXAXAXAXAXAXAXpXK b j b C b L I ;.3.3.8.h.y.h.c.c.m.:X:X:X>X<XV.m.2X6XxXAXZXAXAXAXAXAXAXAXAXAXAXAXAXAX",
"AXAXAXAXAXAXAXAXAXAXAXAXAXAXAXAXAXAXSXAX;Xm x b ,.;.L I I ,.6.6.q.w.q.a.v.m.,X<X>X<X3X3X3Xm.3X3XcXAXAXAXAXAXAXAXAXAXAXAXAXAXAXAX",
"AXAXAXAXAXAXAXAXAXAXAXAXAXAXAXAXAXAXAXAXN.;.L L q.0.3.,.~ q.x.x.v.a.a.m.*X:X2X3XeX3X5XaXeX<X3X3XcXAXZXAXAXAXAXAXAXAXAXAXAXAXAXAX",
"AXAXAXAXAXAXAXAXAXAXAXAXAXAXAXAXAXAXAXNXs.<.W t.y.7.>.4.q.x.m.1X:XC.m.m.>X3X6XeXeXeXeXeXrX4X6X6XzXZXZXAXAXAXAXAXAXAXAXAXAXAXAXAX",
"AXAXAXAXAXAXAXAXAXAXAXAXAXAXAXAXAXAXZXcX7.t.4.x.y.q.4.7.y.w.w.x.:Xc.h.x.m.>X3X5XaXeXeXuXrX4X6XdXxXZXAXZXAXZXAXAXAXAXAXAXAXAXAXAX",
"AXAXAXAXAXAXAXAXAXAXAXAXAXAXAXAXAXAXAXcXr.t.u.Z.v.t.6.2.>.~ I ) w.3.3.3.y.x.m.:X3XeXeXaXdXuX4XfXMXAXZXAXAXAXAXAXAXAXAXAXAXAXAXAX",
"AXAXAXAXAXAXAXAXAXAXAXAXAXAXAXAXAXSXAXxXa.7.B.B.5.J W J C >.2.2.3.3.3.5.q.q.y.q.c.m.V.1XiXiXS.dXMXZXAXZXAXAXAXAXAXAXAXAXAXAXAXAX",
"AXAXAXAXAXAXAXAXAXAXAXAXAXAXAXAXAXAXAXMXZ.7.S.7.5 5 q 3 C L I 2.3.3.2.3.6.5.3.! I 2.6.x.4XdX4XrXCXZXAXAXAXAXAXAXAXAXAXAXAXAXAXAX",
"AXAXAXAXAXAXAXAXAXAXAXAXAXAXAXAXAXAXAXZXN.a.v.W L C C C L L L P 3.3.3.q.5.5.3.3.6.w.c.m.G.dXiX8XCXAXAXZXAXZXAXAXAXAXAXAXAXAXAXAX",
"AXAXAXAXAXAXAXAXAXAXAXAXAXAXAXAXAXSXSXZXB.N.t.W 3.J L L L L L C I 3.6.q.3.,.>.>.q.a.m.m.Z.6XdXtXCXZXAXAXAXAXAXAXAXAXAXAXAXAXAXAX",
"AXAXAXAXAXAXAXAXAXAXAXAXAXAXAXAXAXAXAXZXC.Z._ w Z L 5 y x x x C I I w.q.3.;.I I L 5.x.w.e.F.dXfXVXZXAXAXAXAXAXAXAXAXAXAXAXAXAXAX",
"AXAXAXAXAXAXAXAXAXAXAXAXAXAXAXAXAXAXZXAX<XZ.E w 1 y.<.6 ;.;.3 N M I 9.3.3.Z w.I P m.m.6.8.G.rXvXZXAXAXAXAXAXAXAXAXAXAXAXAXAXAXAX",
"AXAXAXAXAXAXAXAXAXAXAXAXAXAXAXAXAXAXAXbXS.a.V W 7.W B l j 3 l 5 M G w.V.I I C I ) j.:XD.b.1XrXdXZXZXAXAXAXAXAXAXAXAXAXAXAXAXAXAX",
"AXAXAXAXAXAXAXAXAXAXAXAXAXAXAXAXAXAXAXzXC.Z.T D 8._ B w C C e N U U M.3Xc.` 3.2.6.c.>X1XG.yXtXdXVXZXAXZXAXAXAXAXAXAXAXAXAXAXZXAX",
"AXAXAXAXAXAXAXAXAXAXAXAXAXAXAXAXAXZXAXpXC.S.8.Q D D S B C B A j.g.M.sXaXwXM.c.3.j.m.>XwXeXdXtXhXZXAXAXAXAXAXAXAXAXAXAXAXZXAXAXAX",
"AXAXAXAXAXAXAXAXAXAXAXAXAXAXAXAXAXAXAXbX,XS.k.8.P G M F D B 8.b.z.yXjXjXyXwXM.D.M.b.D.yXtXdXjXvXZXAXZXAXAXAXAXAXAXAXAXAXAXAXAXAX",
"AXAXAXAXAXAXAXAXAXAXAXAXAXAXAXAXAXSXZXZXuXZ.c.e.) G G V I Z M b.H.H.sXsXsXj.` M.F.G.F.yXH.yXtXvXZXAXAXAXAXAXAXAXAXAXAXAXAXAXAXZX",
"AXAXAXAXAXAXAXAXAXAXAXAXAXAXAXAXAXAXSXZXuXc.l.e.U ) G ) U M ) b.l.z.H.H.sXF.U f.A.H.yX4X4XH.yXhXZXAXAXAXAXAXAXAXAXAXAXAXAXZXAXAX",
"AXAXAXAXAXAXAXAXAXAXAXAXAXAXAXAXAXAXSXSX4Xe.l.` ) F ) ) N 8.x.9.g.k.z.A.H.sXF.U k.G.F.H.4XF.4XvXZXAXAXAXAXAXAXAXAXAXAXAXAXAXAXAX",
"AXAXAXAXAXAXAXAXAXAXAXAXAXAXAXAXAXAXZXVXS.l.e.9./ F ) Q M I I e ` g.x.g.U ` M.U 9.k.A.G.G.F.4XvXZXAXAXAXAXAXAXAXAXAXAXAXAXAXAXAX",
"AXAXAXAXAXAXAXAXAXAXAXAXAXAXAXAXAXAXZXCXC.u.9./ Q / ~ Z 5 l x 5 6 I I G M G 3.I 9.l.b.A.A.G.4XhXZXAXAXAXAXAXAXAXAXAXAXAXAXAXAXAX",
"AXAXAXAXAXAXAXAXAXAXAXAXAXAXAXAXAXAXZXBXZ.u.` T F P D N C C q 1 6 N M M 2.h.c.) ) 9.l.z.A.G.F.fXZXAXAXAXAXAXAXAXAXAXAXAXAXAXAXAX",
"AXAXAXAXAXAXAXAXAXAXAXAXAXAXAXAXAXAXZXZXC.t.) V Q D N l C k ; # 5 e 5 5 I c.>Xg.) ` g.l.k.G.4XnXZXAXAXAXAXAXAXAXAXAXAXAXAXAXAXAX",
"AXAXAXAXAXAXAXAXAXAXAXAXAXAXAXAXAXAXSXZX7X7.W V V B 0 1 , # # 3 e M 5 I U F 6.g.( ( ` e.l.C.8XSXAXAXAXAXAXAXAXAXAXAXAXAXAXAXAXAX",
"AXAXAXAXAXAXAXAXAXAXAXAXAXAXAXAXAXAXAXZX8Xt.W B B M 1 6 # < j x L I 6.6.6.2.I 2.( ) _ j.b.C.dXZXZXAXAXAXAXAXAXAXAXAXAXAXAXAXAXAX",
"AXAXAXAXAXAXAXAXAXAXAXAXAXAXAXAXAXAXZXZXgXr.W S W l 1 @ ; # 2 2 3 j C l N M e N W ( 9.j.Z.G.hXZXAXAXAXAXAXAXAXAXAXAXAXAXAXAXAXAX",
"AXAXAXAXAXAXAXAXAXAXAXAXAXAXAXAXAXAXZXAXmXy.W S W W w 6 3 , z b K I ;.3.w.I j 5 M _ y.j.b.<XnXZXZXAXAXAXAXAXAXAXAXAXAXAXAXAXAXAX",
"AXAXAXAXAXAXAXAXAXAXAXAXAXAXAXAXAXSXAXAXNXv.H S C C l j j f k b 3.0.q.h.y.3.( Z C ^ 8.t.v.7XZXAXAXAXAXAXAXAXAXAXAXAXAXAXAXAXAXAX",
"AXZXAXSXAXAXAXAXAXAXAXAXAXAXAXAXAXAXAXZXZX,XJ c l l z q j j d 9 j N C N B A ! W C A 4.4.v.gXAXAXAXAXAXAXAXAXAXAXAXAXAXAXAXAXAXAX",
"AXAXAXAXAXAXSXAXAXAXAXAXAXAXSXAXAXSXAXSXZX9XC k q q j 9 9 3 2 < , 1 q 5 e A C c B B P _ v.MXZXZXAXAXAXAXAXAXAXAXAXAXAXAXAXAXAXAX",
"AXAXAXAXAXAXAXAXAXSXAXAXAXAXAXSXAXAXAXAXn.H ,.l q 8 j j 9 9 9 3 , 4 l C ! 4.! W C S D 2.*XZXAXZXAXAXAXAXAXAXAXAXAXAXAXAXAXAXAXAX",
"AXAXSXAXAXZXAXAXAXAXDXSXSXSXAXAXAXAXAX2X. . ! d 0 0 9 k v k v l C I 6.y.v.u.<.W C B W _ gXSXAXAXAXAXAXAXAXAXAXAXAXAXAXAXAXAXAXAX",
"SXAXAXAXAXAXSXAXAXSXAXAXAXAXZXAXNXcX=Xg . @ H c 9 8 2 f v c c c L I ~ 6.u.t.7.R J S W s.BXZXAXAXAXAXAXAXAXAXAXAXAXAXAXAXAXAXAXAX",
"AXAXAXSXAXZXAXNX0X1.p.s.;X-X;X1...n : > O . E f q 8 0 9 q q k v x C N W 4.7.>.A W ^ <.Z.nXZXZXAXAXAXAXAXAXAXAXAXAXAXAXAXAXAXAXAX",
"DXcXpX0X0X=X0X1.E 7       o m n : :   - +   E v 8 f 8 8 8 8 0 0 j j j C W ^ ^ W W 4.t.t.C.9XxXNXAXAXAXAXAXAXAXAXAXAXAXAXAXAXAXAX",
"N.:.v Y n n n s s Y * o > o o m s 7   > > o R z 8 8 f d 9 8 < 8 7 7 8 f v H ! ^ ^ W Z.4.<.n.1.:.p.xXAXAXAXAXAXAXAXAXAXAXAXAXZXAX",
":.m 7 Y Y v n g 7 n * i : = t = n | > = > - Y c < < 8 d d 8 8 8 0 8 9 g b R <._ Q ( Z._ W 1.1.<.O h gXAXZXZXAXAXAXAXAXAXAXZXZXAX",
"<.z 7 b E h d : : s : - o > > m d.!.r X O . @ l 0 6 $ 0 8 8 f f q k c S J R W W W _ <X2.e E :.p.n + : -X0XN.=X0XgXbXSXAXAXAXAXAX",
";.: $ f Y 8 - O * O O % > o   ..!.R.r X o . . 6 q 1 $ $ ; : 8 9 9 w l l c l w B _ j.G._ 0 q h n :.; . g >.E q.n.N.N.=X7XgXxXDXAX",
"E 2 O h n u % * * % o X o o X  .!.*.p r o   . + 2 8 3 ; $ $ ; : 0 9 8 0 0 0 w W e.l.D.A 0 2 8 | 1.y + , <.r.a.a.n.s.r.1.1.p.;X7X",
"H : - s { i & r % { ] a p p p R.~.*.' ' % o   O @ , 9 3 2 ; ; # < < < < 0 e T 9.9.l.h.w y - m | i.m O @ b a.,.K K n f s u z K <.",
"v ; - s K : & r -.}.U.&.K.o.&.Q./.o.[ +.r % X   + O : 2 9 d 0 < 2 3 9 k w T ` ` e.e.W z r ] !.!.i.m t   ; 0.p.y ; : 8 : y y z K ",
"m t = i { {  ._.|.[.Q.J.%.J.%.@.T.&.o.+.} r X o + + O ; 2 9 e e 9 q l B T _ _ ) T Q b = { qX!.|.qX..t * o s p.0.s s u u y y z K ",
"[ [ d.}.|.{.{.'.[.{.Q.%.K.%.#.X.U.U.X.$.=.} & o o . @ @ , < 9 9 j q M S F T G G S c 7 t }.kXT.`.kXd.a i X + z 1.1.n i u m s m m ",
"!.+XkX#X{./.'.`.[.[.U.$.&.@.#.O.L.T.#.X.*.&.[ % %   . @ # 3 9 3 0 q e w M M M B v 7   =.kX+X`.`.kXkX] t t X : ; m 1.:.n u h y n ",
"kXkX@X@X`.`./.W.].XXP.#.%.#.X.O.%.Y.K.@.$.&.&.p & X   . @ , d 9 q l w l w l q 8 >   ] }.|.+X`.T.|.lX}.} & r * y O z ,.K m h u h ",
"@X@X$XOX`./.^.(.(.XXP.#.$.#.@.O.X.Y.L.K.%.%.U.&.' r   + . . O : 8 0 3 < < - o o o } !.+X|. X'./.OX&X#X+X!.{ a = & & = i Y Y h h ",
"#X@X@X'.^.(.^.E.^.(.Y.X.X.$.*.o.X.P.Y.K.J.J.P.L.o.[ ' r o   X X   +   o X X & p =.~.{.OX@XXXXXW.oX%XOX X+X|.{._.-. .[ a m | m h ",
"@X@X@X~.(.^.^.W.).'.Y.@.X.o.o.o.O.K.Y.K.L.J.J.P.J.*.+.+.+.a r r & % % = p ] -.{.~.~.OX@XXXXX(.W.oXlX#X.XoX[.].[.{.~.!.!.=.....m ",
".X@X.XW.^.^.E.E.E.(.W.%.X.o.o.o.O.J.E.P.L.J.&.P.U.L.#.X.U.R.T.T.R.R.R._.T.R.R.Y.W..X@XoXoXXXXX'.oX#X#X.X[.oXoXXX[.[.W.~.T.~./.`.",
".X@X'.W.^.).I.I.E.].W.J.@.O.O.o.O.%.I.P.J.L.P.&.I./.^.P.K.L.U.R.Y.Y.L.L.L.L.Y.E..X.X@XoX.XXX~.'.oX#X#XOXoXXXXXXXXX.X.X'.W.I.E.Y."
};
