/* XPM */
static char *IMG_20221021_WA0004__1_1666533630[] = {
/* columns rows colors chars-per-pixel */
"64 64 255 2 ",
"   c #1B160B",
".  c #1D1712",
"X  c #150B01",
"o  c #261607",
"O  c #29170C",
"+  c #28241A",
"@  c #34291A",
"#  c #392D1A",
"$  c #2D2B25",
"%  c #332C23",
"&  c #322E29",
"*  c #3A2E24",
"=  c #34342B",
"-  c #3A352D",
";  c #3C392D",
":  c #383425",
">  c #3D3B33",
",  c #3B3C3A",
"<  c #383734",
"1  c #2E3128",
"2  c #4F3317",
"3  c #6C3319",
"4  c #433C2D",
"5  c #4B3D2C",
"6  c #483725",
"7  c #583C29",
"8  c #443D34",
"9  c #4A3E34",
"0  c #453C38",
"q  c #533D34",
"w  c #7B3C28",
"e  c #613D2D",
"r  c #421F09",
"t  c #3E403A",
"y  c #4A402C",
"u  c #57432C",
"i  c #444135",
"p  c #4C4334",
"a  c #44433B",
"s  c #4B443B",
"d  c #4D4A3D",
"f  c #4A4837",
"g  c #534433",
"h  c #52453B",
"j  c #534B3C",
"k  c #5C4B3B",
"l  c #594735",
"z  c #59513D",
"x  c #63452C",
"c  c #7B4527",
"v  c #674A36",
"b  c #68533A",
"n  c #7A593A",
"m  c #744F33",
"M  c #3D4140",
"N  c #4C4A43",
"B  c #484844",
"V  c #534C43",
"C  c #564C46",
"Z  c #4F5147",
"A  c #555144",
"S  c #5B5344",
"D  c #54534C",
"F  c #5B544A",
"G  c #5D5A4A",
"H  c #5A5855",
"J  c #645342",
"K  c #62554C",
"L  c #635B4C",
"P  c #6B5C4B",
"I  c #695845",
"U  c #735C49",
"Y  c #785946",
"T  c #645C53",
"R  c #665C57",
"E  c #745B4E",
"W  c #6B614D",
"Q  c #74624D",
"!  c #79644A",
"~  c #6B6355",
"^  c #6B645C",
"/  c #666459",
"(  c #746454",
")  c #7B6954",
"_  c #736B5C",
"`  c #7B6A5A",
"'  c #776458",
"]  c #78705B",
"[  c #6A6864",
"{  c #766C63",
"}  c #7A7467",
"|  c #7A7573",
" . c #675D5F",
".. c #8F3B2E",
"X. c #813617",
"o. c #864733",
"O. c #984A37",
"+. c #885839",
"@. c #97583B",
"#. c #8A4B2C",
"$. c #A5563C",
"%. c #A3493B",
"&. c #8B653D",
"*. c #93643D",
"=. c #99663F",
"-. c #855A44",
";. c #9B5D44",
":. c #A95945",
">. c #B35C4A",
",. c #B35B4F",
"<. c #86664A",
"1. c #9B6542",
"2. c #9B6943",
"3. c #976846",
"4. c #9A724E",
"5. c #876954",
"6. c #936C55",
"7. c #976A57",
"8. c #88735C",
"9. c #9A7759",
"0. c #89714F",
"q. c #AB6C4B",
"w. c #A46847",
"e. c #B5694B",
"r. c #A4734D",
"t. c #A9744D",
"y. c #B3724F",
"u. c #AC6854",
"i. c #B86954",
"p. c #AC7454",
"a. c #A77756",
"s. c #B57552",
"d. c #BB7453",
"f. c #B47A55",
"g. c #BB7B56",
"h. c #BD7D5A",
"j. c #B6775A",
"k. c #877867",
"l. c #9B7B61",
"z. c #957B68",
"x. c #88746C",
"c. c #A87B64",
"v. c #B77D64",
"b. c #C56C59",
"n. c #C47C5B",
"m. c #CA7D5C",
"M. c #C47756",
"N. c #C96D62",
"B. c #D07D66",
"V. c #BC815A",
"C. c #A8845E",
"Z. c #988369",
"A. c #8B8276",
"S. c #978979",
"D. c #99937D",
"F. c #87826E",
"G. c #A88768",
"H. c #BC8C6D",
"J. c #B88569",
"K. c #BB926C",
"L. c #A58B75",
"P. c #B98D73",
"I. c #A89379",
"U. c #B99577",
"Y. c #AB926C",
"T. c #C5835D",
"R. c #CB845E",
"E. c #C9875D",
"W. c #D1885F",
"Q. c #C48363",
"!. c #CC8563",
"~. c #CC8A64",
"^. c #C48C6C",
"/. c #CC8C6B",
"(. c #C48767",
"). c #D18665",
"_. c #D28C65",
"`. c #D48C6B",
"'. c #D88A6B",
"]. c #CC926D",
"[. c #C2926C",
"{. c #D49166",
"}. c #D4936B",
"|. c #DB936D",
" X c #D9996D",
".X c #C78D72",
"XX c #DA8C71",
"oX c #CC9373",
"OX c #C79877",
"+X c #D49472",
"@X c #DB9472",
"#X c #D49B74",
"$X c #DB9C74",
"%X c #D39D7B",
"&X c #DC9D7A",
"*X c #D19679",
"=X c #E39B77",
"-X c #E0966F",
";X c #D4A37D",
":X c #DCA37C",
">X c #DBA479",
",X c #CAA27F",
"<X c #E2A276",
"1X c #E2A37B",
"2X c #E5A97D",
"3X c #E9A77D",
"4X c #F1A37F",
"5X c #9D9485",
"6X c #9D8C90",
"7X c #AB9C8B",
"8X c #A59989",
"9X c #A69C94",
"0X c #B49D85",
"qX c #B8A58B",
"wX c #ACA494",
"eX c #ABA89A",
"rX c #B3A493",
"tX c #B8AB97",
"yX c #B9B096",
"uX c #B9B4A3",
"iX c #C89C81",
"pX c #DCA482",
"aX c #DCAB83",
"sX c #D8AA87",
"dX c #DCB18D",
"fX c #D9B799",
"gX c #C9B194",
"hX c #E4A481",
"jX c #EBA683",
"kX c #E3AB84",
"lX c #EBAB83",
"zX c #E3AE8A",
"xX c #ECAD8A",
"cX c #F5AB86",
"vX c #E4B38C",
"bX c #E8B289",
"nX c #E4B592",
"mX c #E9B994",
"MX c #E5B996",
"NX c #F6B08D",
"BX c #C7BAA5",
"VX c #D2BEAF",
"CX c #E9BDA0",
"ZX c #D4C3AA",
"AX c #D7CAB6",
"SX c #CDC7B0",
"DX c #E8C8AA",
"FX c #D0C09C",
"GX c #DED7C6",
"HX c #D6C9C7",
"JX c #EBD8CA",
"KX c #F4EAD3",
"LX c #FEFBEA",
"PX c #FEFDF7",
"IX c #EBDFE3",
/* pixels */
"[ | } k.} { / { [ [ [ [ [ [ x.z.Y.U.OXsXdXdXdXdXdXMXfXMXMXdXdXvXaXkXkXaX:X:XpX1XpX;X%XoXoX^.j.3.<.v y i N a V P 5.l.I.U.FXKXFX! ",
"_ { } | { [ [ [ [ [ [ [  .[ z.S.Y.,XsXdXdXsXaXdXsXMXfXMXMXvXdXkXaXkXkXkXhX2X2X:X&XpXhX%X%XoXJ.a.<.Y l i 0 s h h ! ! Y.U.yXKXAX) ",
"_ { } } / ^ [ [ H H [  .{ z.z.L.U.,XdX;XaXaXzXvXdXnXMXnXvXvXkXkXkXkXkXhX1X2X1X>X1X1X>X&X%X%X/.J.c.0.I l 9 B s q g b 0.G.U.qXZ.) ",
"^ _ { { / [ [ H H [  .H x.z.L.U.,XdX;XdXaXaXkXaXvXvXMXnXmXvXkXkXkXlXlXhX1X1X1X1X1X<X=X&X>X&X+X^.J.a.5.I h 0 0 9 g g I Z.D.D.0.z ",
"~ ` { _ / R H H H R T ' z.c.P.U.;X;X;X;XaXaXaXbXvXnXMXmXmXmXbXzXxXkXkXhXhX2X=X1X2X<X2X<X>X$X#X X^.J.c.E k q q B s y l ` Z.I.D.b ",
"~ ` { ~ / H D H H T K 8.c.G.OX%X;X,X;X;XaXaXkXmXmXmXmXmXmXbXzXzXvXkXkXhXhX1X1X1X1X2X1X=X<X$X>X#XoX[.J.7.Y q 0 s 9 g 5 J 8.Z.Z.Q ",
"W ` _ T R D D H D K ( z.G.K.*X#X;X;X;XaX>XaXaXvXmXmXMXmXmXvXzXzXzXkXkXkXkXhXlXhXlX1X<X1X<X2X>X X&X].J.v.5.q 9 h i p 5 l ) z.D.! ",
"P ( ( G H Z D D F K 0.9.G.#X#X].#X;X;X;XaXaXdXvXmXmXmXmXmXvXzXvXzXkXkXzXlXkXkXhXhXhX2X2X1X<X>X X X#X/.J.u.E q 9 a i 8 p I 5.S.8.",
"U ` ~ G D B D D F E z.9.H.].].#X}.;X>XhXaXaXkXvXbXmXmXmXvXvXkXkXkXlXkXhX2X2XhXlXlXlXlX2X2X2X2X<X$X|.}./.c.7.v 9 f a 8 4 v ( I.k.",
"U ' P F D B Z C J ' 9.G.[.]. X$X>X&X>X;XaXkXdXkX2XdX2X2XbXbXbXbX2X2X2X2X2X2X2X2X2X2XbXlX3X3X2X<X2X>X@X}.^.G.U p p f s p h P Z.Z.",
"P ` K F C B C V J 5.9.K.[.[.#X#X>X1XhXhXaX:X;X>X>X>X<X2X2X2X1X2X3X<X<X<X=X X X$X$X<X2X3X2XbX3X2X2X<X<X@X/.J.7.v 5 h s s y I k.Z.",
"Q ) K F B B C k I 9.c.H.[.[.;XOX%X;XaXsXpX*X;X%X;X>X$X<X2X2X<X2X3X<X-X X X|.$X&X$X>X<X2X2X2X2XlX2X2X1X+X].^.J.-.q f 0 i 9 z ] Z.",
"Q ( z C N s V l ! 9.J.[.[.OXOXK.K.K.U.OXU.OXOX*X[.].}.#X$X$X>X<X-X-X-X$X$X}.oX+X+X+X*X&XpXpXpXzXdX:X>X#X/./.P.7.v h s 8 i j Q Z.",
"Q ~ S C s s q C 5.6.K.K.K.K.Z.C.c.9.l.l.z.z.c.L.K.[.^.].}.}.}.+X X X+X/.]./..X.X.XH.P.P.P.P.P.OXOX;X:X;X+X(.J.c.I q V , a p I F.",
"( P k V s N p J 0.9.H.K.C.9.0.0.5.` ) U I I Y <.l.c.J.J.(..X.XoX#X}..X^.^.J.v.v.a.a.7.7.7.7.7.7.c.U.;X;X*X.XB.v.-.q N 0 a i S k.",
"( L C j s h 5 J 6.c.K.C.6.<.5.! P I J C h q q 7 v -.6.4.c.J.H.^.H.H.H.J.c.c.7.E v q 7 e x J Y E <.9.K.oXXXiXv.P.5.q V t a s j k.",
"~ L z f i y g b 5.Z.U.0.9.k.x.S.S.5X8X7XwXwXD.k.] ! Y 5.5.9.Z.G.G.c.c.l.5.5.P J J S P I ' ' ' 5.5.5.9.G..XoX^..X7.q C 0 , d A ] ",
"L G j f j 5 6 ! I.Z.! W b S K D C S K L _ k.D.8XeXrXtXgXqXqXI.I.l.z.z.z.x.x.x.x.} k.k.k.x.x.A.A.5XS.L.fXfXsXiXP.z.q 0 C 0 s d k.",
"I W f g h p _ } P g y p 8 = Z < > > a s i ; ; = > s F P ' z.z.z.8.k.k.8.x.K K C d j f j h f a s > N k P k.I.VXVX9Xq C 0 0 h C k.",
"b L g g p _ _ p 4 f s a B B M B a t B N N B B Z N , - 4 q k K U Q ] J 9 9 9 0 h d d d d V d B { 6Xx.R V f g l S.VX6Xh C V q K x.",
"I b g p W wXZ ; f a > , , M M < , B Z N a a B 0 B , < i q h I J W F.( f h B 0 C N N a f B d B | HX6X6X[  .H G 0 A eX| f N C R 9X",
"b b y 6 _ 5XN d i a a Z D < , , , M , , , a 0 B , B < = 0 C 5.5.W ] D.G 0 0 C B d s ; a B 0 B B  .IXIX| H D H { F _ eX/ 8 C x.9X",
"b z l ; ~ } Z t 0 a N { B < > < < < > , 0 0 0 0 > N N h J J 5.x.I U S.W 0 0 s 0 0 0 > t 0 0 C h K S.9X| H B  .[ F } uX} h T x.6X",
"b k y : W [ f i a > s 0 - 8 - - - < 0 0 0 0 9 0 V G N f h 7 -.c.6.l F.} C C K K C j f f C H C K C q C H H  . . ./ x.wX_ C ^ z.6X",
"z l p 4 z / d t f ; = ; < = = > - i > ; 0 p h F K F f l g 7 +.a.c.m E z.C C T K P ^ / G T ^ { x.) _ H B D H H [ ^ A.wX} z S.rX8X",
"h l p 4 f G d d t t t < < < , = > 8 i i 0 0 h K T C f l 7 m 7.J.v.7.e z.E C K T / _ { ~ L F ' x.} | [ H B Z H  .[ x.wX] ~ GXyX5X",
"h j f y y G G L s < = < < , , < B t a s 0 s C F S C j g 7 n c.v.P.c.m Y k.f F T / A G L L L ( { ' { [ Z B B D  .| A.5XW 5XKXSX8X",
"9 p j p y f f f R s - , M < < t t a d a B F F h 9 f l 7 x 7.H..X*X*X7.7 k.I G G G z z f h L { ' x.' H M B B H } A.5XS.} eXSXBX5X",
"8 4 j p y y b G g k C 9 - < , t t a i i p V C 8 s g q e -.v.%XhX&XhXH.e m 8.~ S L G I ~ ~ _ } { T H B B B Z ^ x.x.x.BXtXD.S.8XuX",
"< - f y y u C.Z.! x q q C 9 i s i i 0 9 9 0 0 5 l q e m p..X+X1X&XpX*X;.7 Y ` I K K ( ) ( _ T V s s 0 N T [ } k.8XfXGXAXSXGXHXHX",
"& & 9 g 7 2 C.Y.G.l.5.m e 7 g u p p p q 9 5 4 g q e m ;.n./.=X1XjXhXhXv.+.v U ( ( ( E E I V s V C K ( ( 5.7.c.iXfXDXKXKXPXPXPXPX",
"& & * j u u Y.Y.[.OXOXiXJ.9.-.b u x 7 7 7 7 7 l v m -.u.(./.=XjX1XjXpXXXc.-.x Y Y Y Y Y Y U P P E ' 5.c.iXiXsXCXCXDXKXLXPXPXPXPX",
": 1 # y u x Y.OX[.[..X*X%XpX;X;XH.c.6.;.-.-.-.+.-.;.7.B.^./.jXzXjXjXhX*X/.v.w.-.o.-.o.o.+.-.-.7.c..XiXpXzXnXnXMXCXCXKXLXLXLXLXIX",
"1 1 : t f u Y.[.T.Q././.+X+X$X#XhX&X/.J.j.p.p.a.3.w.j.(./.&XxXNXxXxXjX=X@X.XB.j.v.p.j.c.j.v.^.XXpXjXjXhXkXzXzXnXmXMXgXAXAXHXVXBX",
"1 : : : y u Y.C.V.V.J.(.~.].}. X@X+X]./.(.V.a.q.u.p.n.(./.=XjXNXjXjXjX=XXX.X/./.B.(.^./.oX+X*XpXXXhXhXpXhXzXzXnXCXDXiXrXeXuXwXrX",
"% 1 : : : u Y.V.a.V.h.Q.Q.~.}.}._.`.~.}.].J.h.q.q.h.(.)./.&XjXcXjXcXcXjX=X`./.)./.`./.+X+X*X&XpXiXhXhXhXhXhXzXzXmXCXU.7X9XwX9XrX",
"& & = : : y C.C.C.V.f.V.T.~.~.].`.~.E.~.~.~.T.y.y.Q.~.`.@X@XjXcX4XcXcXcXjXXX'.).'.'.+X+X+X@X+X&XjXhXjXhX=XpXzXdXdXfXU.8X9X9X8X8X",
"& $ 1 = : : 0.G.t.y.j.p.V.J.].~._.`.).~.!.T.h.q.q.Q.Q.`.@X'.=X3X=X4XcXcXcX-X'.m.!.).`.`.'.XX@X&X=XXXhXpX@XpXhXzXdXfXI.8X9X9X7X7X",
"1 1 = 1 : # ) C.r.p.a.p.V.V.E.E.R.).).).R.M.d.w.s.T.Q.!.Q.).|.|.-X=X-X=X=X4X'.M.M.R.).`.|.|.@X-X=XhXhXhXhXpXhXpXdXfXz.8X8X8X8X0X",
"1 = = = : + ! G.4.4.a.f.f.V.T.T.E.W.R.R.T.M.d.w.d.g.h.y.y.g.n.m.B.'.-X'.-X=X'.M.M.m.!.).`.'.@X@X=X@X=X=X=XpXhXpXdXZXQ 8X9X8X7X8X",
"= $ t 1 1 $ Q G.4.a.a.C.f.V.V.T.n.E.T.m.T.T.d.w.w.e.w.w.@.q.s.d.m.m.'.B._.-X'.d.M.n.B.!.).`.}.|.@X&X&X&X&X1X>XsXMXJXk.D.8X8X8X7X",
"$ = 1 = 1 @ b Z.4.a.a.t.y.f.g.g.g.n.T.T.n.M.d.s.=.=.w.#.3 @.e.e.b.m.e.%.d.).M.M.n.m.m.R.).).'.|.@X$X=X$X&X>X&XpXMXU.L 5XwX8X7X8X",
"< $ = = = @ u G.9.t.a.a.t.C.g.g.g.V.T.T.n.n.T.(.t.+.+.w 3 X.=.e.M.e.X.X.$.n.d.d.!.!.m.!.).`.`.|.|.-X$X&X&X1X&XpXgXb p S.wX8X7X7X",
"$ $ ; = = 1 u Z.9.9.a.a.t.V.f.s.g.g.f.M.m.(./.}.(.#.#.c X.c #.w.e.e.M.e.:.e.!.'.'.'.!.!.~._.`.{.|.$X&X&X&X1X>XaXU.u f F.rX8X7X7X",
"z t 1 t = - 5 8.9.9.4.r.t.f.f.y.f.f.g.V.(.}.+XoXoXr.c #.o.#.O.w.e.i.i.s.d.m.!.).`.|.|.).!._._.'.|. X&X$X&X<X:XdXG.y p | eX7XwX8X",
"d Z B t = $ l 0.C.9.a.r.t.t.t.f.f.V.T.T.`.'.+X}.oX^.1.+.+.;.u.u.i.n.B.m.B.`.'.`.'.@X@X'.`.'.'.{.|.|.+X&X&X<X:XdX9.I A [ wXwX7X0X",
"i ] GX[ & 8 5 ! C.4.9.a.t.r.t.f.g.V.E.~.~.)././.].].p.1.1.w.i.j.d.B.XX/.).`.XX@X|.|.|.|.|.|.'.|.|.|.&X&X<X1X>XaX8.~ G / wXrX7XrX",
"y A.KXA.; : g U C.4.4.r.r.r.t.y.V.V.V.T.~.T.T.Q.^.^.^.p.w.u.j.d.d.).XXXXXX`.`.'.'.|.|.|.-X{.'.|.|.|.+X+X&X<X>XsXv : < F wXrXrXqX",
"y D.KX} y # f b C.0.4.4.r.t.t.f.f.V.V.V.f.g.n.V.T.Q.^.Q.B..Xn.h.i.m.'.'.).'.).).~.{.}.{._.{.|.|.`.}.{. X1X<X>X;Xu * 9 C 8XtXrXrX",
"z yXKXD.t y F.] ! C.4.4.4.4.r.r.f.t.y.y.y.t.s.f.h.Q.Q./.B.hXpXN.d.m.XX-X|.|.).)._.~.E.~.}.{.W.{./.+X}. X$X$X>X(.b * 8 s 5XtXrXrX",
"D.LXLXyXz f GXBX0.0.&.*.2.r.t.f.t.t.r.2.=.2.q.p.j.v.n.j.u.j.XXXX).B.B.B.'.-X|.'.!.~.~.E.|.{.).}.`.}. X}.>X>X>X3.b % 4 8 D.yXtXtX",
"F.SXSX} t z GXBX,XZ.0.2.2.=.=.r.r.r.4.2.*.*.2.p.u.u.;.:.o...,.,.i.:.>.b.b.B.'.'.~.`.!.T.~._._.@X}.]. X X:X;X[.7 b @ - ; F.yXqXyX",
"z G ] Z t ] GXGXAXI.n &.3.*.r.2.w.4.2.*.&.+.#.m o.o.....-.;.O.%.:.,.,.>.:.>.,.B.`.d.d.T.~.!.~.`.+X`.}. X;XaXl.2 W : t t } FXyXyX",
"f G / Z d wXLXGXqXZ.<.+.&.+.1.1.2.r.2.1.*.m 3 3 2 3 3 3 3 ..w ....:.%.........%.O.O.@.d.T.!.).}.+X}.~.#XOXdX8.b 8.] ] A ~ yXyXyX",
"f / } Z Z eXuX] f y n n +.*.+.@.2.w.=.=.=.*.c c w c w w ..o.........%.%.,.b.$.%.:.e.M.T.T.(.~.~.).{.~.#XiXP.S L ] z d t G BXFXyX",
"G Z D H / D t : 6 @ u ! n &.+.+.=.r.=.*.=.=.&.&.o.o.-.,.,.u.,.u.b.N.N.N.B.B.B.).`.'.~.T.n.T.T._.)._.}.OXsX<.O + u 6 @ : z uXBXFX",
"; t 1 M G t : + + @ O b &.n +.+.*.*.*.*.*.=.=.*.;.;.;.:.:.b.b.b.,.N.b.b.N.B.B.B.'.`.).~.T.T.E.~.E.{.[.#X,Xb G G _ ( _ ^ h yXZXBX",
"= = = $ $ + + . . # 6 v n n n &.&.*.*.*.&.=.=.*.+.;.-.O.%.>.>.b.,.,.b.b.b.B.B.'.'._.`.~.~.E.E.E.E.E.[.OX0.] ] / ( 8.P C p tXZXVX",
"$ + + + 1 1   + A T P k b n n +.&.*.*.*.*.=.=.=.O.-.O.O.O.%.$.$.>.>.$.>.e.b.m.B.W._.{.{.E.E.E.E.g.E.;XY.b b G : 6 y 2 6 5 rXZXBX",
"+ + + + + + = R ^ G f 6 2 m n n &.*.=.=.=.=.=.=.@.@.@.@.;.O.#.$.%.%.$.>.b.b.m.m.W.W.W.W.{.E.E.E.E.[.[.b z W / W z l u b 7 S.AXAX",
"= $ + + + s R D > @ @ O o # m n +.*.*.=.2.2.=.=.@.@.@.1.$.$.$.$.$.e.$.e.e.M.W.W.W.{.{.{.{.{.{.{.E.K.! 2 z G G W W b x b 7 k.AXZX",
"$ + . . 0 C 0 $ + + o X o o x m #.&.*.=.2.=.=.=.=.1.1.w.w.=.=.q.e.e.M.M.M.M.M.W.{.{.{.{.{.{.{.].;XC.O # f z W z W b n n v ! AXAX",
"  . y G 0 & & . .     X   o x m m +.&.*.=.r.r.r.=.=.1.:.w.y.y.M.M.M.W.W.W.W.W.W.{.{.{.{.}.{._.~.J.r o * y z z z b ! m &.Z.b SXAX",
"< D d y % + . .   X     X o b b m m &.&.=.r.t.t.t.w.w.w.=.e.y.M.M.E.W.W.-X-XW.-X{. X X X X}.{.E.3 o o + : f z b z W &.Y.Y.b SXSX"
};
