/* XPM */
static char *usmen1666448975[] = {
/* columns rows colors chars-per-pixel */
"64 64 254 2 ",
"   c #130F0B",
".  c #17110D",
"X  c #1B140F",
"o  c #0D1010",
"O  c #121412",
"+  c #121517",
"@  c #191713",
"#  c #151818",
"$  c #191B1A",
"%  c #1D1E1C",
"&  c #221912",
"*  c #251E16",
"=  c #2C2119",
"-  c #35261D",
";  c #3D291F",
":  c #323414",
">  c #1D2020",
",  c #222320",
"<  c #2B2620",
"1  c #232728",
"2  c #2A2C2D",
"3  c #3D3026",
"4  c #37322A",
"5  c #252E38",
"6  c #313335",
"7  c #3F3830",
"8  c #443024",
"9  c #4B3527",
"0  c #513124",
"q  c #573A29",
"w  c #4C3D31",
"e  c #693A30",
"r  c #414612",
"t  c #4B4A1C",
"y  c #505815",
"u  c #5F6613",
"i  c #6D7616",
"p  c #56402F",
"a  c #5E402C",
"s  c #5D5927",
"d  c #594434",
"f  c #5C4A3B",
"g  c #475133",
"h  c #624532",
"j  c #694734",
"k  c #674B39",
"l  c #6F4C38",
"z  c #7B4339",
"x  c #764C3C",
"c  c #6B513F",
"v  c #73513D",
"b  c #7D513D",
"n  c #7F583C",
"m  c #747625",
"M  c #646730",
"N  c #7B7E3A",
"B  c #1F3043",
"V  c #1C3353",
"C  c #13335F",
"Z  c #2C384A",
"A  c #1D3A66",
"S  c #0F397A",
"D  c #163974",
"F  c #1E3C75",
"G  c #113D7F",
"H  c #193D7B",
"J  c #1F3F7A",
"K  c #233F79",
"L  c #3A444C",
"P  c #33435B",
"I  c #2E456E",
"U  c #27417A",
"Y  c #23427F",
"T  c #27447F",
"R  c #2C467F",
"E  c #4E5153",
"W  c #605347",
"Q  c #725743",
"!  c #785542",
"~  c #7F5944",
"^  c #785C47",
"/  c #5D685E",
"(  c #6A614D",
")  c #726B59",
"_  c #7F6B59",
"`  c #4B5D73",
"'  c #7D7265",
"]  c #707978",
"[  c #8D4B48",
"{  c #895D42",
"}  c #815D49",
"|  c #875E4C",
" . c #9F5750",
".. c #81644E",
"X. c #8B664F",
"o. c #906149",
"O. c #95694E",
"+. c #896953",
"@. c #906C54",
"#. c #9F6F52",
"$. c #9B6856",
"%. c #986F55",
"&. c #93715B",
"*. c #9A725E",
"=. c #98765E",
"-. c #9E775D",
";. c #AD6B5D",
":. c #A17457",
">. c #A5795D",
",. c #AB785A",
"<. c #84796E",
"1. c #9B7E65",
"2. c #A17962",
"3. c #A77C61",
"4. c #A37C67",
"5. c #AE7F60",
"6. c #A77F6A",
"7. c #B07661",
"8. c #BB7A67",
"9. c #C66D6D",
"0. c #7A8616",
"q. c #829412",
"w. c #97AB14",
"e. c #878C25",
"r. c #94953B",
"t. c #86805F",
"y. c #A7A84A",
"u. c #8A8173",
"i. c #968879",
"p. c #AB8266",
"a. c #AE856A",
"s. c #AE866F",
"d. c #B58464",
"f. c #B58868",
"g. c #BB8A6D",
"h. c #A39E6F",
"j. c #BC936E",
"k. c #A88F7A",
"l. c #B48970",
"z. c #BD8D71",
"x. c #BB8975",
"c. c #B88F74",
"v. c #BF9275",
"b. c #CF8C6F",
"n. c #C99272",
"m. c #C49974",
"M. c #C69E77",
"N. c #CF9B72",
"B. c #C29479",
"V. c #CA9F7C",
"C. c #D69379",
"Z. c #DD977F",
"A. c #CDA47E",
"S. c #D5A37B",
"D. c #D9A77F",
"F. c #C2C269",
"G. c #164185",
"H. c #1C4688",
"J. c #1F4B90",
"K. c #284885",
"L. c #2E4985",
"P. c #2A4B8A",
"I. c #364F87",
"U. c #314F8C",
"Y. c #2C5596",
"T. c #365491",
"R. c #3F5891",
"E. c #345998",
"W. c #3A5E9C",
"Q. c #2565A6",
"!. c #2A6DAA",
"~. c #3660A1",
"^. c #3E63A1",
"/. c #3965A6",
"(. c #3268A6",
"). c #3E6AA9",
"_. c #3673AD",
"`. c #3D76B0",
"'. c #435F98",
"]. c #466783",
"[. c #536D87",
"{. c #4E669C",
"}. c #546D9E",
"|. c #5C7D94",
" X c #4668A4",
".X c #476EA9",
"XX c #4E76AE",
"oX c #5874A8",
"OX c #4470B1",
"+X c #4879B6",
"@X c #5B7BB1",
"#X c #527EB8",
"$X c #637AA7",
"%X c #7E8C82",
"&X c #678293",
"*X c #75949E",
"=X c #5D8ABB",
"-X c #779CAD",
";X c #6C85B0",
":X c #7492B5",
">X c #6997C2",
",X c #78A0C1",
"<X c #98948A",
"1X c #A69D90",
"2X c #99A39E",
"3X c #B6B18E",
"4X c #B0A89F",
"5X c #808FB0",
"6X c #80A3B5",
"7X c #87A9BC",
"8X c #8FAABF",
"9X c #91A0B8",
"0X c #BEB5AB",
"qX c #A2A9B7",
"wX c #ACAFBE",
"eX c #BCBDBF",
"rX c #CF9A81",
"tX c #DC9C86",
"yX c #CEA683",
"uX c #D2A985",
"iX c #D5AD85",
"pX c #DBAB83",
"aX c #D9AA8E",
"sX c #D9B087",
"dX c #DDB38B",
"fX c #DBB290",
"gX c #E7A18C",
"hX c #E0B891",
"jX c #E3B599",
"kX c #E3BD99",
"lX c #B4C3AA",
"zX c #B2D5BB",
"xX c #C6C08D",
"cX c #C6CCB0",
"vX c #D6D3BA",
"bX c #87BEC1",
"nX c #93B3C4",
"mX c #A1B0C1",
"MX c #A3BDC7",
"NX c #AFB9C4",
"BX c #91C8C7",
"VX c #9BD1CE",
"CX c #B1C1CC",
"ZX c #BEC3C8",
"AX c #AED5C2",
"SX c #A6D6CF",
"DX c #C4C8CE",
"FX c #CECED0",
"GX c #D4D5D5",
"HX c #DBDADA",
"JX c #E1DEC9",
"KX c #E0DFDD",
"LX c #E7E6DF",
"PX c #FCFBE6",
/* pixels */
"T T Y Y Y J J J Y T T T T T T Y Y T L.U.I.L.Y J H A B B 5 5 A D H G C V C C C S G G.H.H.H.G.G.G.H.E.}.oX XW.E.E.E.^.^.W.W.W.E.E.",
"R R T T T Y Y J Y T K.K.T K.T T T K.L.I.R.U.K.Y J J A B 5 1 B D D D B B V C C S G H.H.H.H.G.G.G.J.'.oXoX^.W.E.E.W.^.^.W.~.~.~.E.",
"R R R T T T Y Y Y T K.K.K.K.K.K.K.K.L.I.R.T.L.Y J F J V 5 1 1 B A V 5 5 B V C G G.H.J.H.H.G.G.J.Y. X@XoX^.W.W.W.^. X^.~.~.W.~.~.",
"L.L.L.R K.K.K.Y Y Y K.K.K.L.K.L.K.K.L.U.R.R.R K F A A V 1 1 1 1 5 5 2 2 5 B V D H H.J.J.H.H.H.J.W.oX@X X^.W.^.^. X^.^.~.~.~.~.~.",
"I.L.L.L.L.K.K.K.Y Y K.K.P.K.K.P.K.K.P.U.T.R.R U A A V 5 , > > 1 2 2 2 2 2 2 B A H.H.H.H.G.H.J.Y. X@XoX X^.^.^. X X^./.~.~.~.~./.",
"R.I.L.L.L.L.K.K.K.K.K.K.P.P.P.P.K.P.P.U.T.R.I I Z 5 1 > $ > $ > > , 1 1 , 1 B A A J J H.H.H.J.~.oX;XoX X^.^.)..X.X/.~.~.~././.).",
"}.R.I.L.L.L.P.P.K.K.K.P.P.P.K.P.P.P.P.U.I.P Z 6 2 , $ # # # + # $ > $ > > > 2 5 V J H.H.J.J.Y. X;X@XXX X X).)..X)./././././.).).",
"5X}.R.I.I.U.U.U.P.P.K.P.P.P.P.P.P.P.L.I P 6 2 1 , $ $ # + + + + + # # $ > > 1 1 Z F H.J.J.Y.W.oX;X@X.X.X.X)..X.X)./././.).).OXOX",
"qX5X}.R.I.I.U.T.U.U.P.P.P.U.P.P.P.L.I Z 6 2 , > % $ $ # + + # + + + # # $ , 1 1 2 5 Z A U Y. X$X;X@X.X.X.X.XXX.X/././.).OXOXOXOX",
"qXqX5X}.R.T.T.U.T.U.U.P.P.U.U.P.R P Z 6 1 % % % , , , % # + + + + + + + # $ > > , 2 6 Z P I.{.;X;X@XXXoXXXXXXX)./.).).OXOXXXXXXX",
"wXwXqX5X{.R.T.R.T.T.T.U.P.U.U.R P Z 5 , % % , , < 4 2 % $ $ # # + O + + # # $ > 1 1 1 1 5 P ].&X$X@X@X@XXX@XOX).).).OXOXOXXX&X%X",
"eXwXwXqX5X{.R.R.R.R.T.T.U.U.U.I Z 5 , % % % < 4 w w 4 < , , % # + + + # # # % % > , , > > 5 L ` $X@X@X@X@XXXOX).).OXOXOX`.OX}./ ",
"FXDXeXNXqX;X{.'.'.'.'.'.'.'.I.Z 5 1 % $ % < w f f w 7 7 4 4 < % $ + O # # $ % % $ $ % $ $ $ 2 L [.@X=X@X@X+XOXOXOX+XOXOXOX`.+X|.",
"GXGXFXDXZXqX;X{.}.oX$X$X$X5X[.6 2 % $ $ , w Q ..Q f d w w w 4 < , O o O # % % , % $ # # # $ > L [.;X=X@X#XXX+X+X+X+X+X+XOX+X+X+X",
"HXHXGXGXFXDXwX5X5XqXNXeXNXwX] 6 , @ @ $ 3 c @.X.^ c f w d d 7 < < $ O O $ < < < < , % # # $ , L [.$X=X#X#X#X+X+X+X+XXX[.}.+X#X#X",
"KXKXHXHXGXGXFXDXDXFXGXFXFXNX/ 1 @ O @ % p } %.@.| Q d d k f w - < * @ @ * = - 3 w 7 < $ $ % , 2 ` oX=X#X#X#X+X+X+X|./ / |.#X$X@X",
"HXKXKXKXKXHXHXGXGXGXFXDXZXqXE % O O O * d X.%.O.X.v h c c k p 3 - < * * = - 3 9 w w 3 $ # % , 1 L }.@X#X#X+X+X+XXX[.g t ] %X%X;X",
"GXHXKXHXKXHXHXHXHXGXFXDXDXqX7 $ @ O O * p X.,.,.#.| v ^ ^ Q c w 3 - < - - 8 w w w p 3 % O $ > 2 2 P }.#X+X+X+XXX|.] ) m e.e.N t.",
"DXFXHXKXKXKXKXHXHXHXHXGXGXeXE $ @ O . * p O.5.d.5.:.| @.*.&.+.f 8 8 3 9 q p h p p d 3 $ O + % , 1 L ]. XOX+X#X&Xt.h.e.i i s y M ",
"eXZXFXHXKXKXKXKXHXHXHXHXHXHX<X, @ O . = v ,.d.d.g.d.%.-.3.3.*.Q 9 9 8 p h Q Q k k k 3 @ o O $ > , 2 `  X+X#X=X,X1XN i m m y y u ",
"DXZXZXGXHXKXLXLXKXKXKXKXHXHXFXE O     ; O.d.n.d.-.%.@.%.*.2.*.} j p p h Q ....^ Q c w % o O # , 6 Z P {.#X=X>X:X%Xm u m m m m N ",
"GXFXDXGXGXHXKXLXLXLXLXKXKXKXKX] @ .   8 ,.,.} d 3 3 w c X.%.$.o.b j h h p w p w d c d < o o # 1 L }..X=X=X>X:X<XF.y.r.y.y.N M m ",
"GXFXDXDXFXGXHXKXKXLXLXKXKXKXKX<X, .   9 ,.! k d 8 - * < 9 v | { ~ j 9 = & @ * = < 3 p < o o , 6 E |.|.=X>X>X>X2X3XF.F.xXy.M M N ",
"GXZXwXmXNXZXDXFXGXHXKXKXKXKXLXeX7 . . h ,.{ { b k q ; - ; q b n x h 8 = = ; 8 9 w 8 w < o O E ] L g g :X,X,X>X:Xt.N ( N M y i e.",
"FXwX9X5X9XqXwXNXZXDXGXHXKXKXKXKXi.- X l 5.{ e q 9 = * - ; a o.:.o.h ; = - = - 3 9 p d - o # ] qX] t M &X&X/ Z > O o o o O O & : ",
"NXqX5X;X;X5X5X9XmXNXZXFXGXHXKXKX0X0 = n g.#.l j k * = 8 ; j 7.C.d.l ; - 7 @ < 3 - 9 h 3 o % %Xu.) M M L % o o o O + # # # + O o ",
"9X9X5XoXoX;X;X:X9XmXCXDXDXFXHXKX0Xe ; { b.b.5.@.} k f d k #.b.tXn.o.q 8 w 3 w w 8 d v 8 @ < 2X2X) M : O o o + , 4 7 w f f f 7 , ",
"5X5X5X;XoXXX.X.X@X:X9XmXNXZXDXDXeX[ 0 { b.Z.C.g.2.*.2.4.8.b.Z.tXC.;.{ ! k k k v ~ | } 9 & w h.t.( 4 O o o $ 7 ^ &.2.a.c.j.l.=.W ",
".XXXXX.X).). X).)..XoX:X8XmXmXmXNX4.q n b.Z.Z.tXtXtXtXtXZ.Z.gXgXtX8.$.#.$.*.$.;.7.;.| 8 - _ eX3XM + o + , d &.j.m.A.A.V.M.M.f.@.",
"/.(.)./.(./..X.XXX;X5X6X9XmXmXmXmX1Xe x b.Z.Z.Z.gXgXgXgXZ.Z.gXjXtX8.O.#.8.8.8.8.;.$.| 8 0 1XcXh.< O , w ^ :.f.m.V.uXyXA.V.M.j.1.",
"(.Q.Q.(.(.).)..XXXXXXX@X;X:XMXCXNXwXQ h 8.b.C.Z.gXgXgXZ.C.tXgXjXZ.8.#.O.8.8.9.8.;.o.! ; c vXxX( @ < k @.:.3.f.m.A.A.A.V.M.m.j.p.",
"Q.Q.Q.Q.Q.Q.Q.Q.Q.Q.Q.!.(._.=XCXGXFX<.9 ,.b.C.Z.tXtXZ.b.b.b.b.b.8.;.#.O.;.8.8.8.;.| h - u.ZXh.g < d } %.:.5.f.j.V.A.A.V.m.j.f.f.",
"Q.Q.Q.Q.Q.Q._.+X!.Q.Q.Q.Q.!._.=XCXHX%X3 O.b.C.Z.Z.Z.C.b. .e z { z q q { 7.8.8.7.$.| 9 7 mXqXN r 7 d ~ %.:.5.d.g.M.yXuXuXm.g.f.f.",
"Q.Q.!.`.#X#X8XCX6X_.!.!.!.!._.=XMXHX<X- n g.C.Z.C.C.Z.Z.,.j 9 0 - = 0 o.8.8.7.;.$.! ; E CX3Xe.s w d ~ #.,.5.5.f.V.aXuXB.1.+.-.f.",
"!.!._.=X9XmXZXDXCX8X,X=X>X,X8XMXDXGX<X- a ,.b.C.b.C.C.n.| 9 9 ; - = 8 | 7.7.,.#.| k - ` %Xr.0.s w h X.:.,.,.7.f.B.k.) w w f c @.",
"!.!.`.+X:X8XNXNX8X7X8XmXCXCXMXnXnXCX2X- 8 { 5.b.b.d.{ b ~ $.;.;.o.~ h q l o.#.O.v 8 < ) M 0.e.s w k ~ O.:.,.,.>.&.f 3 d ..&.=.-.",
"_.`.+X+X=X:X7X8XmXmX8XnXnX,X=X+X=XnXqX4 - a o.d.d.l 9 h b z z z e e e 9 - 9 X.} p = * M y u 0.t w d l ~ o.O.#.| k d c &.1.@.| @.",
"=X=X:X=X:X7XmXwXZXNX8X>X=X=X=X>X,XnX9X7 * ; a O.O.0 ; q z  . .[ [ [ e 8 - - v k - & = s m 0.q.u 7 3 8 q l n ~ ~ v l k p 3 w ~ p.",
"mX8X7X8X8XCXDXDXDXnX>X>X>X>X,X,X,XnX-X6 & * ; l n 9 q b o.;.9.9.9. .x h 9 - p 9 * & r i e.0.q.0.= X * - 9 a ~ >.>.X.j p p | 5.M.",
"HXHXZXmXNXFXGXFXFXCX8XMX,X>X,X,X,XCXqX4 * * = 9 a 8 h b l e q 0 0 0 0 q 8 - ; = @ & r i 0.m q.0.: ; 9 9 8 0 X.A.uXV.a.%.%.5.V.aX",
"ZXeXqXqXNXZXFXFXZXZXGXKXCX7X8XmXNXDXNXw * & * * = = 9 n o.n q 8 ; q j a - & & @ @ @ : y u i q.0.s ; - = 3 j X.uXaXaXjXaXyXyXfXjX",
"6X6X6X7XmXNXNXNXmXmXNXNXNXMXMXCXCXMXMX/ * & & & X * 9 { 5.d.7.#.o.O.X.k = @ X @ @ & : r u 0.q.q.u - 8 p v v o.rXaXpXfXfXaXfXjXkX",
"6X7X7X7X7X7X7X7X7X7X8X8XnXnXnXnXnXnXMX*X< & X X . X - k @.5.d.d.,.%.Q 3 @ . . @ @ * y u 0.w.w.q.i p j ~ | v X.rXtXtXtXrXrXaXaXaX",
"6X7X6X7X7X7X7X7X7X8X7X8XnXnXnXnXnXnXnXnXE & X X X . & = 8 k { O.{ p - * @ . . @ @ : u 0.w.w.w.q.i h ~ $.$.~ $.rXtXtXrXn.n.C.rXrX",
"-X:X-X-X-X-X6X6X6X6X6X6X*X&X6X7X7X7X7X8X' - & X X . . X & = 8 q 8 = @ @ . . O @ = r r i q.w.w.0.0.j ! $.:.| | g.n.7.7.7.n.rXrXrX",
"].].].].[.|.&X&X|.|.|.&X|.[.|.*X-X6X2Xk.#.j = X . . . X X X . X & X .   O   @ * r y u q.q.w.w.0.q.M x o.$.~ e b ~ a x 7.rXaXuXaX",
"].].].].[.&X*X*X*X*X*X-X-X6X7XbXVXlXj.d.#.{ a * . X . .   .   . X . o       @ 3 r y i u u i q.i i i l b O.b 0 8 l $.x.B.rXaXuXuX",
"*X*X*X-X7XnXMXMXMXBXBXBXBXVXVXSX0XA.n.d.#.{ n 0 & X .       . X           . - d k s t s e.w.q.i u q.m j ~ x q e *.7.x.B.rXrXB.v.",
"bXbXbXbXBXVXSXSXVXBXVXVXVXVXMXxXpXpXS.j.,.o.{ l ; & & . .             . X = 9 f Q ^ Q ^ h.F.y.y.r.e.r.! ! ~ j l [ [ b x | 2.6.a.",
"BXbXbXBXBXVXSXSXSXVXSXSXVXlXuXpXhXdXD.m.5.O.{ n j 8 - & .     . . X & = - 9 p k ^ ....^ +.1.3XvXJXvXvX3Xl v j a 0 0 q 0 z  .f.v.",
"BXBXBXVXVXSXSXSXSXSXSXAX0XuXsXhXhXdXiXM.j.:.o.n j a 0 - & * & - = * ; 9 q q h c ^ ^ ^ ^ +....._ i.h.h.h.~ l j 0 ; e [ ;.9.8.n.N.",
"VXVXVXSXSXAXAXAXAXAXlXyXS.pXdXhXhXdXsXyXM.f.O.n l h a q 0 0 0 q 9 9 q a a a h l c v v ^ &.&.@...c h Q 1.h.v j a j  .;.;.;.5.n.m.",
"SXSXAXAXAXzXzXzXzX3XM.S.pXsXdXdXdXdXdXiXA.j.:.n l j a a a a a a a h h h h j k l l v ! X.=.-.=.&...d p d i.k.j l j z b b o.f.n.N.",
"AXAXAXAXzXzXzXlXM.N.S.pXsXdXdXsXuXiXiXuXA.m.a.X.v j a q q a a h h j j k l v l v v v ~ @.*.-.2.2.=.v q 9 p 1X1.j l b n o.5.m.S.S.",
"AXAXAXzXzXzX3Xm.N.D.pXsXsXdXdXdXfXfXfXfXfXaXyXp.| v j h a a h h j j k l v ! v v v ! } @.*.*.2.3.p.@.h 9 9 f 0Xi.l b O.d.v.V.A.V.",
"zXAXzXzXlX3Xm.S.D.pXpXsXiXiXsXfXhXjXjXjXjXjXaXv.*.} ! v l j h k j k k v ! ! ! v v ! } @.*.*.4.p.p.3.} a 9 9 i.LXk.! o.:.3.3.a.p.",
"zXzXzXlXM.N.S.D.D.pXiXiXiXiXiXfXhXjXjXjXjXjXyXc.6.@.} ~ ! x l k k k l v ! ! ! ! ! ~ X.*.*.@.*.3.3.p.-.v q 9 f JXPX0X=.^ ^ ~ } ! ",
"zXzX3Xm.N.S.S.S.D.iXiXiXsXuXiXfXfXjXjXjXjXaXB.s.4.&.| ~ ! v l l l k l v ~ ~ ~ ~ ^ | &.*.*.*.*.*.2.3.3.X.h q q 4XPXPXPXvX0Xt.h j ",
"zX3Xn.N.S.S.S.D.D.iXsXsXiXuXuXaXfXhXjXfXaXV.l.6.2.*.@.| ~ ~ ! ! ! v v v ~ } } } } &.&.*.2.6.p.3.%.%.2.-.v a q ' PXPXPXPXPXvX^ j ",
"yXn.N.N.S.S.D.D.iXsXsXsXiXuXuXsXfXfXfXaXyXc.6.6.4.4.4.*.| ~ ! ~ } } ! } | | | | | &.4.6.a.s.l.a.-.%.*.-.X.h a c JXPXPXPXPXPX0Xk ",
"n.N.N.N.S.D.D.pXiXsXdXsXuXuXuXiXfXfXaXyXc.6.4.4.4.4.6.4.&.X.} | } } } } } | | +.@.*.2.6.l.x.l.l.p.>.-.%.%.v h d 4XPXPXPXPXPXPXi.",
"N.N.N.N.S.D.pXsXsXsXsXaXyXyXyXiXaXaXuXB.a.2.-.*.4.s.l.x.6.6.2.@.X.} } } } } | @.2.2.*.s.x.x.g.z.g.a.3.:.%.} k h t.PXPXPXPXPXLX<X",
"S.S.S.S.D.pXsXsXsXsXiXuXA.A.yXuXuXuXV.v.a.4.2.=.4.s.l.v.B.x.s.2.*.X.| } } +.@.@.*.4.6.s.s.l.x.z.g.g.d.>.%.X.k h _ PXPXPXPXLX4Xu.",
"pXpXpXpXsXsXdXsXsXiXiXA.A.A.A.yXA.V.m.c.p.2.2.2.6.s.l.B.B.x.x.s.4.*.+.} X.*.*.*.&.4.a.s.s.a.x.g.g.g.d.3.:.@.c h _ PXPXPXLX1Xu.u."
};
