/* XPM */
static char *IMG_20221023_WA0007__1_1666533630[] = {
/* columns rows colors chars-per-pixel */
"64 64 241 2 ",
"   c #0C0D11",
".  c #0E1216",
"X  c #0C1019",
"o  c #141415",
"O  c #1B1514",
"+  c #1C1916",
"@  c #141619",
"#  c #1A161A",
"$  c #16191C",
"%  c #1B1A1C",
"&  c #171916",
"*  c #16100F",
"=  c #231D1C",
"-  c #231918",
";  c #341A1D",
":  c #1E211F",
">  c #24221E",
",  c #2A221E",
"<  c #262818",
"1  c #34261E",
"2  c #1D1D22",
"3  c #171F22",
"4  c #211E22",
"5  c #291F20",
"6  c #3D1E23",
"7  c #1E2224",
"8  c #1F2728",
"9  c #232424",
"0  c #2B2523",
"q  c #252924",
"w  c #2B2A25",
"e  c #24262A",
"r  c #252A2C",
"t  c #2B2B2C",
"y  c #28272C",
"u  c #332A25",
"i  c #3C2C25",
"p  c #342D2B",
"a  c #3A2E2B",
"s  c #392423",
"d  c #3C322C",
"f  c #32322D",
"g  c #262A33",
"h  c #2B2D34",
"j  c #2C2E3A",
"k  c #252A35",
"l  c #332F32",
"z  c #2D3135",
"x  c #2E323C",
"c  c #2F383F",
"v  c #333335",
"b  c #32343C",
"n  c #35393C",
"m  c #3B3B3D",
"M  c #3C3534",
"N  c #432B29",
"B  c #43342D",
"V  c #48382D",
"C  c #423633",
"Z  c #443A34",
"A  c #4B3C35",
"S  c #453B3B",
"D  c #4C3D3A",
"F  c #493534",
"G  c #533D3B",
"H  c #553938",
"J  c #4B3131",
"K  c #4E423C",
"L  c #484536",
"P  c #53443C",
"I  c #5A433C",
"U  c #5B4A3D",
"Y  c #554337",
"T  c #595A39",
"R  c #614A3E",
"E  c #2F3841",
"W  c #333541",
"Q  c #353943",
"!  c #3B3C43",
"~  c #3C3E49",
"^  c #5B3D40",
"/  c #433E41",
"(  c #613E42",
")  c #3E4247",
"_  c #424244",
"`  c #4C4443",
"'  c #44454B",
"]  c #4B4C4D",
"[  c #484949",
"{  c #524542",
"}  c #544944",
"|  c #5B4B44",
" . c #544C4C",
".. c #5B4D4B",
"X. c #5A4444",
"o. c #4C504D",
"O. c #5C514B",
"+. c #58534A",
"@. c #4A4C52",
"#. c #4D5254",
"$. c #525454",
"%. c #5D5452",
"&. c #565A5C",
"*. c #5B5C5C",
"=. c #565759",
"-. c #574E50",
";. c #634D44",
":. c #634D4A",
">. c #684A48",
",. c #63534B",
"<. c #6C544A",
"1. c #695447",
"2. c #71544B",
"3. c #725B4D",
"4. c #6A4D51",
"5. c #635452",
"6. c #6C5553",
"7. c #635954",
"8. c #6C5B53",
"9. c #6D5D59",
"0. c #625C5A",
"q. c #745B53",
"w. c #735D5A",
"e. c #7A5E5B",
"r. c #765955",
"t. c #5D605E",
"y. c #69635C",
"u. c #73635C",
"i. c #7C625C",
"p. c #7D6B5C",
"a. c #766458",
"s. c #747456",
"d. c #5C5E62",
"f. c #585C64",
"g. c #6E5E62",
"h. c #5C6364",
"j. c #5E6669",
"k. c #626465",
"l. c #6C6A65",
"z. c #636669",
"x. c #656A6C",
"c. c #6B6C6C",
"v. c #686765",
"b. c #776964",
"n. c #72726E",
"m. c #7B7468",
"M. c #656D71",
"N. c #6B6E71",
"B. c #696B77",
"V. c #6C7274",
"C. c #6E7678",
"Z. c #727575",
"A. c #73767A",
"S. c #757A7B",
"D. c #7A7C7C",
"F. c #777876",
"G. c #6E706D",
"H. c #83675D",
"J. c #89705F",
"K. c #866A66",
"L. c #936E68",
"P. c #84746C",
"I. c #89766A",
"U. c #96756C",
"Y. c #887B75",
"T. c #957C76",
"R. c #7D817D",
"E. c #83837E",
"W. c #8B857C",
"Q. c #97827B",
"!. c #979775",
"~. c #A1887E",
"^. c #A6A77D",
"/. c #7B7E81",
"(. c #767B81",
"). c #7C8282",
"_. c #7B8389",
"`. c #838583",
"'. c #848A85",
"]. c #848689",
"[. c #868B8B",
"{. c #8A8C8B",
"}. c #8C8984",
"|. c #978985",
" X c #8C928D",
".X c #92948D",
"XX c #9A948A",
"oX c #898D94",
"OX c #8D9293",
"+X c #8D959B",
"@X c #939594",
"#X c #9B9A95",
"$X c #959A9B",
"%X c #9A9C9B",
"&X c #969796",
"*X c #A48C85",
"=X c #A8968A",
"-X c #A79B95",
";X c #B49C91",
":X c #9CA29C",
">X c #A9A29A",
",X c #B4AC96",
"<X c #999DA5",
"1X c #8D93A1",
"2X c #9DA2A4",
"3X c #9CA1AB",
"4X c #9BA1B1",
"5X c #A2A5A4",
"6X c #A7A9A9",
"7X c #B7ABA4",
"8X c #ACB2AA",
"9X c #B8B1AB",
"0X c #A7A9B3",
"qX c #ACB1B8",
"wX c #B5B9B5",
"eX c #C8B7A9",
"rX c #D2BCB5",
"tX c #C9B7B0",
"yX c #C1AA9C",
"uX c #BBC1BB",
"iX c #C8C3BC",
"pX c #D7C6B8",
"aX c #CFCEB0",
"sX c #E2CDBC",
"dX c #C5C59F",
"fX c #B8BBC4",
"gX c #AFB7C1",
"hX c #BCC1C8",
"jX c #C5C7C7",
"kX c #D8CDC6",
"lX c #DCD2C7",
"zX c #D5D4D6",
"xX c #E3D6CA",
"cX c #E4D5C6",
"vX c #E7DCD4",
"bX c #E2CFCA",
"nX c #EAE2DA",
"mX c #F1EAD5",
"MX c #F3ECE6",
"NX c #F2EEEB",
"BX c #DDE3F3",
/* pixels */
"b x j b W b W W j W W W W Q Q ~ / ~ W b W m b b ~ _ ) [ *.}.{.{.{..XE. X X X:X@X X X X X.XR.R.:X.X8X!._.8X.XR.8X.XR..X_.R. XR.R.",
"b x x x x j j j W j j W W Q W ~ / ! W W b x b h v n n z @.D.`.D.`.`.D.`.'.[.:X X_.R._. XR.R. XaXuXuXuXuXuXuXuXuXuXuXuXuX8XuX:X.X",
"b j j b j W W j j W j W W W W W Q W W W b W b n z n ! n ] A.F.A.F.Z.F.S.R.R.[.[.R.R.C.R.s.o.t.R.!.uX:X.X:X:X:XuX5X:XuXuXuXuXuXuX",
"b j j j j j j j j W W j W W W W ! Q Q W b W b b n n z n  .A.n.D.S.c.A.Z.C.C._.R.C.R.V.R.#._ [ $.M.:X XR.2X.XR.5X:XR..X:XR.:X8XR.",
"j j j j j j j j k W W W W W W W ~ ~ Q W b ! W m b ! b l ] N.v.].A.]./.z.$XOXOXS.M.C.V.R.&.) o.#.R.R.R.V.:X XM.[._.R._.2XR.R._.R.",
"j j j j j j W j j W W W W W W W Q ~ Q Q / W m [ _ $.v.@.N.{.%XjXqXwXjXqXhXhXhX[.V.M.M.).t.) o.#.R.R.x.G.R.R.h.C.R.R._._.R.R.R.R.",
"j j j j j b W W W W W W W W W W ~ ~ m W / ! ' c.c.`.wX6X9X9X6XqX0X0XwXhXwX0XjXhX XV.j.R.&.) #.#._.8XM._._.G.C.:XR.R.R.M._._.R.j.",
"j j j j j x j j k j W W W ~ ~ ~ ' ~ b ! @.#.Z.8X#X}.7X&X@X&XOX{.].Y.N.{.F.t.{.zXuX.XR.R.h.) o.$._.2XR._.6XM.R.8Xj.R.2XR.R.3XR.j.",
"W j j j k W k W j W k W W W / / @._ m v.#XE.>X>XW.W.XX8XiXjXkXzXzXzXjXqX#Xn.y.#XwXjX5X'.t.[ o.t.R.R.).). XC.R._.R.R.2XR.R._._.R.",
"j k k k j j k j W k W j j W / f.d.z.OX6XwX9XXXXX7XwXsXvXmXMXNXNXNXNXNXMXMXzX8X#X#X,XwXY.t.o.+.k.'.5X).).R.R.C.[.R.j.R._.R.h.R.R.",
"j j k k j j j j k j j W W W / f.k.:XiX8X>X7X,XtXsXxXnXvXnXmXMXMXNXNXNXNXnXnXnXlXsXiX>XE.%.[ $.%.R.qXR.R.:XZ.C.6XR.j._._.R._.R.j.",
"j g k k k k g j j W j j W W W =.k.5XuX>X=X>XeXpXcXcXvXlXxXvXvXnXMXnXnXvXnXlXcXcXlXmXlX-X%.L } $.v.{.F.V.8XZ.x.:XR.j.qX_.R.2X_.j.",
"W W W b W W W W W W x Q / / / /.E.c.-XXX=X7XeXpXpXsXsXsXcXkXkXkXbXkXkXrXkXpXpXsXxXcXlXlX9X+.K o.D.V.z.z.R.M.M.C.j.j._._.h.j.M.j.",
"h x x x x x W W ~ ~ ' / / @.! B.F.$.c.b.W.yXyXeXeXeXaXeXeXeXeX9X6X>X-X-X7XyXyXpXpXaXsXpXlX>X%.{ 5X X*.).).&._.@Xh.R.M.M.R.R.f.R.",
"g r g g g h j j k j ' ! / k.=./ _ ] *.y.I.=X;X^.;X~.=X=X;X>X-X-X7XtXkXbXkXrXrXrXeXpXeXeXpXkX|.` @XOXh.$X2X&._.$Xj._._.R.R.3Xj.R.",
"h j g h h j j h j b / ! ' d.A./ ) L +.7.u.m.Q.J.H.3.H.I.Y.W.*X7XkXvXnXMXvXcXcXcXsXpXpXpXeXtXeXb.k.x.z.)._.M.M._.M.R.3Xj._._.j.f.",
"h z y h h h h l y ' ] / [ @.d./ ' ' `  .%.7.7.7.,.1.8.s.a.W.7XkXxXMXvXnXnXvXlXcXsXsXsXsXcXrXeXXXY.].z.N.z.M.x._.M.V.R.C.M.h.V.j.",
"r r h h h h l y v m _ *.0._ [ / _ _ [  .$.+.{ P U +.8.8.I.7XkXkXiX9X5X&XD.Y.-X7XpXeXpXsXsXpXpX7X.X6Xd.D.1Xh.S.qXM.M.).k.x.:XM.M.",
"v z n n W b m / v S m o.d._ n ' / _ [ ]  .[ L Z Y ,.7.u.=X7X-XQ.g.-.` C M Z X.b.=X;X;XyXeXrXbXrX-XOXk./.6Xj.C.3Xh.G.8XV.M.:XM.M.",
"r t n v n b y / m m f f _ S m _ ) _ [ [ ] } ` { +.,.,.p.Q.W.7.,.0.%.5.-./ A D ..U.~.~.~.*X*X7X9X5XY.c.z./.N.V.x.x.j.@XC.j.R.M.M.",
"z y j l y /.].}.d.t t q 0 y W C _ _ K ' } ....%.8.,.y.u.8.5.5...-.-.-.-.` -...6.I.W.I.I.Y.w.} 9.g.n.z.A.N.z.+X/.z.x.z.N.R.S.&.M.",
"z 0 j W 2 fXBXqX*.> w e 9 y l W _ ) m _ ] ..%.0.8.8.3.<.:.| X.A F / ^ -. .} X.0.P.Q.P.K.9.` C a C -.0.6XOXd.%X<X&.{.].k. X:X&.V.",
"t t k y # (.5X/.! e e 2 y y j / ) m / _ [  .%.y.q.8.1.| ,.X.F a a l g.OX0.S -.5.Y.Y.eX7X5.^ -.-.5. .-.&X].d.(./.&.+X$X&.).].h.(.",
"g ' @.@.g.@.d.d.l g 9 9 e e j W m / m S _ { O.u.y.8.8.1.| G F N a p g.>Xb.` ..O.b.XXMXNX9X@.^ ^ 0.g.d.v.z.c.B.B.z.A.V.x.x.x.f.V.",
"r fX0X[.zX4X(.(.k 2 2 2 2 k e k n m n m S / 5.y.u.q.8.1.:.I H G ^ M X.b.b.:.X.9.g.tXMXMXMX;X^ -.} } 0.F._.h._.2Xh.C.R.h.V.+X&.M.",
"e _.(.(.0X<X(.f.k 2 2 2 # 4 2 k v n v v m S 5.9.w.8.8.8.2.4.6.6.6.4.6.w.w.b.b.b.K.7XvXbXnXbX*Xg.W.} { }.:Xh._.:Xh._.8Xh.M.6Xh.M.",
"g j ' gXfX0XgXj.k 2 2 2 # 2 2 2 y g t f v Z ..9.w.a.q.q.e.b.H.e.K.K.K.K.L.U.T.L.K.7XkXrXrXrXyXH.P.b.} G.R.x.M.j.h.V.$Xh.M._.h.M.",
"g y j 1X0X1X4XB.k 2 2 2 2 4 2 2 2 9 e l v M } ,.u.a.p.a.e.e.H.H.K.K.L.U.U.U.U.r.( yX;X*X~.T.*XT.q.u.O.n.l.G.OXV.h.j.C.x.R.h.h.h.",
"h h ) qXgXqX0X~ 2 2 # 2 2 4 4 4 % 7 e y p C ` :.<.a.a.a.H.H.H.H.H.L.L.L.U.U.U.H.;.K.>.( 4.4.H.T.T.b.8.=XY.d.6X_.h.$XR.k.$X[.t.R.",
"h y n 2X0X3X<X) k 2 # # # 4 # # 2 $ 4 9 y M K O.;.1.3.3.2.2.H.H.H.L.L.L.L.U.U.H.( X.N K.T.>.2.r.Q.T.b.|.P.l.].S.h.2X'.k.+X_.h.oX",
"t r z ) / ' ' j 4 2 # 4 6 j ; # 2 $ 7 4 5 a F X.| ;.1.<.R 2.3.r.H.H.H.L.L.H.L.L.e.4.>.Q.~.4.2.r.T.*XT.Y.b.Z.c.Z.j.Z.Z.N.c.V.M.R.",
"n n v z j e j 8 2 # # j / / / l 9 = 9 4 = 5 u A | U ;.<.3.3.3.H.( H.H.H.H.H.H.L.K.e.Y.K.6.( >.>.r.T.*X|.W.l.:X&Xv.S.D.c.).OXh.G.",
"8 8 r h y y h 2 @ O 5 { } ^ F H Z M a p = = u i K K U | 1.<.<.2.H.2.H.H.e.i.r.6.e.P.b.w.4.( ( H ( 4.~.~.}.Y.}.@X*.@X2Xh.OX$X*.E.",
"r e e w r y h 9 O # 5 -.5.>.r.( F P P K a , , , d A I U ;.1.1.<.H.( r.r.r.e.:.I :.9.4.w.4.^ ^ ^ ( 4.K.T.T.Y.l.n.k.D.OXz.S.A.v.S.",
"e 8 9 e e e y 4 o O 5 5.5.6.H.>.H A P ..S , = 0 p V Y K I | ;.;.( 2.2.2.a.q.G i F X.:.6.4.^ J ^ ^ 4.r.L.T.Y.|.c.c.M.C.C./.c.k.*.",
"9 7 e e e y g 4 # o 5 %.6.r.r.r.H V P 6.} u 0 0 0 d C V A A D Y ( R ;.>.8.;.B s a H :.6.4.e.4.6 J ( 4.6.T.Y.>Xn.x.&XV.M.6XD.=.E.",
"9 9 e 7 7 e e 2 # # O D g.>.H.4.Y H Y 1.O.d , = > w a d C B B V A K K Y | K s N H | :.s ; 6 ^ ^ ^ ( H J g.Y.n.l.k.2XA.d.oXZ.*.6X",
"e 9 e e e g 8 e 2 X O = 0.4.e.>.R R Y V | Z > 0 > 0 w p d d i d d C B Z A C i L ;.5.w.X.^ ^ J 6 ^ ( ^ J  .b.F.z.z.B.z.j.z.z.k.S.",
"z t n z z x j j g # # * F 6.e.4.R q.2.I :.{ 0 = > 9 e w p p u p p d d f C C i L ..X.K.e.^ 4.g.J ^ r.4.J D -.&XY.h.D.M.d.]./.*.v.",
"z j v j x x x W j j * # - X.e.w.3.q.q.3.,.{ u + = 4 9 9 q u 0 0 0 w p w d B B B ^ ^ g.g.g.( J J ( e.4./ C / `.A.$.2X/.&.%X/.=.].",
"x n c z x c x E E E h @ + + ^ 9.2.<.;.;.V P a o % % 9 2 % 9 > > > 0 0 0 u u a F | { G b.I.K.4.^ 4.e.w./ C f *.z.&.A.c.*.N.V.$.oX",
"h h z x Q E E E E z Q 7 o O - ; N N i i 1 Y C - $ $ % 3 % % > : : 9 % 9 0 u u C :.| H H >.H.K.K.H.e.b.^ p l k.h.h.h.z.k.D.d.&.d.",
"x Q Q c Q c x x c z Q r . 4   O O ; 1 i i D L 0 + & $ $ $ % % & $ 2 % = 4 5 0 a { :.:.H 6 N H H >.4.w./ 0 t &.z.c.$X*.n.6Xd.Z.N.",
"c Q Q c c E c c c n c z 2 # O # * O ; A D Y Z a % $ @ $ $ $ $ % & % # % - = = 0 { 5.9.w.( J N N ^ 6.5.Z 0 y ] z.c.@Xv.d.`.x.V.2X",
"r g r e r r r r r g r z 2 @ # @ @ * + A | P K C 9 # @ @ $ & @ & @ # $ @ $ + 4 9 l ..b.b.K.K.H.4.r.w.5.a e e [ k.v.k.x.t.d.z.k.C.",
"g r h h t r r r 9 : 8 r e 2 2 @ . @ + S O.| P A u % # $ @ @ @ + @ & # @ # $ % % = l { 8.b.P.I.I.K.e.6.0 % 9 &.z.c.'.v.v.@Xc.k.z.",
"r r y y t w w t f q t r e e $ @ X X $ S ,.| P L d 9 $ $ $ @ @ @ @ @ # @ o @ $ % 4 > = C | q.p.K.K.8...w 9 7 ] h.z.%XG.y.#XV.j.:X",
"z n v w y t t w q q w q > e # o 3 .   M 7.O.| G d 0 & o @ o o @ @ & @ @ o @ $ $ o = 0 u C { 8.u.,.K s > > 7 t #.k.Z.l.G.k.j.h.).",
"].o. X5Xe h l 0 w t q < L L L w   $   >  .,.| G C , + * o o @ @ o @ o @ # & $ + + + = = u n K ` S 0 > % $ + 9 _ *.y.y.F.R.*.x.h.",
"$X].].8X#.9 e t < w p !.dXaX!.L .   @ & S ..5.Y d , + + o o . @ @ @ @ @ o & & $ + $ # % 2 9 e 9 % 9 9 $ # # 2 S [ G.*.E.&Xk.C.S.",
"N./.N.S.=.w w y f < +.aX^.dXmXs.: $ * & a ....A N , < o o o . . X $ @ o o o o $ % % 2 2 4 9 4 4 % # % % 9 9 % v v l.l.n.D.k.D.OX",
"].].].A.=.t e q < < s.!.T T dX!.n.x.o * 0 { | P L u < O o o o o . . X o @ X X @ $ # % % % % % % % & % 9 2 9 9 w m l.G.G.F.n./.Z.",
"%X<X].].] e e w f < +.,X^.!.!.!..X.Xf * - { +.| P Z u > O * & & o . . . @ . . . @ @ @ o o o o o & $ % $ : 9 9 f *.#Xn.E.%XE./.D.",
"@.%.[ _ y 9 w 0 < < < !.cXdX!.R.#X&X=.> - L | | P P Z d < - = & # @ . . . . . @ X X o @ & o o @ & % o $ 9 2 9 S n.%XE.E.&XD.E.5X",
"y 9 0 : y y e e q q : f l.s.T L #.$.] p - B } Y P P } Y B d s 1 , > + * *   X @ @ @ o @ o o o o * & & % 7 e _ *.Z.D.D.E.`.`./.@X",
"0 0 9 w y w 9 e 8 r r : q q < < e 9 > q + u Y +.U U U U U P Y C i u 1 > o o o o o o o . o o & + o & : : 9 $.].S.}.'.E.@X|.`.`.`.",
"q q q w 8 r 8 8 r 8 8 e e e e y e 8 e 9 , , K K U U R R R 1.1.T L V i 1 < < O O + o & & * o o O % > 9 l *./.+XY.5X@XE.&X#XE.&X.X",
"q w < > q 8 8 g 8 r r e e e e e e 8 9 9 > 0 U +.U 1.1.R R R 2.R R U V B i 1 , 1 > < - + + O % p w t } z.D.].D./. X'.`.E.'.'.#X%X",
"q w q q q 8 8 8 r 8 8 q q 9 7 9 7 7 r 9 : > } +.O.1.R 1.R 3.<.3.3.1.T Y V V N i u u 1 < 0 0 a +.7.y.|.&XE.@X{./.).`.R.{..XE.`.{.",
"t q 8 r z q k k r q 8 q 8 7 9 r 8 r q 7 q n *.7.y.y.8.3.3.3.3.<.3.3.3.1.R U L V V V V V Z Z P b.m.W.#X>XE.%X%XD.OX@XR..X>XE.{..X",
"r x Q g 3 8 3 k k 8 8 8 r z r : e 9 9 z o.h.Z.z.7.y.l.a.8.8.y.u.u.u.a.a.a.3.1.T U U U U +.1.a.m.m.F.W.W.].{././.].@X`.'.[.R.@X%X",
"z &.+X3X(.#.) ) ) z g 8 r r n [ m ! ] k.C.S.Z.N.G.k.%.0.v.l.v.y.p.b.s.p.p.J.p.a.3.R 3.a.a.p.m.J.Y.P.W.}.Y.OXD.].S.{.'. X}.'.{.{.",
") ) j.hXgX4X4X_._._.B.#.E x ) &.*.d.x.V.V.C.V.V.V.Z.A.c.v.t.j.v.v.l.u.l.p.J.p.p.s.H.J.J.J.I.Q.I.I.W.-XXX`.-X@X].%X@X.X5X%X@X&X@X",
"BX1Xk j.gXhXhXhXgXgX4X+X+X_.B.@.m [ #.#.&.M.C.V.M.B.N.A.S.V.M.x.l.l.l.p.l.p.p.p.J.H.J.J.J.I.I.Q.Y.}.=X|.W..X{.].2X&X`.5X#X.X5X%X"
};
