/* XPM */
static char *us_ult1666530941[] = {
/* columns rows colors chars-per-pixel */
"64 64 255 2 ",
"   c #160A0A",
".  c #370E0B",
"X  c #242323",
"o  c #282626",
"O  c #292827",
"+  c #2C2A2A",
"@  c #3B2C22",
"#  c #322D2D",
"$  c #37312E",
"%  c #363131",
"&  c #3C3433",
"*  c #3D3A39",
"=  c #561610",
"-  c #6B140F",
";  c #713318",
":  c #413736",
">  c #433837",
",  c #453A39",
"<  c #493D3C",
"1  c #513835",
"2  c #6F3828",
"3  c #4D403F",
"4  c #5A4437",
"5  c #52423D",
"6  c #664738",
"7  c #764C31",
"8  c #4E4241",
"9  c #484544",
"0  c #524543",
"q  c #5A4744",
"w  c #554846",
"e  c #5B4945",
"r  c #554A49",
"t  c #5B4D4B",
"y  c #5C5040",
"u  c #5D504D",
"i  c #5E5352",
"p  c #634D47",
"a  c #624E4A",
"s  c #734F4C",
"d  c #625442",
"f  c #65514C",
"g  c #6A544E",
"h  c #785748",
"j  c #615654",
"k  c #6D5651",
"l  c #655955",
"z  c #6A5A57",
"x  c #755B54",
"c  c #755C56",
"v  c #785D56",
"b  c #776748",
"n  c #6D625D",
"m  c #77635A",
"M  c #6C6362",
"N  c #746967",
"B  c #7A706E",
"V  c #7E7675",
"C  c #960E0A",
"Z  c #8A170F",
"A  c #B11B0A",
"S  c #9A2A09",
"D  c #9B3707",
"F  c #8B2C16",
"G  c #982916",
"H  c #973713",
"J  c #A5290B",
"K  c #B92A08",
"L  c #A73706",
"P  c #A33B02",
"I  c #B7380A",
"U  c #AA2A18",
"Y  c #A93516",
"T  c #B43A16",
"R  c #953424",
"E  c #AE392B",
"W  c #C53A06",
"Q  c #D43809",
"!  c #E03D06",
"~  c #994311",
"^  c #A94405",
"/  c #B44503",
"(  c #A74918",
")  c #BA4516",
"_  c #B05514",
"`  c #B55616",
"'  c #90502A",
"]  c #885438",
"[  c #B84824",
"{  c #B0502F",
"}  c #A16223",
"|  c #B26C2B",
" . c #A47738",
".. c #C84606",
"X. c #D44A04",
"o. c #DA5505",
"O. c #C74A17",
"+. c #CB5412",
"@. c #D85618",
"#. c #E85901",
"$. c #F75A09",
"%. c #E95512",
"&. c #D46E16",
"*. c #D86918",
"=. c #EA6709",
"-. c #F96907",
";. c #EE780F",
":. c #F9740C",
">. c #FC7C0B",
",. c #E56818",
"<. c #F8691A",
"1. c #E77718",
"2. c #F97A16",
"3. c #D05429",
"4. c #E65C22",
"5. c #CA6A23",
"6. c #CD6C2C",
"7. c #D97827",
"8. c #D7693B",
"9. c #C97639",
"0. c #D87933",
"q. c #E9662A",
"w. c #E87826",
"e. c #F87A27",
"r. c #E97A37",
"t. c #F07036",
"y. c #8B5848",
"u. c #B35B48",
"i. c #8D7254",
"p. c #977958",
"a. c #B16E50",
"s. c #8D716B",
"d. c #857B79",
"f. c #AD7568",
"g. c #A67876",
"h. c #CD754F",
"j. c #DA7849",
"k. c #E17D46",
"l. c #BC8033",
"z. c #FD850E",
"x. c #E7841F",
"c. c #FD8213",
"v. c #FC831B",
"b. c #FA8918",
"n. c #FD8C1B",
"m. c #FD921B",
"M. c #FC981B",
"N. c #FDA51F",
"B. c #CB852D",
"V. c #D9853A",
"C. c #FB8828",
"Z. c #FD9422",
"A. c #FD9C23",
"S. c #FB9728",
"D. c #E88B32",
"F. c #F78B38",
"G. c #FB9937",
"H. c #FCA625",
"J. c #FDA32A",
"K. c #FDAC2C",
"L. c #FDB528",
"P. c #FCA937",
"I. c #FCB736",
"U. c #FDC22C",
"Y. c #FDC739",
"T. c #FDD73C",
"R. c #FDE23E",
"E. c #B4A058",
"W. c #938A73",
"Q. c #B18A74",
"!. c #D3874C",
"~. c #F88A45",
"^. c #EE904D",
"/. c #F99A48",
"(. c #E98656",
"). c #EB9759",
"_. c #CBB24D",
"`. c #FBA846",
"'. c #EBB54A",
"]. c #FAB748",
"[. c #F9A659",
"{. c #FBB857",
"}. c #D08F70",
"|. c #EE9B6B",
" X c #D5AD70",
".X c #F8A868",
"XX c #F9BA67",
"oX c #EBAD77",
"OX c #F7B676",
"+X c #DDC65C",
"@X c #E8C04F",
"#X c #FCC847",
"$X c #FCD646",
"%X c #FAC657",
"&X c #FCD55A",
"*X c #FDE745",
"=X c #FDF34D",
"-X c #E6E159",
";X c #FCE757",
":X c #FCF859",
">X c #D3CF6C",
",X c #FAC968",
"<X c #FADB66",
"1X c #F9C877",
"2X c #F4D770",
"3X c #FAE969",
"4X c #FCF766",
"5X c #FDFC6C",
"6X c #FAE57A",
"7X c #FCFC74",
"8X c #FCF87B",
"9X c #918B84",
"0X c #9D8A8A",
"qX c #AD9389",
"wX c #A69696",
"eX c #B59897",
"rX c #B0A698",
"tX c #BAA6A6",
"yX c #C79889",
"uX c #D9A789",
"iX c #CDAD95",
"pX c #DCB49A",
"aX c #E4A985",
"sX c #E7B786",
"dX c #EEB589",
"fX c #E2AD99",
"gX c #E7B794",
"hX c #C9B8AF",
"jX c #D7B4A4",
"kX c #CDC991",
"lX c #F7C885",
"zX c #F4CD8D",
"xX c #F7DC96",
"cX c #F9E886",
"vX c #FAF886",
"bX c #FCFC8B",
"nX c #E7E693",
"mX c #F8E895",
"MX c #FCFC94",
"NX c #FAF99A",
"BX c #CDC3B5",
"VX c #F1CDA4",
"CX c #FCFCA3",
"ZX c #FAF8AA",
"AX c #EFE8B2",
"SX c #FBFBB8",
"DX c #D5C5C3",
"FX c #D3D0C7",
"GX c #E7D4C9",
"HX c #EBEAC7",
"JX c #FBFBC8",
"KX c #ECEBD3",
"LX c #FBFBD9",
"PX c #F6F3E5",
"IX c #FBFBFA",
/* pixels */
"X X X X X X X X o o % # % > > & # X X X X X X X X X X X X X o + & > < < < 3 3 < 3 < , & % o o # % , w * & # X X X X X X X X + # ",
"X X X X X X X X X o # % & > > % # o X X X X X X X X X X X X X # & > , < < 8 3 < < < < & # o o # & , 9 3 , X X X X X X X X + % o ",
"X X X X X o o X X X # * , < > : # + o X X o + o o o o o O O + # & , < < < r < < < 3 < & % + + # & r r < # + o X X X X o 9 * % + ",
"X X X X o + # # # # # & , r < : % # # # # # # # # % # # # # $ $ : , , < < w 3 < 3 < < * & # # & < w w : & # # # + + # , 9 0 * * ",
"X X X + # % $ & & & & & < 3 w t * & & & $ $ * $ & & % & * $ & * > , , < 0 0 < < < 3 < < > & & , 9 r < , * & % & & % j j i 8 q 0 ",
"X   o + $ & > > > > > > > < r 8 i > > , 3 * 3 3 , < 3 3 w u r r 0 9 < < 0 9 8 < 8 3 8 3 , , < 9 r w < , , , , : , , t j q f k k ",
"X O + # & > < , < < < < < < < 8 r t 3 > > 3 3 3 0 N W.qXrXrXrXrX0XW.V n r 3 0 < 8 < 3 8 < < w i 0 8 < < < < < < 3 t a q f k x x ",
"+ + # % : , < < , < , < < , < , 9 r y 3 > 3 N W.kXAXJXLXLXLXLXLXLXKXFXDXrXd.l 3 8 3 3 0 < j u w r < < < < < < < j i < q f x x v ",
": $ : : > , < < < < < < < , < < 3 3 y u l W.kXZXCXNXMXMXMXCXZXSXJXJXLXPXPXGXhXW.i 3 3 3 r t i < r < < < < < < i z < 3 q a k v v ",
"t : : , , , , , < < , 1 < < < , * 3 9 W.kXNXNXvX7X5X5X5XvXbXMXMXZXJXJXLXJXJXJXHXhXB 5 M l i 9 0 8 3 < < < < r z 3 < 3 q a x x v ",
"5 j < , , < < < , < < , < < < , 9 5 b kXnXMX8X4X:X=X=X:X:X7XvXbXNXSXSXSXZXZXZXSXJXFXrXl u 0 3 u 3 < < 3 < 8 N 0 , < 8 q a x v x ",
"8 t t < < , , , , < < < < < < < 5 B >X8X8X7X4X-XR.*X*X=X:X4X7X7XMXCXCXZXNXMXMXMXNXSXAXrX0 8 9 0 8 < < < < M j < < < 3 q f k v v ",
"< 3 t t 3 , 3 , > 3 3 * < < < 8 N >X5X4X=X=X*X&X<XT.T.*X=X=X:X5X7XbXMXMXbXbXbXvXvXNXSXAXW.9 i w 8 < 8 < M M < < < < 5 q f k x v ",
", < 8 r i 3 , 3 3 > 3 3 < < 3 h _.:X:X:X*XT.T.$X<X,XY.T.$X*X=X4X:X5X7X7X5X5X7X7XvXbXbXCXnXN u w < 0 8 M M < < < < < 3 q f x v x ",
"> > , < i i 3 3 3 > 3 3 3 3 y E.:X:X=XR.R.T.Y.Y.U.#X%XU.U.T.T.*X:X=X:X4X:X4X:X7XvX7X7X8XCXkXy 9 8 3 r d.3 < < < < < 5 q p x x v ",
"& & & & > r i t > 3 3 3 3 5 b -X=X*XR.T.T.U.L.I.L.K.I.%XL.L.L.U.#X$X$X*X;X=X:XmX5X:X5X5X8XNXm y 8 8 d.< < < < < 3 < 3 q a x v x ",
"+ # # & : < t z M < < < < d _.;X$XT.T.Y.U.U.L.N.H.M.M.J.{.Z.N.H.K.I.I.T.$X;X3XcX4X4X:X:X5XMXE.u 0 d.8 8 8 < 3 0 < < 8 e a k v v ",
"o X + # & > < 8 u M < , 5 b #XT.T.Y.Y.U.L.H.M.M.n.n.n.m.n.XXG.P.Z.J.K.K.U.<X3X&X;X3X3X:X7X8X-Xb d.0 8 8 < 8 8 < < < 8 e f x x v ",
"o X + # & > < < 5 B M 3 4 E.Y.L.I.L.L.H.H.M.M.z.e.v.2.Z.n.n.[..Xm.M.A.J.{.,X&X;X3X3X;X:X8X:X-XW.j 8 8 8 0 0 3 3 3 3 0 e f x v v ",
"# # # & : , < 3 0 q n V f _.L.L.L.P.N.N.M.b.v.;.w.e.2.e.c.c.n.F.OXm.J.I.1X#X&X3XcX6X-X3X3X:X5X Xg r r 0 9 3 < , < < 3 e f x x x ",
"& & & & > , 3 0 q f f m W.'.K.H.H.H.A.b.z.C.,.,.k.r.q.r.C.2.G.C.Z.zXP.lX#X&X%X>X XoX'.mX3X4XNX_.c r w w 3 3 3 3 < 8 8 q f x x x ",
", < < < 3 < 3 q f k k x i.XXJ.S.n.m.Z.b.>.=.@.*.j.D.F.F.C.P.`.P.P.I.HXY.%X'.l.g.qXqXp. X&XAX4X+Xi.r w 3 3 3 3 8 8 < < e f x v v ",
"< < < < < < 8 q p g k z i.D.{.G.b.b.n.v.1.,.*.*.F.G.`.`.`.,X,X].].1X].1X'.a.s.p.rXyX X|.zX].7X+Xi.y w 5 3 3 9 3 < < 8 q a k x k ",
"& & & , 3 8 3 q w w e y ] D.b.[.[.z.2.2.1.*.,.D.D.^.[.P.P.XX`./.lXXX`./.a.f.f.Q.gXgXgXsX.XXX<X,X!.i.b w w 0 8 3 < 0 3 q a j k k ",
"# # # % , , 8 8 3 8 < 9 6 B.z.2.C.OX;.1.,.7.6.{ ] s.i.] h.(.C.F.[.G.|.|.Q.f.pXyXjXgXgX}.oX{.&X&X`.S.!.j r 8 0 w t r 0 q q e e e ",
"o o + % & , , , * * & * 4 | 1.;.;.;.dX1.w.{ 7 1 M d.W.f 0Xu.j.oXr.~.^.h.!.iXuXBXGXIXVXoX X|.1X6X2X[.h.y.i i t i i t w 0 8 8 0 8 ",
"X X o # % , * % % # # & 3  .7.1.1.1.1.gX5.] 0 < c 0X9Xy.g.u.jX8.j.(.).oXyXyXtXDXIXIXDXjXyXoXOXcX6X`.j.s i i r 0 0 0 8 8 0 8 0 0 ",
"X X X + % & & * % % % % & ] | B.w.w.x.7.qX2 s y.s.eXeXg.g.yXu.u.h.)..X|.}.qXwXDXIXIXPXpXdXlX2XcXcX%X!.z r r t r 8 8 0 0 q q a q ",
"X X o O + # # % % * : & , 4 ( &.7.).V.9.' y.s.f.g.eXwXwX0Xs.f.u.h.`.{.).}.0XtXDXDXhXjXaXVXxXcX8X8X#X!.u t r w 9 w 8 q r e f g g ",
"X X X o o + # % * < 8 9 3 1 ' +.&.&.7.}.}.f.f.tXg.tXtX0XV B s y.9.{.<X,XoXfXyXqXyXjXuXOXAXNXCXNXNX<XV.t 9 0 0 8 3 3 8 e j k x x ",
"X X o O o + # % , 3 0 r u j 6 ' 5.7.0.| u.f.0XqXDXDXIXwXd.V V f.).1XmXNXxX1XsXVXjXVXzXxXNXKXbXbXbXMX>Xi r 0 0 8 3 3 8 e a k k x ",
"X X X O # # % * , < 9 0 0 q 6 7 } 0.V.!.}.Q.0XwXDXIXIXhXtX0Xg.}..X1XvXMXcXmXmXxXxXxXxXcXCXMXAXvX8XNX>XN j i 0 8 8 < 8 0 e a g a ",
"o X o # % & : , < 8 8 0 q R R 2 ' 6.!.!.f.g.0X0XDXIXIXPXyXyXaX|..X1X6XbXAX8XmX6XzXzXlX1X6X6X8XmX8X8XnXl t i r t r 8 3 0 0 q e q ",
"X X o # % , < < < 8 8 0 1 G U E R | 0.9.h.f.g.hXDXDXhXfXaXgXdX|.`.{.<XZXbXvXmXXXOX.X/.`.{.%X&X&XvXNXvXm j 0 9 r 9 0 0 0 8 8 0 < ",
"o o + % : < 0 w w 8 8 0 2 Z Z G H ` *.6.j.}.aXaXaXfXVXdXdXVX|.dXOXXXVX8XbXbX2X{.(.k.t.e.C.F.`.{.&X3XZXW.f r w w 0 w 0 0 q 0 < 0 ",
"% % % * : < < < < < < 8 < Z C A G ( w.r.(.).[..XVXlXxXdXOX[.DX8.~.OXXXcXvXNX6X&Xk.3.8.4.<.e.S.P.#X;X5XkXb t t l a e a e a e a a ",
"& & & * : < < < 8 8 < 8 3 - C T U F 7.V.r.~..X[..XzXlXOX[.k.E fX).~./.[.zXcX,X%X/.q.h.O.@.$.<.C.J.#X:X XQ.N f f k j g g a a k j ",
": , : , < < < < < < < < 0 1 C W A - 5.1.1.aXe..X/.OXOX.X(.3.u.t.dXt.<.t.[.`.F.`.{./.(.O.T ..-.2.S.I.$X+XW.9Xs.x x x c k x x x k ",
", < < < < < < < < < 8 < 8 3 F K U - ( 1.aXe.t..X~..X[.~.4.E E h.4.j.j.k.r.t.,.G.].]./.*.Y J X.;.m.K.#X@Xl.d d.d.k k k v x x v v ",
", , < < < < < < < < < 8 < 9 2 U U Z _ oXw.e.~.t.k.~.~.t.3.E h.[ U C G }.O.O.1.G.I.].`.w.O.G ) 1.Z.H.I.'.W.4 4 N N a e a k x v v ",
"< , < < , , < < < < < < < 0 q R J Y !.7.1.,.(.q.q.k.<.t.E u.[ ) T R R R f.@.<.C.F.C.r.) S S / b.H.N.K.'.l.3 > * t N l 0 f k m v ",
"< < , 1 < < , < < < < 3 8 8 e 1 G 8.D.&.&.w.r.4.4.q.q.h.u.[ I T T T T E K (.q.<.<.<.~ = - L +.v.S.S.H.P. .$ # + + + w 0 q k v v ",
": : , : , < < < < < < < < r < 9 h h.*.&.&.!.@.@.4.4.3.f.E U T ..I E U K K X.).^.Z.w.' 2 / +.%.2.Z.Z.A.J. .+ + O + X # j n k x k ",
"& % & : : , , < < < < < 0 < < 8 d.1 ' ` 5.8.+.o.@.O.u.u.R U J J J Y [ @.@.=.Z.[.).5.` x.C.=.=.c.m.x.M.H.l.$ $ # % # % , j n k f ",
"# # # % : , < < < < < 0 < < < V 9 3 3 ' | +.` ..O.3.u.F - = . = Y ` *.1.,.o.q.@.8.j.D.`.J.v.:.>.c.z.b.Z.l.3 $ $ & & : < 5 z B c ",
"X o + # & : < < < < 8 < < < N 0 3 3 3 h } ) ^ I [ 6.3.Y C - .   . Z Z K A A Q ! %./.XX,XK.m.c.c.>.>.c.M.B.3 > 3 , > > > < 8 j j ",
"X X X # & : < < , 9 < < < N j 3 < 3 8 e ] ^ L L { 3.O.O.I J S Z - - - C A Q %.2.G.`.P.].P.M.n.c.:.-.z.b.| 3 < < < < < < < , < t ",
"X X o # & : < < 3 < < < M i < < < 3 w r 7 ~ L { [ L ) O.+.W K Y J J K ! $.<.e.e.C.S.K.K.].].M.n.:.:.b.S. .< , , < < < > < < < , ",
"X X X o & : , < < < < j M < < < < 8 8 u 1 7 ' ( Y J Y ) @...W W K K W ! $.$.$.-.:.v.J.K.K.I.`.C.>.>.z.m.7 3 , , < < , < < < , < ",
"X X X # & : < < 1 , i j < < < < 3 0 8 w < 6 ~ D D S S I O.O.X.W I W W W Q %.$.$.-.v.K.I.I.U.].`.v.>.m.7.1 < , < < , < < , < 1 < ",
"X X X # & , , , < 8 j 8 < < < < < 8 0 0 a f 7 H S S S J T W ....W W W Q Q o.-.:.v.P.Y.Y.#XY.L.S.C.b.m.] < , < < < < , < < < < < ",
"X X X # & : < < < i i < < < < < 8 8 r i t f 2 H D S S S J K ......W W X.X.-.2.Z.K.I.$X$X$XY.N.z.n.A.B.4 < , < , , < < < 4 q q q ",
"X X o # % : < < i r , < < < < < 3 8 t t j f 6 7 D S S S S D I ....X.X.X.-.z.m.J.I.#X$X$X#XL.M.z.c.Z. .y 9 < < < < < < 5 e a a a ",
"  X o # & : < t i < < < < < < < < r t t f g f 6 H D D S S S L I ..o.#.#.-.c.Z.Z.K.I.Y.#XI.H.c.>.c.x.7 3 w 3 , < < < < q a k k x ",
"o X X + & : 0 8 < < < , < < < < 3 r 0 q p f f 0 ; D ~ D D J L I ..X.#.-.-.>.v.Z.A.K.K.K.M.b.>.z.n.| 6 3 9 i < < < , < p a x v v ",
"X X o + & 0 r 8 < < < < < < < < 0 r 8 5 5 0 5 3 $ ; ~ D D L D L / ..X.#.-.-.2.v.n.n.m.n.>.;.>.b.x.7 3 3 , 3 r 8 q , < e a k v v ",
"X X X # < 8 3 < , < , < < < < 8 r < < < , > > $ + @ ; D D ( P P P L / / o.#.-.:.=.=.=.=.=.;.z.b. .4 1 < < > w 0 < 8 < e a x v x ",
"X X o : < 0 < < < , < 1 < < 8 0 0 < , & $ # + + O X @ ; D ^ ^ P L P D D I ....X.X.......o.;.m.| 6 < < < < < < a 8 8 8 q g k v v ",
"o o % , 8 < < 3 < 8 < < < 0 8 r 3 3 < : & # + + O O # : 2 ~ P P ^ ^ D D S L L L ^ ^ / o.=.1.| 7 1 < < < < < < < r 0 a a g k x v ",
": : 8 0 0 0 q q q q q 0 r 8 8 0 5 q q 5 < , > & $ # $ & , 4 ' ~ ^ / / ^ P D L P / / ..&.5.} 6 4 0 e q q q e q q e a a k k x v x ",
"q t t a t a a a a s a i q 0 8 q q p a p t 4 w 0 3 $ > 3 0 a s 6 7 ' ^ ^ ^ ^ ^ _ _ _ ` ' 7 6 < 5 q a f f a f f f f f g k v v v v ",
"k c z s k k c c z z s a t 8 8 q p g k k k k f p 5 3 3 w a k x g k x k h ] ' ] ] h y.h p 0 0 < q a g s x s x x k x k x x v v v v ",
"v v c v y.c v v c c c z a 3 8 q f x v v v x x f t 3 3 e g k v v x x v v c v x c v v x f e < 0 q f k v x x v v x x x v x x v v v ",
"m c v v c c c v c c s s q 3 8 q f k x x v v k f q 3 0 4 a h v x v v x v v c c c v v k a p < < e f k v v v x v v x x x v x x s.m "
};
