/* XPM */
static char *wall_mid1666190869[] = {
/* columns rows colors chars-per-pixel */
"64 64 15 1 ",
"  c black",
". c #030404",
"X c #060A08",
"o c #080B0A",
"O c #0D1110",
"+ c #0F1514",
"@ c #131718",
"# c #161B1D",
"$ c #191F21",
"% c #1B2524",
"& c #1F2829",
"* c #232F2F",
"= c #253233",
"- c #293737",
"; c #2D3C3D",
/* pixels */
";;;;;;=%+XX+%=;;;;;;;;;;;;;;;;;;;;=%+XX+%=;;;;;;;;=%+XX+%=;;;;;;",
";;;;;;=%OXXO%=;;;;;;;;;;;;;;;;;;;;=%OXXO%=;;;;;;;;=%OXXO%=;;;;;;",
"------*$OXXO$*--;---------------;-*$OXXO$*------;-*$OXXO$*------",
"***==*&#OXXO#&*==***=*=*=******==*&#OXXO#&*===*==*&#OXXO#&*==***",
"&&&&&&$@o..o@$&&&&&&&&&&&&&&&&&&&&$@o..o@$&&&&&&&&%@oX.o@$&&&&&&",
"$$$$$$#+o.Xo+#$$$$$$$$$$$$$$$$$$$$#+o.Xo+#$$$$$$$$#+o..o+#$$$$$$",
"####$#@Oo..oO@######@@@@########$#@Oo..oO@##$####@+OX..oO@##$###",
"######@Oo..oO@#$###@++++@#########@Oo..oO@####@@@+Oo...oO@######",
"######@Oo..oO@#$##@+OooO+@######$#@Oo..oO@##$##+Ooo.  .oO@######",
"######@Oo..oO@##$#@+oXXo+@########@Oo..oO@####@+oX.   .oO@######",
"@@@@@@+OX..XO+@@@@+OX..XO+@@@@@@@@+OX..XO+@@#@+Oo.    .oO+@@@@@@",
"OOOO+OOo.  .oOO++OOo.  .oOO+OOOOOOOo.  .oOO++OOo.      .oOOOOOOO",
"oooooooX.   .XoooooX    .XoXooooooX.    .XoooooX        .Xoooooo",
"........    ........    ............    ........        ........",
"XXX..  ..XXXXXX..  ..XXXXXXXXXXXXXXXXXXXXXX..  ..XXXXXXXXXXXXXXX",
"++OoX  XoO++++OoX  XoO++++++++++++++++++++OoX  XoO++++++++++++++",
"%%#+o..o+#%&%%#+o..o+#%%%%%%%%%%%%%%%%%%%%#+o..o+#%%%%%%%%%%%%%%",
"-=&#OXXO#&=--=&#OXXO#&=-================-=&#OXXO#&=--===========",
"--*$+oo+$*-;--*$OXXO$*--------------------*$OXXO$*--------------",
"==&$@OO@$&=--=&#OXXO#&=-===============-==&#OXXO#&==-===========",
"&&%$@++@$%&&&&$@oXXo@$&&&&&&&&&&&&&&&&&&&&%@oXXo@$&&&&&&&&&&&&&&",
"$$$##@@##$$$$$#+o..o+#$$$$$$$$$$$$$$$$$$$$#+o..o+#$$$$$$$$$$$$$$",
"############$#@Oo..oO@##$###############$#@Oo..oO@###@@@########",
"######$#######@Oo..oO@####################@Oo..oO@#@++++@#######",
"####$$########@Oo..oO@####################@Oo..oO@@@OooO+@######",
"##############@Oo..oO@####################@Oo..oO@@+oXXo+@######",
"@@@@@@@@@@@@@@+OX..XO+@@@@@@@@@@@@@@@@@@@@+OX..oO++Oo..XO+@@@@@@",
"OOOOOOOOOOOOOOOo.  .oOOOOOOOOO+OOOOOOOOOOOOo.  .oOOo.  .oOO++OOO",
"oooooooooooooXX.    .XXooooooooooooooooooXX.    .XX.    .ooooooo",
"................    ........................    ....    ........",
"XXXXXXXXXXXXXXXXXXXXXXXXXXX..  ..XXXXXXXXXXXXXXXXXXXXXX..       ",
"++++++++++++++++++++++++++OoX  XoO+++++++++++++++++++++oX       ",
"%%%%%%%%%%%%%%%%%%%%%%%%%%#+o..o+#%%%%%%%%%%%%%%%%%%%%$+o.      ",
"=======================-==&#OXXO#&=-================-=&#OX      ",
"--------------------------*$OXXO$*--------------------*$+X   ...",
"==========================&#OXXO#&=-===============-==&#OX .Xooo",
"&&&&&&&&&&&&&&&&&&&&&&&&*&%@oXXo@$&&&&&&&&&&&&&&&&&&&&%@O..XoOO+",
"$$$$$$$$$$$$$$$$$$$$$$$$$$#+o..o+#$$$$$$$$$$$$$$$$$$$$#+o..XO+@@",
"############@@@###########@Oo..oO@##$###############$#@Oo..oO@##",
"###########@++++@#########@Oo..oO@####################@Oo..o+@#$",
"##########@+OooO+@#####$##@Oo..oO@####################@Oo..o+@#$",
"##########@+oXXo+@########@Oo..oO@####################@Oo..oO@##",
"@@@@@@@@@@+OX..XO+@@@@@@@@+OX..XO+@@@@@@@@@@@@@@@@@@@@+OX..XO+@@",
"OOOOOOOO+OOo.  .oOO+OOOOOOOo.  .oOOOOOOOOO+OOOOOOOOOOOOo.  .oOOO",
"ooooooooooo.    .XoXooooooX.    .XXooooooooooooooooooXX.    .XXo",
"............    ............    ........................    ....",
"XXXXXXX..  ..XXXXXXXXXXXXXXXXXXXXXXXXXX..  ..XXXXXXXXXXXXXXXXXXX",
"++++++OoX  XoO++++++++++++++++++++++++OoX  XoO++++++++++++++++++",
"%%%%%%#+o..o+#%%%%%%%%%%%%%%%%%%%%%%%%#+o..o+#%%%%%%%%%%%%%%%%%%",
"======&#OXXO#&=-===================-==&#OXXO#&=-================",
"----;-*$OXXO$*------------------------*$OXXO$*------------------",
"======&#OXXO#&=-====================-=&#OXXO#&==-===============",
"&&&&&&%@oXXo@$&&&&&&&&&&&&&&&&&&&&&&&&%@oXXo@$&&&&&&&&&&&&&&&&&&",
"$$$$$$#+o..o+#$$$$$$$$$$$$$$$$$$$$$%$$#+o..o+#$$$$$$$$$$$$$$$$$$",
"####$#@Oo..oO@##$##############@#@@###@Oo..oO@###@@@############",
"######@Oo..oO@################@@++++@#@Oo..oO@#@++++@###########",
"######@Oo..oO@################@+OooO@@@Oo..oO@@@OooO+@##########",
"######@Oo..oO@################@+oXXo+@@Oo..oO@@+oXXo+@##########",
"@@@@@@+OX..XO+@@@@@@@@@@@@@@@@+OX..oO++Oo..oO++Oo..XO+@@@@@@@@@@",
"OOO+OOOoX..XoOOO+OOOOOOOOOOO+OOo.  XoOOoX..XoOOoX  .oOOO+OOOOOOO",
"oooooooX.  .Xoooooooooooooooooo..  .XooX.  .XooX.  .Xooooooooooo",
"........    ....................     ...     ...    ............",
"                                                                ",
"                                                                "
};
